<svg xmlns="http://www.w3.org/2000/svg" xmlns:xlink="http://www.w3.org/1999/xlink" width="512" height="11612" viewBox="0 0 512 11612"><svg viewBox="0 0 477.175 477.175" width="477.175" height="477.175" id="back" y="0"><path d="M145.188 238.575l215.5-215.5c5.3-5.3 5.3-13.8 0-19.1s-13.8-5.3-19.1 0l-225.1 225.1c-5.3 5.3-5.3 13.8 0 19.1l225.1 225c2.6 2.6 6.1 4 9.5 4s6.9-1.3 9.5-4c5.3-5.3 5.3-13.8 0-19.1l-215.4-215.5z"></path></svg><svg viewBox="0 0 475.2 475.2" width="475.2" height="475.2" id="cancel" y="478"><path d="M405.6 69.6C360.7 24.7 301.1 0 237.6 0s-123.1 24.7-168 69.6S0 174.1 0 237.6s24.7 123.1 69.6 168 104.5 69.6 168 69.6 123.1-24.7 168-69.6 69.6-104.5 69.6-168-24.7-123.1-69.6-168zm-19.1 316.9c-39.8 39.8-92.7 61.7-148.9 61.7s-109.1-21.9-148.9-61.7c-82.1-82.1-82.1-215.7 0-297.8C128.5 48.9 181.4 27 237.6 27s109.1 21.9 148.9 61.7c82.1 82.1 82.1 215.7 0 297.8z"></path><path d="M342.3 132.9c-5.3-5.3-13.8-5.3-19.1 0l-85.6 85.6-85.6-85.6c-5.3-5.3-13.8-5.3-19.1 0-5.3 5.3-5.3 13.8 0 19.1l85.6 85.6-85.6 85.6c-5.3 5.3-5.3 13.8 0 19.1 2.6 2.6 6.1 4 9.5 4s6.9-1.3 9.5-4l85.6-85.6 85.6 85.6c2.6 2.6 6.1 4 9.5 4 3.5 0 6.9-1.3 9.5-4 5.3-5.3 5.3-13.8 0-19.1l-85.4-85.6 85.6-85.6c5.3-5.3 5.3-13.8 0-19.1z"></path></svg><svg width="64" height="64" viewBox="0 0 64 64" id="cancel-1" y="954"><path d="M28.941 31.786L.613 60.114a2.014 2.014 0 1 0 2.848 2.849l28.541-28.541 28.541 28.541c.394.394.909.59 1.424.59a2.014 2.014 0 0 0 1.424-3.439L35.064 31.786 63.41 3.438A2.014 2.014 0 1 0 60.562.589L32.003 29.15 3.441.59A2.015 2.015 0 0 0 .593 3.439l28.348 28.347z"></path></svg><svg viewBox="0 0 26 26" width="26" height="26" id="checked" y="1018"><path d="M.3 14c-.2-.2-.3-.5-.3-.7s.1-.5.3-.7l1.4-1.4c.4-.4 1-.4 1.4 0l.1.1 5.5 5.9c.2.2.5.2.7 0L22.8 3.3h.1c.4-.4 1-.4 1.4 0l1.4 1.4c.4.4.4 1 0 1.4l-16 16.6c-.2.2-.4.3-.7.3-.3 0-.5-.1-.7-.3L.5 14.3.3 14z"></path></svg><svg viewBox="0 0 129 129" width="129" height="129" id="down-arrow" y="1044"><path d="M121.3 34.6c-1.6-1.6-4.2-1.6-5.8 0l-51 51.1-51.1-51.1c-1.6-1.6-4.2-1.6-5.8 0-1.6 1.6-1.6 4.2 0 5.8l53.9 53.9c.8.8 1.8 1.2 2.9 1.2 1 0 2.1-.4 2.9-1.2l53.9-53.9c1.7-1.6 1.7-4.2.1-5.8z"></path></svg><svg viewBox="0 0 483.3 483.3" width="483.3" height="483.3" id="envelope" y="1173"><path d="M424.3 57.75H59.1c-32.6 0-59.1 26.5-59.1 59.1v249.6c0 32.6 26.5 59.1 59.1 59.1h365.1c32.6 0 59.1-26.5 59.1-59.1v-249.5c.1-32.6-26.4-59.2-59-59.2zm32.1 308.7c0 17.7-14.4 32.1-32.1 32.1H59.1c-17.7 0-32.1-14.4-32.1-32.1v-249.5c0-17.7 14.4-32.1 32.1-32.1h365.1c17.7 0 32.1 14.4 32.1 32.1v249.5h.1z"></path><path d="M304.8 238.55l118.2-106c5.5-5 6-13.5 1-19.1-5-5.5-13.5-6-19.1-1l-163 146.3-31.8-28.4c-.1-.1-.2-.2-.2-.3-.7-.7-1.4-1.3-2.2-1.9L78.3 112.35c-5.6-5-14.1-4.5-19.1 1.1-5 5.6-4.5 14.1 1.1 19.1l119.6 106.9-119.1 111.5c-5.4 5.1-5.7 13.6-.6 19.1 2.7 2.8 6.3 4.3 9.9 4.3 3.3 0 6.6-1.2 9.2-3.6l120.9-113.1 32.8 29.3c2.6 2.3 5.8 3.4 9 3.4s6.5-1.2 9-3.5l33.7-30.2 120.2 114.2c2.6 2.5 6 3.7 9.3 3.7 3.6 0 7.1-1.4 9.8-4.2 5.1-5.4 4.9-14-.5-19.1l-118.7-112.7z"></path></svg><svg viewBox="0 0 512 512" width="512" height="512" id="facebook" y="1657"><path d="M134.941 272.691h56.123v231.051a8.256 8.256 0 0 0 8.258 8.258h95.159a8.256 8.256 0 0 0 8.258-8.258V273.78h64.519a8.26 8.26 0 0 0 8.204-7.315l9.799-85.061a8.259 8.259 0 0 0-8.202-9.203h-74.316V118.88c0-16.073 8.654-24.224 25.726-24.224h48.59a8.258 8.258 0 0 0 8.258-8.258V8.319a8.256 8.256 0 0 0-8.258-8.258h-66.965A65.863 65.863 0 0 0 307.027 0c-11.619 0-52.006 2.281-83.909 31.63-35.348 32.524-30.434 71.465-29.26 78.217v62.352H134.94a8.256 8.256 0 0 0-8.258 8.258v83.975a8.26 8.26 0 0 0 8.259 8.259z"></path></svg><svg viewBox="0 0 59 59" width="59" height="59" id="garbage" y="2169"><path d="M29.5 51a1 1 0 0 0 1-1V17a1 1 0 1 0-2 0v33a1 1 0 0 0 1 1zm-10 0a1 1 0 0 0 1-1V17a1 1 0 1 0-2 0v33a1 1 0 0 0 1 1zm20 0a1 1 0 0 0 1-1V17a1 1 0 1 0-2 0v33a1 1 0 0 0 1 1z"></path><path d="M52.5 6H38.456c-.11-1.25-.495-3.358-1.813-4.711C35.809.434 34.751 0 33.499 0H23.5c-1.252 0-2.31.434-3.144 1.289C19.038 2.642 18.653 4.75 18.543 6H6.5a1 1 0 1 0 0 2h2.041l1.915 46.021C10.493 55.743 11.565 59 15.364 59h28.272c3.799 0 4.871-3.257 4.907-4.958L50.459 8H52.5a1 1 0 1 0 0-2zM21.792 2.681C22.24 2.223 22.799 2 23.5 2h9.999c.701 0 1.26.223 1.708.681.805.823 1.128 2.271 1.24 3.319H20.553c.112-1.048.435-2.496 1.239-3.319zm24.752 51.298C46.538 54.288 46.4 57 43.636 57H15.364c-2.734 0-2.898-2.717-2.909-3.042L10.542 8h37.915l-1.913 45.979z"></path></svg><svg width="438.549" height="438.549" viewBox="0 0 438.549 438.549" id="github-logo" y="2228"><path d="M409.132 114.573c-19.608-33.596-46.205-60.194-79.798-79.8-33.598-19.607-70.277-29.408-110.063-29.408-39.781 0-76.472 9.804-110.063 29.408-33.596 19.605-60.192 46.204-79.8 79.8C9.803 148.168 0 184.854 0 224.63c0 47.78 13.94 90.745 41.827 128.906 27.884 38.164 63.906 64.572 108.063 79.227 5.14.954 8.945.283 11.419-1.996 2.475-2.282 3.711-5.14 3.711-8.562 0-.571-.049-5.708-.144-15.417a2549.81 2549.81 0 0 1-.144-25.406l-6.567 1.136c-4.187.767-9.469 1.092-15.846 1-6.374-.089-12.991-.757-19.842-1.999-6.854-1.231-13.229-4.086-19.13-8.559-5.898-4.473-10.085-10.328-12.56-17.556l-2.855-6.57c-1.903-4.374-4.899-9.233-8.992-14.559-4.093-5.331-8.232-8.945-12.419-10.848l-1.999-1.431c-1.332-.951-2.568-2.098-3.711-3.429-1.142-1.331-1.997-2.663-2.568-3.997-.572-1.335-.098-2.43 1.427-3.289 1.525-.859 4.281-1.276 8.28-1.276l5.708.853c3.807.763 8.516 3.042 14.133 6.851 5.614 3.806 10.229 8.754 13.846 14.842 4.38 7.806 9.657 13.754 15.846 17.847 6.184 4.093 12.419 6.136 18.699 6.136 6.28 0 11.704-.476 16.274-1.423 4.565-.952 8.848-2.383 12.847-4.285 1.713-12.758 6.377-22.559 13.988-29.41-10.848-1.14-20.601-2.857-29.264-5.14-8.658-2.286-17.605-5.996-26.835-11.14-9.235-5.137-16.896-11.516-22.985-19.126-6.09-7.614-11.088-17.61-14.987-29.979-3.901-12.374-5.852-26.648-5.852-42.826 0-23.035 7.52-42.637 22.557-58.817-7.044-17.318-6.379-36.732 1.997-58.24 5.52-1.715 13.706-.428 24.554 3.853 10.85 4.283 18.794 7.952 23.84 10.994 5.046 3.041 9.089 5.618 12.135 7.708 17.705-4.947 35.976-7.421 54.818-7.421s37.117 2.474 54.823 7.421l10.849-6.849c7.419-4.57 16.18-8.758 26.262-12.565 10.088-3.805 17.802-4.853 23.134-3.138 8.562 21.509 9.325 40.922 2.279 58.24 15.036 16.18 22.559 35.787 22.559 58.817 0 16.178-1.958 30.497-5.853 42.966-3.9 12.471-8.941 22.457-15.125 29.979-6.191 7.521-13.901 13.85-23.131 18.986-9.232 5.14-18.182 8.85-26.84 11.136-8.662 2.286-18.415 4.004-29.263 5.146 9.894 8.562 14.842 22.077 14.842 40.539v60.237c0 3.422 1.19 6.279 3.572 8.562 2.379 2.279 6.136 2.95 11.276 1.995 44.163-14.653 80.185-41.062 108.068-79.226 27.88-38.161 41.825-81.126 41.825-128.906-.01-39.771-9.818-76.454-29.414-110.049z"></path></svg><svg viewBox="0 0 471.701 471.701" width="471.701" height="471.701" id="heart" y="2667"><path d="M433.601 67.001c-24.7-24.7-57.4-38.2-92.3-38.2s-67.7 13.6-92.4 38.3l-12.9 12.9-13.1-13.1c-24.7-24.7-57.6-38.4-92.5-38.4-34.8 0-67.6 13.6-92.2 38.2-24.7 24.7-38.3 57.5-38.2 92.4 0 34.9 13.7 67.6 38.4 92.3l187.8 187.8c2.6 2.6 6.1 4 9.5 4 3.4 0 6.9-1.3 9.5-3.9l188.2-187.5c24.7-24.7 38.3-57.5 38.3-92.4.1-34.9-13.4-67.7-38.1-92.4zm-19.2 165.7l-178.7 178-178.3-178.3c-19.6-19.6-30.4-45.6-30.4-73.3s10.7-53.7 30.3-73.2c19.5-19.5 45.5-30.3 73.1-30.3 27.7 0 53.8 10.8 73.4 30.4l22.6 22.6c5.3 5.3 13.8 5.3 19.1 0l22.4-22.4c19.6-19.6 45.7-30.4 73.3-30.4 27.6 0 53.6 10.8 73.2 30.3 19.6 19.6 30.3 45.6 30.3 73.3.1 27.7-10.7 53.7-30.3 73.3z"></path></svg><svg viewBox="0 0 486.196 486.196" width="486.196" height="486.196" id="house" y="3139"><path d="M481.708 220.456l-228.8-204.6c-.4-.4-.8-.7-1.3-1-5-4.8-13-5-18.3-.3l-228.8 204.6c-5.6 5-6 13.5-1.1 19.1 2.7 3 6.4 4.5 10.1 4.5 3.2 0 6.4-1.1 9-3.4l41.2-36.9v238.6c0 18.7 15.2 34 34 34h72.2c17.6 0 31.9-14.3 31.9-31.9v-121.3c0-2.7 2.2-4.9 4.9-4.9h72.9c2.7 0 4.9 2.2 4.9 4.9v121.3c0 17.6 14.3 31.9 31.9 31.9h72.2c19 0 34-18.7 34-42.6v-228.7l41.2 36.9c2.6 2.3 5.8 3.4 9 3.4 3.7 0 7.4-1.5 10.1-4.5 4.8-5.6 4.3-14.1-1.2-19.1zm-86.2 66.7v145.1c0 9.7-4.8 15.6-7 15.6h-72.2c-2.7 0-4.9-2.2-4.9-4.9v-121.1c0-17.6-14.3-31.9-31.9-31.9h-72.9c-17.6 0-31.9 14.3-31.9 31.9v121.3c0 2.7-2.2 4.9-4.9 4.9h-72.2c-3.8 0-7-3.1-7-7v-262.8l151.8-135.6 153.1 136.9v107.6z"></path></svg><svg viewBox="0 0 512 512" width="512" height="512" id="icon-1" y="3626"><path d="M434.087 42.402H77.913a7.95 7.95 0 0 0-7.95 7.95V504.05a7.95 7.95 0 0 0 7.95 7.95h356.174a7.95 7.95 0 0 0 7.95-7.95V50.352a7.949 7.949 0 0 0-7.95-7.95z"></path><path d="M77.913 42.402a7.95 7.95 0 0 0-7.95 7.95V504.05a7.95 7.95 0 0 0 7.95 7.95H256V42.402H77.913z"></path><path d="M400.166 76.323H111.834a7.95 7.95 0 0 0-7.95 7.95v390.095a7.95 7.95 0 0 0 7.95 7.95h207.768a7.947 7.947 0 0 0 5.621-2.328l80.563-80.563a7.95 7.95 0 0 0 2.329-5.622V84.273a7.949 7.949 0 0 0-7.949-7.95z"></path><path d="M319.602 401.756v80.563h.001c2.108 0 4.13-.837 5.62-2.328l80.563-80.563a7.95 7.95 0 0 0 2.329-5.622h-80.563a7.95 7.95 0 0 0-7.95 7.95zM340.803 42.402H312.5C305.323 17.468 282.544 0 256 0s-49.323 17.468-56.5 42.402h-28.303a7.95 7.95 0 0 0-7.95 7.95v63.602a7.95 7.95 0 0 0 7.95 7.95h169.607a7.95 7.95 0 0 0 7.95-7.95V50.352a7.95 7.95 0 0 0-7.951-7.95z"></path><path d="M199.5 42.402h-28.303a7.95 7.95 0 0 0-7.95 7.95v63.602a7.95 7.95 0 0 0 7.95 7.95H256V0c-26.544 0-49.323 17.468-56.5 42.402z"></path><path d="M285.248 61.813a7.954 7.954 0 0 1-7.832-6.636C275.657 44.704 266.651 37.101 256 37.101a7.95 7.95 0 0 1 0-15.9c18.447 0 34.049 13.183 37.097 31.344a7.951 7.951 0 0 1-7.849 9.268zM256 152.646c-55.821 0-101.234 45.413-101.234 101.234S200.179 355.114 256 355.114s101.234-45.413 101.234-101.234S311.821 152.646 256 152.646z"></path><path d="M154.766 253.88c0 55.821 45.413 101.234 101.234 101.234V152.646c-55.821 0-101.234 45.413-101.234 101.234z"></path><path d="M224.199 299.992a7.924 7.924 0 0 1-5.621-2.328l-25.441-25.441a7.95 7.95 0 0 1 11.243-11.244l19.82 19.82 68.581-68.581a7.951 7.951 0 0 1 11.243 11.244l-74.203 74.203a7.932 7.932 0 0 1-5.622 2.327z"></path></svg><svg viewBox="0 0 511.999 511.999" width="511.999" height="511.999" id="icon-2" y="4138"><path d="M391.862 414.375c26.623 0 48.282-21.659 48.282-48.282 0-26.623-21.659-48.282-48.282-48.282s-48.282 21.659-48.282 48.282c0 26.623 21.659 48.282 48.282 48.282zm2.122 1.978c-32.806 0-59.496 26.689-59.496 59.495l.002.17.603 28.192a7.958 7.958 0 0 0 7.956 7.789h102.472a7.958 7.958 0 0 0 7.959-7.959v-28.192c0-32.806-26.689-59.495-59.496-59.495z"></path><path d="M391.862 317.811c-26.623 0-48.282 21.659-48.282 48.282 0 26.623 21.659 48.282 48.282 48.282.712 0 1.418-.023 2.122-.054v-96.457a51.456 51.456 0 0 0-2.122-.053zm-57.374 158.037l.002.17.603 28.192a7.958 7.958 0 0 0 7.956 7.789h50.935v-95.647c-32.806.001-59.496 26.69-59.496 59.496zM255.963 414.375c26.623 0 48.282-21.659 48.282-48.282 0-26.623-21.659-48.282-48.282-48.282-26.623 0-48.282 21.659-48.282 48.282 0 26.623 21.66 48.282 48.282 48.282zm2.122 1.978c-32.806 0-59.496 26.689-59.496 59.495l.002.17.603 28.192a7.958 7.958 0 0 0 7.956 7.789h102.472a7.958 7.958 0 0 0 7.959-7.959v-28.192c.001-32.806-26.689-59.495-59.496-59.495z"></path><path d="M255.963 317.811c-26.623 0-48.282 21.659-48.282 48.282 0 26.623 21.659 48.282 48.282 48.282.712 0 1.418-.023 2.122-.054v-96.457a51.412 51.412 0 0 0-2.122-.053zm-57.374 158.037l.002.17.603 28.192a7.958 7.958 0 0 0 7.956 7.789h50.935v-95.647c-32.806.001-59.496 26.69-59.496 59.496zM115.892 414.375c26.623 0 48.282-21.659 48.282-48.282 0-26.623-21.659-48.282-48.282-48.282S67.61 339.47 67.61 366.093c.001 26.623 21.661 48.282 48.282 48.282zm2.123 1.978c-32.806 0-59.496 26.689-59.496 59.495l.002.17.603 28.192a7.958 7.958 0 0 0 7.956 7.789h102.472a7.958 7.958 0 0 0 7.959-7.959v-28.192c.001-32.806-26.689-59.495-59.496-59.495z"></path><path d="M115.892 317.811c-26.623 0-48.282 21.659-48.282 48.282 0 26.623 21.659 48.282 48.282 48.282.712 0 1.418-.023 2.122-.054v-96.457a51.412 51.412 0 0 0-2.122-.053zM58.519 475.848l.002.17.603 28.192a7.958 7.958 0 0 0 7.956 7.789h50.935v-95.647c-32.806.001-59.496 26.69-59.496 59.496zM385.495 266.876H261.872v-76.933a7.958 7.958 0 0 0-7.959-7.959 7.958 7.958 0 0 0-7.959 7.959v76.933H113.843a7.958 7.958 0 0 0-7.959 7.959v21.223c0 4.396 3.562 7.959 7.959 7.959s7.959-3.562 7.959-7.959v-13.264h124.153v13.265a7.958 7.958 0 0 0 7.959 7.959 7.958 7.958 0 0 0 7.959-7.959v-13.264h115.664v13.264c0 4.396 3.562 7.959 7.959 7.959s7.959-3.562 7.959-7.959v-21.223a7.96 7.96 0 0 0-7.96-7.96zM125.817 74.886H92.803c-4.396 0-7.959-3.562-7.959-7.959s3.562-7.959 7.959-7.959h33.014a7.958 7.958 0 0 1 7.959 7.959 7.958 7.958 0 0 1-7.959 7.959zm-11.791 48.022a7.96 7.96 0 0 1-5.628-13.586l21.01-21.01a7.96 7.96 0 0 1 11.256 11.256l-21.01 21.01a7.943 7.943 0 0 1-5.628 2.33zm20.795-75.035a7.94 7.94 0 0 1-5.628-2.33l-21.008-21.01a7.96 7.96 0 0 1 11.256-11.256l21.009 21.01a7.96 7.96 0 0 1-5.629 13.586zm288.693 27.013H390.5c-4.396 0-7.959-3.562-7.959-7.959s3.562-7.959 7.959-7.959h33.014a7.96 7.96 0 0 1 0 15.918zm-21.223 48.022a7.94 7.94 0 0 1-5.628-2.33l-21.01-21.01a7.96 7.96 0 0 1 11.256-11.256l21.01 21.01a7.96 7.96 0 0 1-5.628 13.586zm-20.796-75.035a7.96 7.96 0 0 1-5.628-13.586l21.01-21.01a7.96 7.96 0 0 1 11.255 11.256l-21.01 21.01a7.937 7.937 0 0 1-5.627 2.33z"></path><path d="M253.382 0c-24.801 0-48.117 9.657-65.655 27.195s-27.195 40.854-27.195 65.655 9.657 48.117 27.195 65.655c17.537 17.536 40.854 27.195 65.655 27.195s48.117-9.657 65.655-27.195c17.536-17.537 27.195-40.854 27.195-65.655s-9.657-48.117-27.195-65.655C301.501 9.657 278.184 0 253.382 0z"></path><path d="M305.752 92.318a7.96 7.96 0 0 1-7.847-6.689 44.74 44.74 0 0 0-1.789-7.205 7.96 7.96 0 0 1 4.983-10.093 7.957 7.957 0 0 1 10.092 4.983 60.723 60.723 0 0 1 2.426 9.773 7.958 7.958 0 0 1-7.865 9.231zm-11.628-25.467a7.941 7.941 0 0 1-6.113-2.858c-8.618-10.322-21.239-16.242-34.627-16.242-4.396 0-7.959-3.562-7.959-7.959s3.562-7.959 7.959-7.959c18.12 0 35.195 8.003 46.845 21.957A7.959 7.959 0 0 1 299.221 65a7.922 7.922 0 0 1-5.097 1.851zM291.584 93.379h-9.02v-4.775c0-4.396-3.562-7.959-7.959-7.959s-7.959 3.562-7.959 7.959v4.775h-26.528v-4.775a7.958 7.958 0 0 0-7.959-7.959 7.958 7.958 0 0 0-7.959 7.959v4.775h-9.02c-4.396 0-7.959 3.562-7.959 7.959s3.562 7.959 7.959 7.959h9.02v59.954a7.958 7.958 0 0 0 7.959 7.959 7.958 7.958 0 0 0 7.959-7.959v-59.954h26.528v59.954c0 4.396 3.562 7.959 7.959 7.959s7.959-3.562 7.959-7.959v-59.954h9.02a7.958 7.958 0 0 0 7.959-7.959 7.959 7.959 0 0 0-7.959-7.959z"></path><path d="M287.34 169.781h-67.913a7.96 7.96 0 0 0-7.959 7.959v59.424a7.96 7.96 0 0 0 7.959 7.959h67.913c2.198 0 4.187-.89 5.627-2.331a7.934 7.934 0 0 0 2.331-5.627V177.74a7.959 7.959 0 0 0-7.958-7.959z"></path><path d="M253.382 169.781v75.341h33.956c2.198 0 4.187-.89 5.627-2.331a7.934 7.934 0 0 0 2.331-5.627V177.74a7.96 7.96 0 0 0-7.959-7.959h-33.955z"></path><path d="M211.464 199.494h83.83v15.917h-83.83z"></path><path d="M211.464 199.494h41.915v15.917h-41.915z"></path></svg><svg viewBox="0 0 512 512" width="512" height="512" id="icon-3" y="4650"><path d="M470.397 476.07h-25.771v-16.788c0-10.572-8.569-19.142-19.142-19.142H86.514c-10.572 0-19.151 8.569-19.151 19.142v16.788H41.601c-10.572 0-19.151 8.569-19.151 19.142V512h467.088v-16.788c0-10.573-8.569-19.142-19.141-19.142M91.675 440.14h328.65c53.365-45.945 87.184-112.856 87.184-188.632C507.509 113.134 394.905 0 256 0S4.491 113.134 4.491 251.509c0 75.776 33.819 142.686 87.184 188.631"></path><path d="M139.547 89.825a8.972 8.972 0 0 1-7.428-3.916c-2.794-4.096-1.743-9.683 2.353-12.477a215.789 215.789 0 0 1 33.478-18.755c4.518-2.012 9.836-.009 11.866 4.527 2.021 4.536 0 9.845-4.527 11.875a198.188 198.188 0 0 0-30.684 17.174 8.932 8.932 0 0 1-5.058 1.572m-73.733 89.824a8.875 8.875 0 0 1-3.512-.719c-4.563-1.94-6.692-7.222-4.743-11.785 11.309-26.597 27.621-50.311 48.469-70.503 3.566-3.44 9.261-3.359 12.701.207 3.449 3.566 3.359 9.252-.198 12.701-19.124 18.513-34.07 40.259-44.454 64.638-1.445 3.413-4.768 5.461-8.263 5.461M506.046 276.816c-40.008 9.962-76.081 29.732-105.697 56.527 25.223 13.357 48.469 29.956 69.12 49.305 19.555-31.341 32.454-67.261 36.577-105.832m-397.753 53.575C79.316 305.114 44.464 286.404 5.956 276.82c3.889 36.406 15.674 70.404 33.424 100.469a320.022 320.022 0 0 1 68.913-46.898"></path><path d="M371.419 319.793c-6.8 37.771-39.765 66.452-79.486 66.452-44.652 0-80.842-36.19-80.842-80.842 0-2.174.269-4.285.44-6.422-65.725 8.237-125.233 36.424-172.239 78.381 13.986 23.678 31.69 44.894 52.386 62.778H420.32c19.142-16.537 35.705-35.939 49.152-57.488-28.331-26.552-61.503-47.993-98.053-62.859M222.916 272.325c-2.3 0-4.599-.88-6.351-2.632l-29.795-29.795c-3.512-3.512-3.512-9.198 0-12.701 3.512-3.512 9.198-3.512 12.701 0l29.795 29.795a8.972 8.972 0 0 1 0 12.701 8.959 8.959 0 0 1-6.35 2.632"></path><path d="M193.122 242.526a8.98 8.98 0 0 1-8.982-8.982v-17.965c0-4.967 4.024-8.982 8.982-8.982s8.982 4.015 8.982 8.982v17.965a8.98 8.98 0 0 1-8.982 8.982"></path><path d="M193.122 242.526h-17.965a8.98 8.98 0 0 1-8.982-8.982 8.98 8.98 0 0 1 8.982-8.982h17.965a8.98 8.98 0 0 1 8.982 8.982 8.98 8.98 0 0 1-8.982 8.982m167.763 29.851a8.959 8.959 0 0 1-6.351-2.632 8.972 8.972 0 0 1 0-12.701l29.849-29.849c3.512-3.512 9.198-3.512 12.701 0 3.512 3.503 3.512 9.189 0 12.701l-29.849 29.849a8.953 8.953 0 0 1-6.35 2.632"></path><path d="M390.736 242.526a8.98 8.98 0 0 1-8.982-8.982v-17.965a8.98 8.98 0 0 1 8.982-8.982 8.98 8.98 0 0 1 8.982 8.982v17.965a8.98 8.98 0 0 1-8.982 8.982"></path><path d="M408.701 242.526h-17.965a8.98 8.98 0 0 1-8.982-8.982 8.98 8.98 0 0 1 8.982-8.982h17.965a8.98 8.98 0 0 1 8.982 8.982 8.98 8.98 0 0 1-8.982 8.982M291.929 476.07c0 19.842-16.088 35.93-35.93 35.93s-35.93-16.088-35.93-35.93 16.088-35.93 35.93-35.93 35.93 16.088 35.93 35.93M167.885 152.702H155.48a7.267 7.267 0 0 1-7.267-7.276V133.03a7.267 7.267 0 0 1 7.267-7.276h12.405a7.275 7.275 0 0 1 7.276 7.276v12.396a7.275 7.275 0 0 1-7.276 7.276m125.754-89.825h-12.405a7.267 7.267 0 0 1-7.267-7.276V43.206a7.267 7.267 0 0 1 7.267-7.276h12.405a7.275 7.275 0 0 1 7.276 7.276v12.396a7.274 7.274 0 0 1-7.276 7.275m134.737 116.772h-12.405a7.267 7.267 0 0 1-7.267-7.276v-12.396a7.267 7.267 0 0 1 7.267-7.276h12.405a7.275 7.275 0 0 1 7.276 7.276v12.396a7.275 7.275 0 0 1-7.276 7.276M113.99 260.491h-12.405a7.267 7.267 0 0 1-7.267-7.276V240.82a7.267 7.267 0 0 1 7.267-7.276h12.405a7.275 7.275 0 0 1 7.276 7.276v12.396a7.274 7.274 0 0 1-7.276 7.275M331.013 234.651c-9.827 10.357-23.678 16.86-39.083 16.86-15.405 0-29.265-6.503-39.083-16.86-24.89 13.779-41.759 40.286-41.759 70.755 0 44.643 36.19 80.842 80.842 80.842s80.842-36.199 80.842-80.842c0-30.468-16.869-56.976-41.759-70.755"></path><path d="M291.929 251.509a53.808 53.808 0 0 1-21.27-4.374l-18.189 31.51 31.115 17.965 28.259-48.945c-6.163 2.451-12.873 3.844-19.915 3.844M255.999 161.684h71.86v-35.93h-71.86z"></path><path d="M332.019 161.684h-80.177c-8.56 9.539-13.806 22.106-13.806 35.93 0 29.768 24.127 53.895 53.895 53.895s53.895-24.127 53.895-53.895c-.001-13.824-5.247-26.39-13.807-35.93"></path><path d="M354.806 170.667H229.052a8.98 8.98 0 0 1-8.982-8.982 8.98 8.98 0 0 1 8.982-8.982h125.754a8.98 8.98 0 0 1 8.982 8.982 8.979 8.979 0 0 1-8.982 8.982"></path></svg><svg viewBox="0 0 291.319 291.319" width="291.319" height="291.319" id="instagram" y="5162"><path d="M145.659 0c80.44 0 145.66 65.219 145.66 145.66S226.1 291.319 145.66 291.319 0 226.1 0 145.66 65.21 0 145.659 0z"></path><path d="M195.93 63.708H95.38c-17.47 0-31.672 14.211-31.672 31.672v100.56c0 17.47 14.211 31.672 31.672 31.672h100.56c17.47 0 31.672-14.211 31.672-31.672V95.38c-.001-17.461-14.212-31.672-31.682-31.672zm9.978 18.326l3.587-.009v27.202l-27.402.091-.091-27.202 23.906-.082zm-60.248 36.205c22.732 0 27.42 21.339 27.42 27.429 0 15.103-12.308 27.411-27.42 27.411-15.121 0-27.42-12.308-27.42-27.411-.01-6.09 4.688-27.429 27.42-27.429zm63.99 75.716c0 8.658-7.037 15.704-15.713 15.704H97.073c-8.667 0-15.713-7.037-15.713-15.704v-66.539h22.759c-2.112 5.198-3.305 12.299-3.305 18.253 0 24.708 20.101 44.818 44.818 44.818s44.808-20.11 44.808-44.818c0-5.954-1.193-13.055-3.296-18.253h22.486v66.539h.02z"></path></svg><svg viewBox="0 0 490.4 490.4" width="490.4" height="490.4" id="interface" y="5454"><path d="M245.2 490.4c135.2 0 245.2-110 245.2-245.2S380.4 0 245.2 0 0 110 0 245.2s110 245.2 245.2 245.2zm0-465.9c121.7 0 220.7 99 220.7 220.7s-99 220.7-220.7 220.7-220.7-99-220.7-220.7 99-220.7 220.7-220.7z"></path><path d="M206.5 349.6c2.3 2.3 5.4 3.6 8.7 3.6 3.2 0 6.3-1.3 8.6-3.6l147.5-146.7c2.3-2.3 3.6-5.4 3.6-8.7 0-3.2-1.3-6.4-3.6-8.7l-44.6-44.8c-4.8-4.8-12.5-4.8-17.3-.1l-94 93.5-34.2-34.4c-2.3-2.3-5.4-3.6-8.7-3.6-3.2 0-6.3 1.3-8.6 3.6l-44.8 44.6c-2.3 2.3-3.6 5.4-3.6 8.7 0 3.2 1.3 6.4 3.6 8.7l87.4 87.9zm-34-123.9l34.3 34.5c4.8 4.8 12.5 4.8 17.3.1l94-93.5 27.3 27.4-130.1 129.4-70.2-70.6 27.4-27.3z"></path></svg><svg viewBox="0 0 490.2 490.2" width="490.2" height="490.2" id="like" y="5945"><path d="M490.1 234.464c0-37.6-30.6-68.3-68.3-68.3H316.2v-76.1c0-32.2-9.4-55.4-28-69-29.4-21.6-69.8-9.3-71.5-8.7-5.1 1.6-8.6 6.3-8.6 11.7v85.5c0 67.3-78.1 90.2-81.4 91.2-1 .3-1.9.6-2.7 1.1-5.8-11.6-17.8-19.6-31.6-19.6H35.2c-19.4 0-35.2 15.8-35.2 35.2v207.9c0 19.4 15.8 35.2 35.2 35.2h33.1c6.8 0 12.3-5.5 12.3-12.3s-5.6-12.2-12.3-12.2H35.2c-5.9 0-10.7-4.8-10.7-10.7v-207.9c0-5.9 4.8-10.7 10.7-10.7h57.3c5.9 0 10.7 4.8 10.7 10.7v196.1c0 37.6 30.6 68.3 68.3 68.3h209.2c46.4 0 75.9-24.3 81.1-66.3l28.2-177c.1-.6.2-1.3.2-1.9v-2.2h-.1zm-24.5 1.1l-28.1 176.5c-3.7 30-22.8 45.3-56.8 45.3H171.5c-24.1 0-43.8-19.6-43.8-43.8v-189.1c1.8.4 3.7.3 5.6-.2 4.1-1.1 99.3-28.7 99.3-114.8v-75.6c10.4-1.6 28.2-2.5 41.1 6.9 11.9 8.8 18 25.3 18 49.3v88.4c0 6.8 5.5 12.3 12.3 12.3h117.9c24.1 0 43.8 19.6 43.8 43.8v1h-.1z"></path></svg><svg width="457.03" height="457.03" viewBox="0 0 457.03 457.03" id="link-symbol" y="6436"><path d="M421.512 207.074l-85.795 85.767c-47.352 47.38-124.169 47.38-171.529 0-7.46-7.439-13.296-15.821-18.421-24.465l39.864-39.861c1.895-1.911 4.235-3.006 6.471-4.296 2.756 9.416 7.567 18.33 14.972 25.736 23.648 23.667 62.128 23.634 85.762 0l85.768-85.765c23.666-23.664 23.666-62.135 0-85.781-23.635-23.646-62.105-23.646-85.768 0l-30.499 30.532c-24.75-9.637-51.415-12.228-77.373-8.424l64.991-64.989c47.38-47.371 124.177-47.371 171.557 0 47.357 47.369 47.357 124.178 0 171.546zm-226.804 141.03l-30.521 30.532c-23.646 23.634-62.128 23.634-85.778 0-23.648-23.667-23.648-62.138 0-85.795l85.778-85.767c23.665-23.662 62.121-23.662 85.767 0 7.388 7.39 12.204 16.302 14.986 25.706 2.249-1.307 4.56-2.369 6.454-4.266l39.861-39.845c-5.092-8.678-10.958-17.03-18.421-24.477-47.348-47.371-124.172-47.371-171.543 0L35.526 249.96c-47.366 47.385-47.366 124.172 0 171.553 47.371 47.356 124.177 47.356 171.547 0l65.008-65.003c-25.972 3.826-52.644 1.213-77.373-8.406z"></path></svg><svg viewBox="0 0 451 451" width="451" height="451" id="magnifying-glass" y="6894"><path d="M447.05 428l-109.6-109.6c29.4-33.8 47.2-77.9 47.2-126.1C384.65 86.2 298.35 0 192.35 0 86.25 0 .05 86.3.05 192.3s86.3 192.3 192.3 192.3c48.2 0 92.3-17.8 126.1-47.2L428.05 447c2.6 2.6 6.1 4 9.5 4s6.9-1.3 9.5-4c5.2-5.2 5.2-13.8 0-19zM26.95 192.3c0-91.2 74.2-165.3 165.3-165.3 91.2 0 165.3 74.2 165.3 165.3s-74.1 165.4-165.3 165.4c-91.1 0-165.3-74.2-165.3-165.4z"></path></svg><svg viewBox="0 0 24 24" width="24" height="24" id="menu" y="7345"><path d="M24 3c0-.6-.4-1-1-1H1c-.6 0-1 .4-1 1v2c0 .6.4 1 1 1h22c.6 0 1-.4 1-1V3zm0 8c0-.6-.4-1-1-1H1c-.6 0-1 .4-1 1v2c0 .6.4 1 1 1h22c.6 0 1-.4 1-1v-2zm0 8c0-.6-.4-1-1-1H1c-.6 0-1 .4-1 1v2c0 .6.4 1 1 1h22c.6 0 1-.4 1-1v-2z"></path></svg><svg width="459" height="459" viewBox="0 0 459 459" id="menu-button" y="7369"><path d="M0 382.5h459v-51H0v51zM0 255h459v-51H0v51zM0 76.5v51h459v-51H0z"></path></svg><svg viewBox="0 0 477.175 477.175" width="477.175" height="477.175" id="next" y="7828"><path d="M360.731 229.075l-225.1-225.1c-5.3-5.3-13.8-5.3-19.1 0s-5.3 13.8 0 19.1l215.5 215.5-215.5 215.5c-5.3 5.3-5.3 13.8 0 19.1 2.6 2.6 6.1 4 9.5 4 3.4 0 6.9-1.3 9.5-4l225.1-225.1c5.3-5.2 5.3-13.8.1-19z"></path></svg><svg viewBox="0 0 473.806 473.806" width="473.806" height="473.806" id="phone-call" y="8306"><path d="M374.456 293.506c-9.7-10.1-21.4-15.5-33.8-15.5-12.3 0-24.1 5.3-34.2 15.4l-31.6 31.5c-2.6-1.4-5.2-2.7-7.7-4-3.6-1.8-7-3.5-9.9-5.3-29.6-18.8-56.5-43.3-82.3-75-12.5-15.8-20.9-29.1-27-42.6 8.2-7.5 15.8-15.3 23.2-22.8 2.8-2.8 5.6-5.7 8.4-8.5 21-21 21-48.2 0-69.2l-27.3-27.3c-3.1-3.1-6.3-6.3-9.3-9.5-6-6.2-12.3-12.6-18.8-18.6-9.7-9.6-21.3-14.7-33.5-14.7s-24 5.1-34 14.7l-.2.2-34 34.3c-12.8 12.8-20.1 28.4-21.7 46.5-2.4 29.2 6.2 56.4 12.8 74.2 16.2 43.7 40.4 84.2 76.5 127.6 43.8 52.3 96.5 93.6 156.7 122.7 23 10.9 53.7 23.8 88 26 2.1.1 4.3.2 6.3.2 23.1 0 42.5-8.3 57.7-24.8.1-.2.3-.3.4-.5 5.2-6.3 11.2-12 17.5-18.1 4.3-4.1 8.7-8.4 13-12.9 9.9-10.3 15.1-22.3 15.1-34.6 0-12.4-5.3-24.3-15.4-34.3l-54.9-55.1zm35.8 105.3c-.1 0-.1.1 0 0-3.9 4.2-7.9 8-12.2 12.2-6.5 6.2-13.1 12.7-19.3 20-10.1 10.8-22 15.9-37.6 15.9-1.5 0-3.1 0-4.6-.1-29.7-1.9-57.3-13.5-78-23.4-56.6-27.4-106.3-66.3-147.6-115.6-34.1-41.1-56.9-79.1-72-119.9-9.3-24.9-12.7-44.3-11.2-62.6 1-11.7 5.5-21.4 13.8-29.7l34.1-34.1c4.9-4.6 10.1-7.1 15.2-7.1 6.3 0 11.4 3.8 14.6 7l.3.3c6.1 5.7 11.9 11.6 18 17.9 3.1 3.2 6.3 6.4 9.5 9.7l27.3 27.3c10.6 10.6 10.6 20.4 0 31-2.9 2.9-5.7 5.8-8.6 8.6-8.4 8.6-16.4 16.6-25.1 24.4-.2.2-.4.3-.5.5-8.6 8.6-7 17-5.2 22.7l.3.9c7.1 17.2 17.1 33.4 32.3 52.7l.1.1c27.6 34 56.7 60.5 88.8 80.8 4.1 2.6 8.3 4.7 12.3 6.7 3.6 1.8 7 3.5 9.9 5.3.4.2.8.5 1.2.7 3.4 1.7 6.6 2.5 9.9 2.5 8.3 0 13.5-5.2 15.2-6.9l34.2-34.2c3.4-3.4 8.8-7.5 15.1-7.5 6.2 0 11.3 3.9 14.4 7.3l.2.2 55.1 55.1c10.3 10.2 10.3 20.7.1 31.3zm-154.2-286.1c26.2 4.4 50 16.8 69 35.8s31.3 42.8 35.8 69c1.1 6.6 6.8 11.2 13.3 11.2.8 0 1.5-.1 2.3-.2 7.4-1.2 12.3-8.2 11.1-15.6-5.4-31.7-20.4-60.6-43.3-83.5s-51.8-37.9-83.5-43.3c-7.4-1.2-14.3 3.7-15.6 11s3.5 14.4 10.9 15.6zm217.2 96.3c-8.9-52.2-33.5-99.7-71.3-137.5s-85.3-62.4-137.5-71.3c-7.3-1.3-14.2 3.7-15.5 11-1.2 7.4 3.7 14.3 11.1 15.6 46.6 7.9 89.1 30 122.9 63.7 33.8 33.8 55.8 76.3 63.7 122.9 1.1 6.6 6.8 11.2 13.3 11.2.8 0 1.5-.1 2.3-.2 7.3-1.1 12.3-8.1 11-15.4z"></path></svg><svg viewBox="0 0 477 477" width="477" height="477" id="placeholder" y="8780"><path d="M238.4 0C133 0 47.2 85.8 47.2 191.2c0 12 1.1 24.1 3.4 35.9.1.7.5 2.8 1.3 6.4 2.9 12.9 7.2 25.6 12.8 37.7 20.6 48.5 65.9 123 165.3 202.8 2.5 2 5.5 3 8.5 3s6-1 8.5-3c99.3-79.8 144.7-154.3 165.3-202.8 5.6-12.1 9.9-24.7 12.8-37.7.8-3.6 1.2-5.7 1.3-6.4 2.2-11.8 3.4-23.9 3.4-35.9C429.6 85.8 343.8 0 238.4 0zm161.2 222.4c0 .2-.1.4-.1.6-.1.5-.4 2-.9 4.3v.2c-2.5 11.2-6.2 22.1-11.1 32.6-.1.1-.1.3-.2.4-18.7 44.3-59.7 111.9-148.9 185.6-89.2-73.7-130.2-141.3-148.9-185.6-.1-.1-.1-.3-.2-.4-4.8-10.4-8.5-21.4-11.1-32.6v-.2c-.6-2.3-.8-3.8-.9-4.3 0-.2-.1-.4-.1-.7-2-10.3-3-20.7-3-31.2 0-90.5 73.7-164.2 164.2-164.2s164.2 73.7 164.2 164.2c0 10.6-1 21.1-3 31.3z"></path><path d="M238.4 71.9c-66.9 0-121.4 54.5-121.4 121.4s54.5 121.4 121.4 121.4 121.4-54.5 121.4-121.4S305.3 71.9 238.4 71.9zm0 215.8c-52.1 0-94.4-42.4-94.4-94.4s42.4-94.4 94.4-94.4 94.4 42.4 94.4 94.4-42.3 94.4-94.4 94.4z"></path></svg><svg viewBox="0 0 60 60" width="60" height="60" id="play-button" y="9257"><path d="M30 0C13.458 0 0 13.458 0 30s13.458 30 30 30 30-13.458 30-30S46.542 0 30 0zm15.563 30.826l-22 15a1.002 1.002 0 0 1-1.03.058A.999.999 0 0 1 22 45V15a.999.999 0 0 1 1.564-.826l22 15a1.001 1.001 0 0 1-.001 1.652z"></path></svg><svg viewBox="0 0 481.6 481.6" width="481.6" height="481.6" id="share" y="9317"><path d="M381.6 309.4c-27.7 0-52.4 13.2-68.2 33.6l-132.3-73.9c3.1-8.9 4.8-18.5 4.8-28.4 0-10-1.7-19.5-4.9-28.5l132.2-73.8c15.7 20.5 40.5 33.8 68.3 33.8 47.4 0 86.1-38.6 86.1-86.1S429 0 381.5 0s-86.1 38.6-86.1 86.1c0 10 1.7 19.6 4.9 28.5l-132.1 73.8c-15.7-20.6-40.5-33.8-68.3-33.8-47.4 0-86.1 38.6-86.1 86.1s38.7 86.1 86.2 86.1c27.8 0 52.6-13.3 68.4-33.9l132.2 73.9c-3.2 9-5 18.7-5 28.7 0 47.4 38.6 86.1 86.1 86.1s86.1-38.6 86.1-86.1-38.7-86.1-86.2-86.1zm0-282.3c32.6 0 59.1 26.5 59.1 59.1s-26.5 59.1-59.1 59.1-59.1-26.5-59.1-59.1 26.6-59.1 59.1-59.1zM100 299.8c-32.6 0-59.1-26.5-59.1-59.1s26.5-59.1 59.1-59.1 59.1 26.5 59.1 59.1-26.6 59.1-59.1 59.1zm281.6 154.7c-32.6 0-59.1-26.5-59.1-59.1s26.5-59.1 59.1-59.1 59.1 26.5 59.1 59.1-26.5 59.1-59.1 59.1z"></path></svg><svg viewBox="0 0 490.727 490.727" width="490.727" height="490.727" id="star" y="9799"><path d="M453.443 160.214l-119.7-8.6c-2.5-.2-4.7-1.7-5.6-4.1l-45.6-111c-6.3-15.3-20.5-24.8-37.1-24.8s-30.7 9.5-37.1 24.9l-45.7 111.1c-1 2.3-3.1 3.9-5.6 4.1l-119.5 8.6c-16.2.9-30 11.5-35.3 27.1-5.4 15.8-.9 32.4 11.9 43.3l92.5 76.4c1.9 1.6 2.8 4.2 2.2 6.6l-28.2 115.4c-3.3 12-1 24.4 6.3 34.1 7.5 9.8 19.2 15.7 31.5 15.7 7.6 0 15-2.3 21.1-6.4l101.1-62.9c2.1-1.3 4.8-1.3 6.9 0l102.1 62.7c6.4 4.3 13.8 6.6 21.3 6.6 11.5 0 22.9-5.5 30.3-14.8 7.7-9.6 10.5-22.1 7.7-34.6l-28.3-115.7c-.6-2.5.3-5.1 2.2-6.7l93.9-76.6c12.6-10.8 17.1-27.4 11.8-43.2-5.2-15.6-19.1-26.3-35.1-27.2zm7.7 51.5l-93.7 76.5c-9.2 7.5-13.4 19.9-10.5 31.5l28.3 115.5c1.5 6.8-1.2 11.5-3 13.7-2.8 3.5-7 5.7-11.2 5.7-2.6 0-5.2-.8-8-2.7l-102.5-63c-4.9-3-10.5-4.6-16.3-4.6s-11.5 1.6-16.4 4.7l-101.5 63.1c-6.5 4.3-15.2 2.4-19.8-3.6-1.9-2.5-3.9-6.8-2.1-13.1l28.3-115.8c2.8-11.5-1.3-23.8-10.4-31.3l-92.3-76.3c-7.3-6.3-5.3-14.4-4.5-16.7s4.1-10 13.7-10.5l119.7-8.6c11.8-.9 22-8.2 26.5-19.2l45.7-111.1c3.7-9 12-9.7 14.4-9.7 2.4 0 10.7.7 14.4 9.7l45.7 111.1c4.5 11 14.7 18.3 26.5 19.2l119.9 8.7c9.4.5 12.7 8.2 13.5 10.5.6 2.1 2.6 10.2-4.4 16.3z"></path></svg><svg viewBox="0 0 410.155 410.155" width="410.155" height="410.155" id="twitter" y="10290"><path d="M403.632 74.18a162.414 162.414 0 0 1-28.28 9.537 88.177 88.177 0 0 0 23.275-37.067c1.295-4.051-3.105-7.554-6.763-5.385a163.188 163.188 0 0 1-43.235 17.862 11.02 11.02 0 0 1-2.702.336c-2.766 0-5.455-1.027-7.57-2.891-16.156-14.239-36.935-22.081-58.508-22.081-9.335 0-18.76 1.455-28.014 4.325-28.672 8.893-50.795 32.544-57.736 61.724-2.604 10.945-3.309 21.9-2.097 32.56a3.166 3.166 0 0 1-.797 2.481 3.278 3.278 0 0 1-2.753 1.091c-62.762-5.831-119.358-36.068-159.363-85.14-2.04-2.503-5.952-2.196-7.578.593-7.834 13.44-11.974 28.812-11.974 44.454 0 23.972 9.631 46.563 26.36 63.032a79.24 79.24 0 0 1-20.169-7.808c-3.06-1.7-6.825.485-6.868 3.985-.438 35.612 20.412 67.3 51.646 81.569a79.567 79.567 0 0 1-16.786-1.399c-3.446-.658-6.341 2.611-5.271 5.952 10.138 31.651 37.39 54.981 70.002 60.278-27.066 18.169-58.585 27.753-91.39 27.753l-10.227-.006c-3.151 0-5.816 2.054-6.619 5.106-.791 3.006.666 6.177 3.353 7.74 36.966 21.513 79.131 32.883 121.955 32.883 37.485 0 72.549-7.439 104.219-22.109 29.033-13.449 54.689-32.674 76.255-57.141 20.09-22.792 35.8-49.103 46.692-78.201 10.383-27.737 15.871-57.333 15.871-85.589v-1.346c-.001-4.537 2.051-8.806 5.631-11.712a174.776 174.776 0 0 0 35.16-38.591c2.573-3.849-1.485-8.673-5.719-6.795z"></path></svg><svg width="64" height="64" viewBox="0 0 64 64" id="up-arrow" y="10701"><path d="M3.352 48.296l28.56-28.328 28.58 28.347c.397.394.917.59 1.436.59.52 0 1.04-.196 1.436-.59a2.003 2.003 0 0 0 0-2.849l-29.98-29.735c-.2-.2-.494-.375-.757-.475a2.052 2.052 0 0 0-2.166.456L.479 45.447a2.003 2.003 0 0 0 0 2.849 2.045 2.045 0 0 0 2.873 0z"></path></svg><svg viewBox="0 0 512 512" width="512" height="512" id="vk" y="10765"><path d="M440.649 295.361c16.984 16.582 34.909 32.182 50.142 50.436 6.729 8.112 13.099 16.482 17.973 25.896 6.906 13.382.651 28.108-11.348 28.907l-74.59-.034c-19.238 1.596-34.585-6.148-47.489-19.302-10.327-10.519-19.891-21.714-29.821-32.588-4.071-4.444-8.332-8.626-13.422-11.932-10.182-6.609-19.021-4.586-24.84 6.034-5.926 10.802-7.271 22.762-7.853 34.8-.799 17.564-6.108 22.182-23.751 22.986-37.705 1.778-73.489-3.926-106.732-22.947-29.308-16.768-52.034-40.441-71.816-67.24-38.513-52.183-68.008-109.525-94.516-168.473-5.967-13.281-1.603-20.41 13.051-20.663 24.333-.473 48.663-.439 73.025-.034 9.89.145 16.437 5.817 20.256 15.16 13.165 32.371 29.274 63.169 49.494 91.716 5.385 7.6 10.876 15.201 18.694 20.55 8.65 5.923 15.236 3.96 19.305-5.676 2.582-6.11 3.713-12.691 4.295-19.234 1.928-22.513 2.182-44.988-1.199-67.422-2.076-14.001-9.962-23.065-23.933-25.714-7.129-1.351-6.068-4.004-2.616-8.073 5.995-7.018 11.634-11.387 22.875-11.387h84.298c13.271 2.619 16.218 8.581 18.035 21.934l.072 93.637c-.145 5.169 2.582 20.51 11.893 23.931 7.452 2.436 12.364-3.526 16.836-8.251 20.183-21.421 34.588-46.737 47.457-72.951 5.711-11.527 10.622-23.497 15.381-35.458 3.526-8.875 9.059-13.242 19.056-13.049l81.132.072c2.406 0 4.84.035 7.17.434 13.671 2.33 17.418 8.211 13.195 21.561-6.653 20.945-19.598 38.4-32.255 55.935-13.53 18.721-28.001 36.802-41.418 55.634-12.328 17.2-11.349 25.868 3.964 40.805z"></path></svg><svg viewBox="0 0 334.623 334.623" width="334.623" height="334.623" id="youtube" y="11277"><path d="M175.329 287.017c-.007 0 0 0 0 0-38.053 0-79.481-1.202-123.125-3.554-25.784-1.414-45.785-21.292-48.632-48.349-4.762-45.2-4.762-90.83 0-135.625 2.841-26.832 22.815-46.71 48.574-48.33 75.271-4.737 152.721-4.737 230.312 0 26.061 1.581 45.586 20.99 48.6 48.304 4.749 43.246 4.756 88.87.006 135.632-2.744 27.038-22.25 46.472-48.535 48.356-33.079 2.364-69.147 3.566-107.2 3.566zm-8.901-226.565c-37.931 0-76.113 1.195-113.485 3.541-19.685 1.234-34.39 16.048-36.594 36.851-4.666 43.895-4.666 88.613 0 132.926 2.204 20.971 16.89 35.778 36.543 36.858 43.413 2.339 84.609 3.535 122.425 3.535 37.751 0 73.51-1.189 106.287-3.528 19.833-1.427 34.57-16.228 36.659-36.839 4.666-45.862 4.666-90.58.006-132.926-2.294-20.868-17.005-35.688-36.594-36.877-38.53-2.352-77.31-3.541-115.247-3.541zm-31.852 61.331v88.208l84.706-43.805-84.706-44.403z"></path></svg></svg>