<?xml version="1.0" standalone="no"?>
<!DOCTYPE svg PUBLIC "-//W3C//DTD SVG 1.1//EN" "http://www.w3.org/Graphics/SVG/1.1/DTD/svg11.dtd" >
<svg xmlns="http://www.w3.org/2000/svg" xmlns:xlink="http://www.w3.org/1999/xlink" version="1.1">
<metadata>
Created by FontForge 20161013 at Fri Feb  9 13:44:43 2007
 By ,,,
FREEWARE!
</metadata>
<defs>
<font id="Akka" horiz-adv-x="1165" >
  <font-face 
    font-family="Akka"
    font-weight="400"
    font-stretch="normal"
    units-per-em="2048"
    panose-1="4 11 5 0 0 0 0 0 0 0"
    ascent="1638"
    descent="-410"
    x-height="1559"
    cap-height="1559"
    bbox="27 -408 1780 2177"
    underline-thickness="50"
    underline-position="-175"
    unicode-range="U+0020-007E"
  />
<missing-glyph horiz-adv-x="1536" 
d="M256 0v1280h1024v-1280h-1024zM1247 33v1214h-958v-1214h958z" />
    <glyph glyph-name=".notdef" horiz-adv-x="1536" 
d="M256 0v1280h1024v-1280h-1024zM1247 33v1214h-958v-1214h958z" />
    <glyph glyph-name=".null" horiz-adv-x="0" 
 />
    <glyph glyph-name="nonmarkingreturn" horiz-adv-x="0" 
 />
    <glyph glyph-name="space" unicode=" " horiz-adv-x="559" 
 />
    <glyph glyph-name="exclam" unicode="!" horiz-adv-x="641" 
d="M526 342h-86v86h23v-66h63v-20zM526 276h-149v152h26v-125h123v-27zM526 147h-276v279h35v-240h241v-39zM526 80h-350v346h45v-303h305v-43zM526 0h-428v426h54v-371h374v-55zM526 213h-211v215h29v-186h182v-29zM526 428l2 -20h-20v20h18zM283 1559v-986h-37v986h37z
M344 1559v-986h-29v986h29zM403 1559v-986h-26v986h26zM463 1559v-986h-23v986h23zM526 1559v-986h-18v986h18zM152 1559v-986h-54v986h54zM223 1559v-986h-47v986h47z" />
    <glyph glyph-name="numbersign" unicode="#" horiz-adv-x="1567" 
d="M1409 319h-233l-58 -321h-24l61 344h254v-23zM1409 381h-283l-73 -383h-27l74 408h309v-25zM1409 498h-385l-90 -500h-39l96 539h418v-39zM1409 561h-436l-103 -563h-47l109 608h477v-45zM1409 440h-338l-78 -442h-30l81 471h365v-29zM1208 279h201v-21h-182l-47 -260
h-15zM950 1153l6 21h-501l-88 -490h20l84 469h479zM938 1085l6 25h-432l-76 -424h25l71 399h406zM924 1018l6 26h-365l-67 -360h26l64 334h336zM913 954l5 35h-306l-53 -305h31l47 270h276zM901 889l8 39h-245l-46 -244h39l37 205h207zM764 805l-23 -121h125l21 121h-123z
M889 825l8 41h-182l-33 -182h41l25 141h141zM666 258l-48 -260h-18l51 281h140l8 40h-185l-59 -321h-23l62 344h209l6 39h-246l-69 -383h-27l70 408h276l6 34h-307l-78 -442h-28l81 473h336l4 27h-362l-94 -500h-39l102 541h402l2 22h-424l-105 -563h-45l111 608h473l4 21
h-498l-114 -629h-56l47 264h-176v21h178l7 41h-183v20h187l6 39h-193v27h199l6 34h-205v29h209l4 27h-213v41h219l5 22h-224v45h234l2 21h-236v57h248l25 121h-170v18h178l4 41h-182v23h186l6 39h-192v26h198l4 35h-202v29h207l6 26h-213v41h219l4 25h-223v43h231l4 21h-235
v57h246l47 254h59l-49 -254h24l45 254h48l-48 -254h25l47 254h37l-41 -254h25l43 254h32l-41 -254h31l43 254h29l-39 -254h33l43 254h20l-39 -254h41l47 254h19l-41 -254h121l43 254h57l-43 -254h20l50 254h45l-47 -254h24l49 254h37l-47 -254h27l47 254h33l-45 -254h28
l47 254h31l-45 -254h39l47 254h20l-45 -254h47l44 254h18l-45 -254h102v-57h-491l-90 -490h22l88 469h471v-45h-432l-82 -424h23l78 401h413v-41h-381l-67 -360h22l66 334h362v-31h-336l-57 -303h31l51 270h311v-26h-284l-47 -244h36l41 205h254v-23h-233l-35 -182h43
l25 141h198v-18h-182l-20 -123l106 -2v-55h-494l-114 -629h-56l43 260h-122z" />
    <glyph glyph-name="dollar" unicode="$" 
d="M575 74q80 0 152 31t125 83.5t85 125t32 149.5t-25.5 144.5t-72 119.5t-111.5 86t-139 41l-43 6q-88 9 -150 64.5t-66 140.5q0 90 62.5 156t150.5 67q52 0 97 -22.5t76 -62.5t40 -85q3 -16 3 -47h-43q0 16 -7 41q-17 61 -60.5 97t-107.5 36q-71 0 -119 -50.5t-48 -121.5
q0 -68 48 -114t117 -52l56 -6q109 -9 198 -70t138 -157.5t49 -206.5q0 -89 -32.5 -167t-92.5 -139.5t-139 -97t-168 -36.5q-79 0 -155.5 28t-138 80t-99 121t-46.5 147q-2 23 -2 62h45v-62q15 -134 129.5 -231.5t261.5 -97.5zM580 317q61 1 104 46t43 106q-1 59 -41.5 100.5
t-99.5 46.5l-37 2q-121 9 -219.5 71t-155.5 164.5t-57 221.5q0 123 64 227.5t171 165t230 60.5q112 -3 209 -55t158.5 -142.5t76.5 -204.5q6 -30 6 -55h-22q0 13 -4 53q-10 81 -47.5 151t-93.5 121t-131 80t-154 29q-89 0 -167 -31.5t-140 -91t-96.5 -136t-35.5 -163.5
q0 -117 53.5 -212.5t147.5 -155.5t209 -72l47 -4q67 -8 110.5 -57t43.5 -117q-1 -70 -51 -120t-121 -52q-63 0 -112 36.5t-62 98.5q0 6 -1 17t-2 20h23q0 -27 10 -55q37 -93 144 -93zM580 254q88 2 149.5 64.5t61.5 148.5q-1 52 -25 98t-65.5 74.5t-96.5 34.5l-65 8
q-103 12 -186 66.5t-130 140.5t-47 188q1 107 57 197.5t149.5 142t199.5 51.5q153 -3 261 -102t126 -248q2 -16 2 -47h-27q0 35 -2 55q-9 64 -39 120.5t-80 100t-110.5 68t-130.5 25.5q-73 0 -141.5 -27.5t-120 -77t-82 -117t-31.5 -139.5q0 -94 43.5 -177t120.5 -134.5
t172 -58.5l57 -4q61 -6 110.5 -39.5t78 -86.5t28.5 -114q0 -97 -70.5 -168.5t-168.5 -71.5q-80 0 -149.5 50.5t-86.5 132.5q-2 20 -2 57h25q0 -43 8 -66q19 -64 76 -104.5t131 -40.5zM582 195q72 1 135 38t100 100t37 134t-32 129.5t-87 94.5t-125 44l-67 8
q-85 9 -153.5 54.5t-107 116.5t-38.5 155q0 88 44.5 166t122.5 124t175 46q126 -6 216.5 -81.5t106.5 -195.5q4 -20 4 -57h-30q0 39 -4 62q-15 72 -58.5 127.5t-108 85.5t-137.5 30q-60 0 -116.5 -24t-98.5 -66t-66 -98t-24 -115t20.5 -111t59 -94t86.5 -66t107 -30l73 -6
q76 -7 137 -49t95.5 -107.5t34.5 -142.5q0 -63 -22.5 -115.5t-66.5 -96.5t-97 -66.5t-117 -24.5q-71 0 -138.5 33.5t-112 88t-53.5 115.5v64h31v-59q6 -55 47 -103t103 -78t125 -30zM575 135q91 0 166 44.5t119.5 120t44.5 165.5q0 82 -35 153.5t-98 117.5t-143 55l-86 10
q-104 12 -173 88t-71 180q0 75 36.5 139.5t99 103.5t136.5 40q72 0 137 -34.5t105 -93t41 -122.5v-31h-37q0 27 -2 43q-13 89 -80.5 145t-159.5 56q-100 0 -170.5 -73t-70.5 -173q1 -60 28 -111t74.5 -83.5t104.5 -38.5l90 -11q89 -9 161 -60.5t112 -130t40 -171.5
q0 -97 -48 -180t-131.5 -133.5t-178.5 -51.5q-90 0 -173.5 40t-137 109t-62.5 154v64h37v-62q15 -110 109 -189t216 -79zM801 -193h-19v181l-45 -23v-158h-22v154l-37 -6v-148h-27v144h-33v-144h-28v144h-31l-2 -144h-37v144l-22 2v-146h-47v156l-25 10v-166h-53v187
q-92 39 -159 98.5t-104.5 140.5t-46.5 183q-2 18 -2 49h54q0 -43 4 -70q15 -114 83 -204.5t169.5 -140.5t210.5 -50q94 0 177 36t147 101.5t99 151.5t35 178q0 85 -30.5 164.5t-86.5 142t-131 102t-163 48.5l-47 4q-62 8 -106.5 45.5t-47.5 93.5q0 61 43 106.5t104 45.5
q51 0 93 -34.5t51 -76.5q2 -14 2 -37h-55q0 21 -2 33q-9 29 -32 45t-54 16q-37 0 -65 -25.5t-28 -62.5q0 -36 27 -62.5t66 -29.5l57 -4q98 -9 182.5 -54t146.5 -115t97.5 -159.5t36.5 -183.5q0 -109 -34 -199.5t-100 -158t-161 -111.5zM795 1546q110 -52 195.5 -165
t99.5 -255q4 -40 4 -55h-17q0 15 -4 51q-15 125 -81.5 226t-170.5 159t-231 62q-139 0 -258 -66.5t-188.5 -180.5t-69.5 -249q1 -130 63.5 -240.5t169 -179t234.5 -78.5h34q45 -3 77 -32.5t32 -73.5q0 -43 -29 -75.5t-73 -33.5q-39 0 -71 21t-38 53q-2 12 -2 31h18
q0 -23 3 -35q17 -53 86 -53q38 0 63 26.5t25 63.5q0 24 -11.5 44t-32 32.5t-44.5 13.5l-52 4q-133 13 -240.5 84.5t-169 184t-61.5 245.5q0 155 90.5 284.5t219.5 184.5v195h55v-176l24 10v166h48v-156l20 4v152h39v-146h31v146h28v-150l33 -2v152h27v-156l37 -10v166h22
v-172l45 -15v187h21v-193z" />
    <glyph glyph-name="ampersand" unicode="&#x26;" horiz-adv-x="1366" 
d="M623 768l-156 -217q-33 -49 -33 -88q0 -61 42.5 -106t103.5 -48q64 0 110 33l279 213l288 -385l-18 -14l-276 368l-258 -192q-62 -47 -125 -47q-70 3 -119 54.5t-49 123.5q3 52 39 100l147 205l-158 209q-15 20 -20.5 41.5t-5.5 52.5q0 71 49.5 122t118.5 52
q94 0 143 -69l-14 -11q-47 58 -129 58q-61 -1 -103.5 -45.5t-44.5 -106.5q0 -47 23 -80zM549 768l-139 -193q-35 -49 -35 -116q0 -57 28.5 -104.5t75 -75.5t103.5 -29q39 0 70.5 9.5t62.5 33.5l241 178l252 -340l-22 -14l-236 317l-223 -168q-54 -43 -141 -45q-98 0 -169 72
t-71 170q0 72 35 119l131 184l-115 158q-53 70 -53 145q0 64 31 118.5t86.5 88t124.5 33.5q60 -3 102 -16t92 -79l-20 -16q-33 45 -74.5 64.5t-101.5 19.5q-58 -2 -105.5 -29.5t-75.5 -74.5t-28 -105q0 -72 37 -123zM473 764l-102 -139q-32 -42 -45 -77t-13 -85
q0 -113 74 -191t193 -84q102 0 170 52l190 147l217 -291l-20 -16l-201 264l-170 -129q-42 -30 -84 -42.5t-100 -12.5q-129 6 -213 93.5t-84 211.5q2 39 6.5 62.5t14 46t28.5 49.5l102 145l-84 115q-36 49 -51.5 90t-15.5 94q0 60 22.5 116.5t62 97.5t95 65.5t119.5 27.5
q77 0 142 -33t105 -88l-22 -18q-42 57 -96 82.5t-131 25.5q-118 -4 -192.5 -81.5t-74.5 -190.5q0 -33 6.5 -60.5t16 -46.5t33.5 -57zM403 768l-75 -102q-41 -56 -57.5 -97.5t-16.5 -103.5q0 -68 25.5 -127.5t71 -106.5t105.5 -74t126 -28q66 0 111.5 16.5t101.5 57.5
l137 100l182 -242l-29 -20l-163 213l-105 -78q-59 -43 -111 -61.5t-124 -18.5q-106 3 -189 52.5t-129.5 133.5t-46.5 181q1 65 20 111.5t62 107.5l59 86l-59 76q-43 57 -61.5 108.5t-18.5 118.5q2 97 48 180t129 133.5t188 53.5q64 0 120.5 -19.5t103 -52.5t77.5 -74
l-31 -18q-98 127 -270 127q-91 -2 -166 -46.5t-119.5 -120t-44.5 -165.5q0 -65 21 -114.5t67 -108.5zM324 768l-56 -78q-75 -101 -75 -227q0 -78 30.5 -149.5t85.5 -126t123 -85.5t148 -36q73 0 141.5 25.5t109.5 60.5l87 65l147 -194l-37 -25l-119 156l-39 -29
q-74 -54 -138 -78t-150 -24q-91 1 -170 36.5t-137.5 96t-91.5 140.5t-33 167t36.5 167.5t89.5 135.5q-55 57 -90.5 132.5t-35.5 172.5q7 125 65 224t156.5 155t220.5 57q74 0 139 -22t117 -60.5t92 -89.5l-35 -28q-55 75 -137.5 117t-183.5 42q-108 -3 -198 -56.5
t-141.5 -143.5t-51.5 -195q0 -130 75 -231zM244 766q-116 -129 -119 -301q0 -91 35 -176t100 -150.5t146.5 -101.5t175.5 -37q88 0 150 21t132 71l39 29l105 -139l-45 -33l-70 96q-135 -98 -313 -98q-141 0 -259 69.5t-184.5 188.5t-66.5 258q0 167 102 303q-37 49 -59 94
t-32.5 96.5t-10.5 114.5q0 104 38.5 197.5t107.5 164.5t164 111.5t202 40.5q134 0 242.5 -55t179.5 -152l-43 -30q-64 84 -163 135t-216 51q-123 -1 -228.5 -65t-167 -170.5t-61.5 -229.5q3 -174 119 -303zM702 764l-188 -246q-17 -23 -20 -51q0 -38 27.5 -65t70.5 -33
q26 0 90 47l299 223l324 -434l-13 -10l-315 423l-283 -210q-9 -6 -24 -17.5t-29 -21t-26.5 -13.5t-28.5 -4q-44 4 -76.5 36.5t-32.5 76.5q0 36 23 63l182 240l-180 238q-23 27 -23 63q0 45 31.5 77t75.5 34q18 0 37 -6.5t31.5 -15t21.5 -17.5l-12 -13q-29 31 -80 31
q-36 -3 -62 -29t-26 -63q0 -24 20 -51z" />
    <glyph glyph-name="parenleft" unicode="(" horiz-adv-x="686" 
d="M330 178q0 -71 12.5 -118.5t48.5 -116.5q31 -56 60.5 -90t78.5 -74l-20 -23q-93 73 -145 170q-35 65 -50.5 120t-15.5 124v1130q0 45 8 85.5t21 72t41 86.5q54 100 141 172l20 -22q-50 -43 -78.5 -77.5t-58.5 -90.5q-34 -67 -48.5 -116.5t-14.5 -115.5v-1116zM387 182
q0 -60 11 -106.5t42 -106.5q27 -49 66 -89.5t65 -57.5l-20 -19q-34 27 -73 69t-64 89q-31 63 -42.5 110t-11.5 109v1112q0 61 14.5 109t45.5 106q24 46 61.5 90.5t69.5 71.5l20 -18q-25 -21 -62 -64.5t-60 -89.5q-35 -65 -48.5 -106.5t-13.5 -100.5v-1108zM449 182
q0 -103 45 -184q41 -76 114 -127l-14 -21q-70 51 -115 132q-31 58 -42 99.5t-11 98.5v1112q0 52 12 92.5t43 100.5q23 41 55.5 78.5t57.5 56.5l14 -16q-64 -54 -108 -136q-27 -53 -39 -91.5t-12 -86.5v-1108zM512 184q0 -85 33 -147q17 -35 53 -73t51 -48l-12 -14
q-59 37 -100 108q-27 49 -36 88.5t-9 89.5v1096q0 44 9.5 79.5t28.5 74.5q19 36 51 74.5t56 56.5l12 -13q-72 -64 -98 -126q-39 -72 -39 -144v-1102zM139 193q0 -92 18.5 -159.5t61.5 -160.5q40 -78 90 -138.5t101 -103.5l-33 -39q-127 103 -205 252q-51 102 -70.5 175
t-19.5 171v1092q0 98 20 173t70 173q42 78 96.5 143.5t108.5 108.5l33 -41q-121 -100 -191 -242q-43 -90 -61.5 -157.5t-18.5 -159.5v-1087zM270 186q0 -71 14.5 -127.5t51.5 -130.5q58 -118 158 -196l-25 -27q-97 79 -162 201q-28 54 -43.5 94t-23 86t-7.5 96v1082
q0 90 17.5 155.5t58.5 145.5q58 113 160 200l25 -24q-38 -31 -82 -85.5t-76 -115.5q-37 -76 -51.5 -128.5t-14.5 -127.5v-1098zM209 193q0 -86 16.5 -151.5t59.5 -145.5q34 -67 84 -125.5t86 -87.5l-29 -31q-62 53 -101.5 102t-78.5 125q-44 87 -63 157t-19 163v1075
q0 91 19 161t63 154q24 49 49.5 87.5t56 72t74.5 72.5l29 -31q-39 -33 -87.5 -92.5t-82.5 -122.5q-43 -82 -59.5 -145.5t-16.5 -151.5v-1085z" />
    <glyph glyph-name="parenright" unicode=")" horiz-adv-x="680" 
d="M354 1300q0 66 -15.5 119t-47.5 113q-26 49 -59.5 89.5t-77.5 76.5l20 22q87 -71 141 -172q36 -66 53 -119t17 -122v-1131q0 -71 -14.5 -122.5t-51.5 -121.5q-55 -103 -145 -170l-20 23q52 39 81.5 74t57.5 90q34 61 47.5 111.5t13.5 121.5v1118zM297 1294
q0 57 -15 103.5t-46 103.5q-20 41 -58.5 87.5t-64.5 68.5l18 18q26 -19 67.5 -67t65.5 -95q29 -56 43.5 -105.5t14.5 -109.5v-1112q0 -119 -54 -219q-25 -48 -65 -92t-72 -68l-18 19q26 19 66.5 61t64.5 88q30 55 41.5 101t11.5 112v1106zM236 1294q0 50 -12 87.5t-40 91.5
q-44 83 -110 137l16 16q70 -57 113 -137q28 -53 40.5 -94t12.5 -97v-1112q0 -60 -11.5 -104.5t-39.5 -93.5q-46 -83 -115 -131l-16 18q34 25 63 55t53 72q46 92 46 186v1106zM170 1292q0 67 -37 144q-16 34 -49 73t-49 52l12 14q19 -15 39 -36.5t38 -46.5t30 -48
q36 -76 36 -154v-1097q0 -55 -9.5 -96.5t-33.5 -80.5q-38 -67 -100 -108l-12 12q74 58 104 123q18 33 24.5 66.5t6.5 80.5v1102zM545 1284q0 92 -18.5 162.5t-61.5 155.5q-74 143 -191 243l33 41q128 -106 203 -252q48 -92 69 -170t21 -176v-1093q0 -98 -21 -175.5
t-69 -171.5q-78 -151 -203 -251l-33 41q119 101 191 241q44 89 62 158t18 160v1087zM414 1290q0 72 -15.5 127t-52.5 127q-54 110 -156 203l23 25q103 -90 162 -203q43 -81 59.5 -146.5t16.5 -154.5v-1080q0 -79 -17.5 -139.5t-56.5 -136.5q-63 -119 -164 -201l-23 25
q44 36 86 85.5t72 110.5q35 69 50.5 128t15.5 133v1097zM473 1282q0 92 -16 154.5t-60 142.5q-32 66 -83.5 128t-84.5 87l27 33q62 -53 102.5 -104.5t79.5 -127.5q46 -92 64 -157t18 -158v-1077q0 -92 -17.5 -159.5t-64.5 -160.5q-41 -77 -80 -125.5t-102 -101.5l-27 31
q36 29 87.5 91.5t82.5 121.5q44 83 59 145.5t15 151.5v1085z" />
    <glyph glyph-name="asterisk" unicode="*" horiz-adv-x="866" 
d="M160 1485l102 -37v106h55v-182l-176 58zM131 1403l211 -70l2 221h41v-276l-264 88zM446 1554v-321l302 98l8 -20l-303 -103l186 -258l-21 -14l-192 268l-193 -268l-20 14l193 264l-306 101l9 20l309 -100v319h28zM516 1556v-223l209 68l14 -41l-264 -86v280zM600 1556
v-110l102 31l15 -52l-170 -51v182h53zM778 1243l-205 -72l125 -172l-28 -26l-162 219l256 88zM805 1165l-100 -35l57 -86l-41 -32l-103 147l164 55zM90 1282l264 -88l-166 -227l-32 26l125 176l-205 74zM66 1214l174 -57l-111 -145l-39 30l60 86l-99 35zM264 922l166 229
l168 -229l-35 -25l-131 178l-133 -180zM367 842l-43 32l106 156l111 -149l-45 -33l-66 84z" />
    <glyph glyph-name="comma" unicode="," horiz-adv-x="555" 
d="M66 88h84v-86q0 -24 -13 -57q-12 -33 -41 -62l-12 19q25 25 35 52.5t10 47.5v66h-63v20zM66 154h149v-162q0 -40 -16 -76q-19 -43 -56 -76l-20 21q31 21 51 67q14 44 14 68l-2 131h-120v27zM66 283h276v-289q0 -54 -29 -123q-26 -70 -84 -125l-22 29q50 43 76 108
q22 68 22 117v244h-239v39zM66 350h348v-356q0 -75 -31 -150q-18 -43 -46 -82t-56 -65l-29 31q56 51 90 131q9 20 19 61t10 76v313h-305v41zM66 430h428l2 -395q0 -71 -8.5 -116.5t-34.5 -108.5q-21 -51 -46.5 -88t-68.5 -82l-39 38q70 66 104 154q21 49 27 90.5t6 104.5
v348h-370v55zM66 217h210v-217q0 -55 -26 -115q-34 -60 -64 -90l-20 19q15 13 31.5 35.5t27.5 48.5q21 50 21 98v192h-180v29zM39 -55q12 7 22 24q1 6 3 15t2 14v22h18v-20q0 -17 -6 -35q-13 -22 -29 -35z" />
    <glyph glyph-name="hyphen" unicode="-" horiz-adv-x="666" 
d="M55 856h547v-39h-547v39zM55 788h547v-30h-547v30zM55 725h547v-25h-547v25zM55 662h547v-23h-547v23zM55 594h547v-19h-547v19zM55 1004h547v-54h-547v54zM55 926h547v-47h-547v47z" />
    <glyph glyph-name="period" unicode="." horiz-adv-x="555" 
d="M61 86h86v-86h-22v63h-64v23zM61 152h152v-152h-27v125h-125v27zM61 279h277v-279h-35v242h-242v37zM61 348h351v-348h-45v305h-306v43zM61 428h431v-428h-56v371h-375v57zM61 215h213v-215h-30v184h-183v31zM61 0v20l19 -2v-18h-19z" />
    <glyph glyph-name="slash" unicode="/" horiz-adv-x="1430" 
d="M227 -346l834 1911h41l-838 -1911h-37zM297 -346l836 1911l32 -2l-839 -1909h-29zM365 -346l839 1911h27l-840 -1911h-26zM440 -346l836 1911h24l-839 -1911h-21zM508 -346l840 1911h20l-842 -1911h-18zM63 -346l838 1911h57l-841 -1911h-54zM145 -346l840 1911h47
l-839 -1911h-48z" />
    <glyph glyph-name="zero" unicode="0" horiz-adv-x="1735" 
d="M47 778q1 166 63.5 313t175 259.5t259.5 176t313 64.5q170 0 320.5 -62.5t265 -174.5t179.5 -259t65 -311q0 -223 -109.5 -412.5t-297.5 -301.5t-404 -113q-222 0 -412.5 110.5t-304 300.5t-113.5 410zM457 778q1 110 55 202.5t147 148.5t201 57q112 0 208 -54.5
t152.5 -147.5t57.5 -204q0 -110 -55 -206t-147.5 -152t-203.5 -57q-83 0 -158 32t-134.5 91.5t-91 133.5t-31.5 156zM872 383q82 2 152.5 33.5t124.5 86.5t83.5 126.5t29.5 150.5t-31.5 150t-86.5 125t-128.5 84t-153.5 30q-104 -1 -193.5 -54t-142 -142.5t-53.5 -194.5
q0 -108 54.5 -198.5t146 -143.5t198.5 -53zM391 776q0 127 63.5 235.5t171.5 172.5t234 65q128 0 239.5 -62.5t177 -170.5t66.5 -236q0 -128 -59 -236.5t-167 -173.5t-245 -69q-96 0 -183.5 36t-155 103t-105 154t-37.5 182zM874 203q125 6 230 52.5t181 125.5t116.5 181
t40.5 220q-1 151 -80 282t-212.5 206.5t-289.5 75.5q-153 0 -283 -76.5t-206.5 -207t-77.5 -284.5q0 -151 77 -285t210 -212t294 -78zM874 10q205 1 380.5 106.5t277.5 281.5t102 380q0 153 -62 293.5t-168.5 244t-248.5 162t-297 58.5q-205 -1 -380 -104t-277 -277.5
t-103 -378.5q0 -206 105 -382.5t284.5 -280t386.5 -103.5zM874 143q175 4 318.5 90.5t226 232t82.5 316.5q-1 127 -53.5 243t-139 200t-203 133t-247.5 49q-128 -1 -242 -51t-200.5 -137t-135 -200.5t-49.5 -240.5q0 -170 85.5 -316.5t233.5 -232.5t324 -86zM877 82
q139 1 264.5 56.5t221 153t148 224t52.5 266.5q-1 142 -56.5 267t-153.5 220t-224.5 148t-268.5 53q-139 -1 -265.5 -55.5t-221.5 -149.5t-149 -221.5t-54 -265.5t54 -265.5t152 -224t228.5 -152t272.5 -54.5zM129 778q1 198 99.5 366t266 266.5t363.5 98.5q150 0 286.5 -56
t238.5 -154.5t162 -233t61 -283.5q0 -197 -97.5 -367.5t-266 -272.5t-365.5 -103q-151 0 -287.5 58t-240.5 161t-162 237.5t-58 282.5zM264 776q0 121 45.5 229t128.5 192.5t192 130.5t230 46q163 0 303.5 -78t223 -214t83.5 -300q0 -164 -76.5 -302t-212.5 -220t-307 -88
q-164 0 -305.5 82t-223 221.5t-81.5 300.5zM197 778q1 134 52.5 254t142.5 211t212.5 143.5t253.5 53.5q180 0 336 -88t248.5 -239.5t93.5 -330.5q0 -136 -48 -258t-138 -215t-211.5 -145t-264.5 -55q-181 0 -337 90t-248 244.5t-92 334.5zM326 778q0 109 41 205t117 173
t172 118.5t204 42.5q110 0 209.5 -41.5t176 -115.5t120 -172t43.5 -208q0 -147 -68 -270t-190 -196.5t-277 -77.5q-148 0 -274.5 73.5t-200 198.5t-73.5 270zM874 258q112 3 205.5 44.5t161.5 114.5t104.5 164.5t36.5 196.5q-1 141 -72 258t-191.5 185.5t-260.5 68.5
q-103 -1 -194.5 -41t-161.5 -110t-110 -162t-42 -199q0 -140 71 -260t191.5 -190t261.5 -70zM874 322q130 4 232.5 66t159.5 164.5t57 225.5q0 90 -37 174t-100 146t-147.5 97.5t-176.5 35.5q-92 -2 -172 -37t-143 -99t-98 -146t-35 -171q0 -121 61 -226.5t166.5 -167.5
t232.5 -62z" />
    <glyph glyph-name="one" unicode="1" horiz-adv-x="748" 
d="M53 1149l203 2v-1151h-18v1133h-193zM84 1217h240v-1217h-21v1194h-229zM115 1280h276v-1280h-29v1255h-258zM176 1411h344v-1411h-39v1374h-321zM207 1481h381v-1481h-47v1434h-353zM246 1559h424l-2 -1559h-54v1505h-395zM145 1343h306v-1343h-29v1313h-293z" />
    <glyph glyph-name="two" unicode="2" horiz-adv-x="1157" 
d="M55 1087q1 105 40.5 196.5t109.5 160.5t161 109t195 42q106 0 200.5 -37.5t166.5 -103.5t115 -157t44 -195q0 -84 -12 -143t-47 -119l-237 -410h296v-20h-325l252 440q33 58 46 114t13 132q-3 132 -73 244t-185 176.5t-250 64.5q-132 -1 -246 -68t-181 -180.5t-68 -245.5
q0 -109 46 -205.5t123.5 -166t166.5 -99.5l20 37q-83 28 -152.5 89.5t-112.5 149t-44 187.5q0 122 60.5 227t165 167.5t226.5 62.5q121 0 226.5 -60t168 -163.5t62.5 -227.5q0 -67 -12.5 -118t-42.5 -103l-291 -499l407 2v-23h-444l307 530q31 52 42.5 102.5t11.5 117.5
q-1 88 -35.5 164.5t-95.5 135t-139 90.5t-165 32q-115 0 -215 -58.5t-158.5 -158t-58.5 -218.5q1 -142 87.5 -253.5t217.5 -151.5l15 31q-81 25 -143.5 78t-99 129.5t-36.5 166.5q0 81 30.5 153t85 126.5t125.5 85.5t152 31t153.5 -31t126 -84.5t85 -126t31.5 -154.5
q0 -57 -9.5 -97t-37.5 -89l-345 -590h512v-26h-561l373 636q23 38 31 78t8 97q-1 97 -51 179.5t-134.5 131.5t-181.5 49q-98 0 -183 -49.5t-135 -134.5t-50 -183q0 -127 77 -223t191 -127l16 31q-67 17 -124.5 63.5t-92 115.5t-34.5 144q1 67 28 127t74.5 105.5t107.5 69.5
t127 24q89 0 166.5 -43.5t123.5 -120t46 -164.5q0 -50 -10 -85.5t-33 -75.5l-395 -678h616v-29h-665l424 733q18 32 23 59t5 76q-1 80 -41.5 148.5t-109 109t-148.5 41.5q-82 0 -152.5 -39t-113 -107.5t-43.5 -150.5q0 -105 69 -190t165 -109l14 27q-88 19 -152.5 95
t-64.5 173q0 74 37.5 136.5t101.5 99.5t135 37q114 0 196 -79.5t83 -191.5q0 -74 -29 -124l-454 -775h720v-36l-784 -3l485 824q15 26 19 50.5t4 65.5q-1 65 -34 119.5t-86.5 85.5t-119.5 31q-64 0 -118.5 -33t-86.5 -89.5t-32 -119.5q0 -87 58 -154t143 -79l14 22
q-75 9 -133 72.5t-58 142.5q1 58 31 106.5t78 76.5t106 28q56 0 105 -27.5t79 -76.5t31 -105q0 -60 -24 -102l-500 -858l823 -2v-45h-903l541 930q18 31 18 73q0 70 -51 119t-121 49q-69 0 -119.5 -48.5t-50.5 -119.5q0 -46 24.5 -85t65 -61t87.5 -22l8 23q-67 0 -113.5 44
t-46.5 103q0 58 42 101t103 43q40 0 73.5 -19t53 -51t21.5 -72q0 -40 -14 -63l-562 -969h944v-55h-1038l346 600q-71 26 -132 72t-107.5 110t-73.5 143t-27 162zM578 993q37 1 60.5 28.5t23.5 63.5t-25 62.5t-62 26.5q-36 0 -63 -24.5t-29 -62.5q0 -38 28 -66t67 -28z" />
    <glyph glyph-name="three" unicode="3" horiz-adv-x="1157" 
d="M715 1010q22 29 22 80q-2 62 -43.5 104t-103.5 45q-64 0 -112.5 -44t-49.5 -105h-20q0 72 55 123t127 51q70 -3 119 -53t51 -121q0 -58 -29 -95l-156 -209l158 -211q27 -35 27 -96q0 -71 -49 -120t-119 -52q-73 0 -128 50.5t-56 121.5h22q1 -61 49.5 -104t112.5 -43
q59 1 102.5 44.5t44.5 102.5q0 50 -22 82l-168 225zM760 969q39 55 39 123q-1 55 -29.5 102.5t-76 75.5t-105.5 30q-59 0 -108 -28t-78.5 -76.5t-30.5 -105.5h-27q2 66 31.5 119t85 85t125.5 33q98 0 169.5 -70.5t71.5 -169.5q0 -73 -51 -147l-114 -154l133 -184
q34 -47 34 -119q0 -100 -71.5 -169.5t-169.5 -69.5q-69 0 -125 32t-87 87t-32 116h29q1 -58 30.5 -105.5t78.5 -75.5t108 -28q58 2 105 29.5t74.5 73.5t29.5 104q0 73 -33 121l-143 188zM801 926q29 41 42 78.5t13 85.5q0 72 -33 133t-94.5 96.5t-138.5 38.5
q-118 0 -199 -77.5t-84 -190.5h-31q3 80 45 150t112.5 110.5t154.5 40.5q87 -4 156 -46t108 -110.5t39 -149.5q-1 -53 -17 -92.5t-53 -93.5l-82 -113l103 -141q48 -66 51 -160q0 -81 -39 -150t-108.5 -110t-155.5 -45q-86 0 -156.5 40.5t-112 110t-42.5 148.5h30
q2 -111 83.5 -189.5t199.5 -78.5q118 4 192 81t74 187q0 50 -13 88.5t-42 75.5l-105 139zM829 862q47 61 68 110.5t21 114.5q0 68 -25.5 127.5t-71.5 105.5t-107.5 72.5t-125.5 26.5q-89 0 -167.5 -44t-125 -119t-47.5 -166h-35q0 98 50 182t137 134t188 50
q81 -1 148.5 -30.5t115 -79.5t74 -114.5t26.5 -141.5q0 -44 -8 -81.5t-24.5 -72t-47.5 -76.5l-53 -74l68 -94q36 -47 51.5 -97.5t15.5 -115.5q0 -72 -26.5 -138.5t-76 -117t-116.5 -79t-145 -31.5q-102 0 -189 50t-137 134t-51 182h37q2 -90 48.5 -166t123.5 -119.5
t168 -43.5q87 1 164 46.5t121.5 122.5t44.5 164q-1 62 -18 108.5t-56 96.5l-76 98zM903 858q76 102 76 232q0 80 -28 150.5t-79.5 123.5t-123 84t-158.5 33q-78 0 -152.5 -30.5t-130 -83.5t-86.5 -123t-33 -154h-43q1 115 60 216t159 160.5t216 59.5q91 -1 171 -34.5
t141 -92t96.5 -139.5t35.5 -173q-3 -177 -121 -303q65 -70 92 -139.5t27 -165.5q-2 -119 -58.5 -218t-154.5 -158t-219 -60q-117 0 -219.5 58.5t-163 159.5t-60.5 218h41q3 -106 58.5 -196.5t147 -142.5t198.5 -52q110 3 199 55.5t139 141t51 194.5q0 130 -76 234l-57 73z
M1047 1087q0 123 -62 229t-168.5 168.5t-228.5 63.5q-123 0 -231 -61.5t-172.5 -166.5t-65.5 -230h-58q1 141 73 259.5t194 186.5t262 68q108 0 202 -40.5t162.5 -110.5t108 -164.5t39.5 -198.5q0 -92 -22.5 -161.5t-75.5 -144.5q36 -49 58 -95.5t32 -96.5t10 -113
q0 -104 -39.5 -198t-107.5 -164.5t-163 -111.5t-202 -42q-106 0 -201.5 39.5t-171 112t-116.5 164.5t-42 200h60q1 -124 64.5 -229.5t172.5 -167.5t232 -62q96 3 179 39.5t144.5 99t97.5 147.5t36 177q0 170 -115 301q115 133 115 303zM657 1034q19 29 19 51q0 38 -25 64.5
t-63 28.5q-38 0 -66.5 -25t-29.5 -63h-19q1 46 34 76t79 30q45 0 75.5 -32.5t30.5 -76.5q0 -34 -20 -63l-183 -240l183 -237q22 -29 22 -64q0 -45 -31.5 -77.5t-74.5 -32.5q-45 0 -79 31t-34 75h19q2 -37 30 -62.5t66 -25.5q24 1 44 14t32 34t12 46t-21 52l-188 245z" />
    <glyph glyph-name="four" unicode="4" horiz-adv-x="1393" 
d="M1323 662h-233v276h22v-254h211v-22zM1323 596h-297v342h27v-315h270v-27zM1323 469h-424v469h35v-434h389v-35zM1323 399h-496v539h45v-496h451v-43zM1323 532h-358v406h28v-377h330v-29zM1176 938v-193h145v-20h-164v213h19zM748 743v195h53v-565h522v-54h-147v-319
h-21v319h-45v-319h-20v319h-39v-319h-27v319h-33v-319h-28v319h-29v-319h-37v319h-27v-319h-45v319l-22 -2v-317h-55v319h-689l428 1240h54l-404 -1186h611v26h-574l393 1160h45l-376 -1117h512v25h-476l371 1092h37l-361 -1055h429v31h-386l349 1024h32l-342 -996h347v33
h-299l329 963h29l-322 -936h263v41h-207l309 895h22l-303 -873h179v39h-115l287 834h18l-279 -816h89z" />
    <glyph glyph-name="five" unicode="5" horiz-adv-x="1178" 
d="M985 1319v-39h-637v-195q0 -54 18.5 -93.5t59.5 -78.5q66 -58 129 -61l63 -4q88 -4 167 -56t125 -135.5t46 -177.5q0 -97 -48 -180t-131 -133t-179 -51q-91 0 -173.5 40t-135.5 109.5t-62 153.5q-2 24 -2 63h37v-61q17 -112 111 -190t215 -78q89 0 164.5 44t120.5 121
t45 164q0 60 -23 120t-60 103t-87.5 72t-108.5 35l-84 6q-52 6 -87 23.5t-73 52.5q-35 35 -59.5 85.5t-24.5 108.5v232h674zM985 1378v-30h-702v-269q0 -60 28.5 -116t67.5 -91q47 -42 84.5 -61t91.5 -23l72 -4q63 -5 126 -47.5t103.5 -110.5t40.5 -143q0 -59 -24 -115
t-66.5 -98.5t-95.5 -65t-117 -24.5q-73 0 -140.5 34t-111.5 89.5t-51 114.5v63h28v-59q6 -52 48.5 -101.5t104 -78.5t124.5 -29q112 0 190 79t78 189q0 67 -37.5 130t-93.5 101.5t-112 43.5l-66 4q-62 4 -108.5 27.5t-94.5 70.5q-98 102 -98 227v293h731zM985 1436v-25h-768
v-326q0 -70 34.5 -142t74.5 -112q62 -52 112 -76t117 -30l57 -4q61 -6 111 -39.5t78 -86t28 -114.5q0 -97 -71 -168t-168 -71q-51 0 -101.5 22.5t-85.5 64.5t-47 97q-4 20 -4 55h27q0 -43 6 -65q21 -66 79 -106t130 -40q55 2 102.5 29t77 75.5t29.5 108.5q-8 87 -57.5 143.5
t-127.5 63.5l-67 8q-79 10 -131.5 36.5t-118.5 82.5q-45 43 -78 115.5t-33 148.5v355h795zM985 1495v-20h-835v-388q0 -55 17 -110t44.5 -100.5t58.5 -77.5q43 -46 85.5 -74t94 -44t113.5 -22l47 -4q68 -8 111 -57t43 -117q0 -70 -50 -120t-120 -52q-65 0 -113.5 36.5
t-60.5 98.5q-4 26 -4 37h22q0 -27 11 -55q18 -45 56 -68.5t89 -23.5q60 1 102.5 45.5t42.5 105.5q0 58 -41 100t-100 48l-37 4q-102 9 -171 42t-132 103q-65 71 -96 144t-31 168v401h854zM985 1188v-55h-485v-58q0 -29 26 -51q10 -10 19.5 -14.5t21.5 -6t23 -2.5l57 -6
q98 -10 182.5 -55t146 -114.5t97.5 -158.5t37 -182q0 -143 -70 -262.5t-188 -189.5t-256 -70q-134 0 -249.5 60.5t-188 169t-82.5 239.5q-2 19 -2 49h53q0 -17 4 -69q14 -113 82 -203.5t170.5 -141.5t212.5 -51q122 1 228 64.5t167.5 172t61.5 230.5q-2 117 -58.5 219.5
t-156 167.5t-220.5 72l-26 2q-58 3 -96 35q-50 38 -50 92v115zM985 1260v-50h-563v-133q0 -71 59 -116q39 -34 103 -37l37 -4q86 -7 160 -43.5t129.5 -96.5t84.5 -135.5t29 -161.5q0 -87 -32.5 -166t-92.5 -140.5t-138.5 -97t-166.5 -36.5q-111 0 -208.5 50t-159.5 137.5
t-72 189.5q-2 22 -2 61h45v-61q8 -66 40.5 -124.5t86.5 -105.5t123 -73.5t141 -26.5q81 0 153 31t125.5 83.5t84 123.5t30.5 151q0 99 -44.5 186t-124 142t-177.5 65l-45 5q-48 5 -79.5 16.5t-64.5 40.5q-36 33 -53.5 67t-17.5 80v179h610zM985 1559v-17h-899v-452
q0 -64 14 -121t41 -105.5t68 -95.5q55 -68 154 -118t192 -56l33 -2q46 -3 77.5 -32.5t32.5 -74.5q0 -43 -30 -75t-72 -33q-40 0 -72 20.5t-39 53.5q-2 12 -2 30h19q0 -22 4 -35q7 -25 30.5 -39t53.5 -14q38 0 63 26.5t25 63.5q0 24 -11.5 44t-32 32.5t-44.5 13.5l-51 5
q-92 10 -186 56t-163 128q-66 79 -93 157t-27 183v457h915z" />
    <glyph glyph-name="six" unicode="6" horiz-adv-x="1040" 
d="M1104 492q0 -150 -71 -271.5t-190 -191.5t-259 -70q-106 0 -201.5 42t-167 116t-112 170.5t-40.5 201.5q0 47 12 103.5t23 77.5l424 889h62l-437 -918q-7 -13 -18.5 -67t-11.5 -91q0 -126 63 -233.5t170.5 -170.5t233.5 -63t232 62.5t167 170.5t61 236q-1 74 -25.5 145
t-71 132.5t-110 104t-141.5 61.5l-10 -23q74 -16 138 -58t108.5 -100.5t68 -126t23.5 -137.5q0 -119 -56.5 -220.5t-157 -160.5t-224.5 -59q-118 1 -220.5 60t-162.5 159t-60 219q0 95 39 178l432 900h43l-436 -918q-20 -43 -27.5 -78t-7.5 -84q0 -105 53.5 -195.5t144 -143
t198.5 -54.5q112 0 202.5 54.5t141.5 145.5t51 199q-1 89 -40.5 169.5t-109 134.5t-161.5 73l-11 -22q64 -12 118.5 -45.5t93 -81t60.5 -106.5t23 -122q0 -104 -47 -189.5t-131 -135t-190 -49.5q-99 0 -183.5 51t-134 138t-49.5 192q3 80 29 133l448 934h39l-452 -943
q-17 -40 -22 -65.5t-7 -65.5q0 -93 46 -170t123.5 -122.5t164.5 -45.5q67 0 126.5 25.5t106.5 73t72.5 110t25.5 136.5q-5 78 -40.5 144t-97.5 111.5t-140 57.5l-12 -27q71 -10 130 -51t93 -102t39 -133q0 -88 -38.5 -160.5t-107 -114.5t-155.5 -43q-128 0 -217.5 93
t-89.5 222q3 64 20 101l463 969h33l-467 -979q-19 -39 -19 -101q0 -73 37.5 -136.5t103 -100.5t138.5 -37q113 2 190.5 84.5t77.5 202.5q-3 48 -22.5 93.5t-51.5 80t-75 56t-95 26.5l-16 -29q60 -3 113.5 -35t83.5 -84.5t32 -116.5q0 -67 -31 -122.5t-86.5 -89.5t-123.5 -35
q-99 0 -170.5 75.5t-71.5 177.5q3 48 16 78l473 992h31l-477 -1000q-12 -27 -12 -78q2 -87 63 -151t148 -64q90 1 150.5 64t60.5 153q-1 85 -64 146t-149 61l-17 -33q21 0 31 -2q70 -9 116 -57.5t46 -114.5q0 -49 -23 -89.5t-64 -64.5t-91 -24q-71 2 -120.5 52t-51.5 122
q0 43 14 72l483 1008h23l-488 -1027q-10 -20 -10 -51q0 -62 45.5 -107.5t108.5 -45.5q72 4 111.5 47t39.5 108q0 62 -46.5 104.5t-108.5 45.5q-5 0 -13 -2t-14 -4l-31 -56q27 17 62 17q45 0 76.5 -32.5t31.5 -76.5q0 -45 -31.5 -77.5t-76.5 -32.5t-76 32t-33 76q0 33 14 62
l490 1020h18l-278 -584q87 -22 155 -67.5t117.5 -109.5t79 -144t33.5 -162zM492 479q0 -36 27 -64t63 -28q40 0 67 29t27 69q-3 38 -30 62t-64 24q-36 -1 -63 -28.5t-27 -63.5z" />
    <glyph glyph-name="seven" unicode="7" horiz-adv-x="1206" 
d="M532 0l553 1505h-1019v54h1099l-571 -1559h-62zM137 0l418 1135h-489v18h512l-420 -1153h-21zM203 -2l438 1198l-575 -2v23l608 2l-445 -1221h-26zM268 0l461 1255h-663v27h702l-471 -1282h-29zM332 0l481 1315h-747v28h794l-495 -1343h-33zM395 0l506 1374h-835v37
l886 2l-516 -1413h-41zM463 0l526 1436h-923v45h987l-545 -1481h-45z" />
    <glyph glyph-name="eight" unicode="8" 
d="M578 997q38 0 62 27t24 66q-1 37 -28.5 62.5t-62.5 25.5q-34 0 -60.5 -25.5t-27.5 -60.5q0 -40 27.5 -67.5t65.5 -27.5zM492 442q19 -53 81 -53q37 0 63 26t26 64q-1 33 -25 58t-57 28q-25 0 -47 -13.5t-35 -36.5t-13 -46q0 -14 7 -27zM156 774q-58 76 -82.5 148.5
t-24.5 164.5q0 138 72.5 256.5t194 187t262.5 68.5q134 -2 243.5 -61.5t179 -163.5t84.5 -235q5 -27 5 -78q0 -141 -93 -279q95 -130 97 -301q0 -107 -40.5 -202t-112 -167t-164.5 -113t-199 -42q-99 0 -190.5 35.5t-162 99t-114 148.5t-54.5 188q-2 18 -2 51q0 156 101 295
zM193 727q-84 -118 -84 -260q0 -19 4 -59q14 -113 82 -203.5t171 -141.5t212 -51q95 0 177 36t145.5 102t98.5 151.5t35 177.5q0 84 -30.5 163t-85 142t-130 103t-163.5 49l-47 4q-62 6 -107.5 44t-46.5 95q0 62 42.5 107t104.5 45q52 0 93.5 -35t50.5 -78q2 -14 2 -43
q0 -56 -35 -94l25 -6q34 56 34 102q0 31 -4 47q-15 61 -61 98.5t-109 37.5q-70 -1 -119 -53t-49 -122q1 -68 49 -114.5t117 -52.5l56 -5q83 -6 154.5 -42t124 -96t80.5 -136.5t28 -159.5q0 -87 -33.5 -166.5t-92.5 -140.5t-139 -96.5t-168 -36.5q-111 0 -207.5 50
t-158.5 136.5t-74 190.5q-2 20 -2 57q0 68 18 123t58 115zM242 682q-64 -98 -64 -209q0 -37 2 -57q8 -66 40.5 -124.5t87 -105.5t123.5 -73.5t140 -26.5q80 0 152 31t125.5 83.5t84 123t30.5 149.5q0 78 -25 145.5t-71.5 121t-111.5 87.5t-139 41l-43 4q-91 11 -151.5 66.5
t-63.5 138.5q0 59 28 110t76 81t109 32q77 0 138 -49t73 -121q6 -30 6 -57q0 -55 -32 -110l22 -9q37 64 37 123q0 17 -4 49q-16 89 -82.5 145t-157.5 56q-65 0 -121 -33t-89 -89.5t-33 -121.5q2 -93 60.5 -159.5t148.5 -75.5l90 -10q89 -9 160.5 -60t111 -131.5t39.5 -173.5
q0 -95 -47.5 -178t-131.5 -133t-179 -51q-69 0 -133 23.5t-115.5 65t-83 96.5t-39.5 118q-4 36 -4 55q0 51 13.5 96.5t47.5 96.5zM295 641q-53 -82 -53 -166q0 -19 4 -59q13 -110 108 -189.5t217 -79.5q86 0 163 45t121 121t44 164q0 83 -34.5 154t-97.5 118t-142 56l-86 8
q-104 12 -173 88t-71 182q0 113 78.5 195.5t191.5 85.5q72 0 137.5 -34.5t106 -92.5t41.5 -123q0 -62 -7 -96.5t-34 -79.5l25 -12q24 47 35.5 82.5t11.5 70.5q0 33 -7 68q-15 72 -58 126t-105.5 83.5t-139.5 29.5q-63 0 -118.5 -23t-98 -65t-66.5 -98t-24 -115
q0 -117 78 -202t197 -99l73 -8q116 -10 190.5 -94.5t76.5 -202.5q0 -63 -22.5 -115.5t-66.5 -96.5t-97.5 -66.5t-117.5 -24.5q-73 0 -140 34t-110.5 89t-52.5 115q-4 40 -4 55q0 81 51 158zM346 616q-47 -66 -47 -149q0 -33 2 -49q11 -83 96 -146t181 -63q73 0 135.5 36.5
t99.5 98.5t37 135q0 66 -32 126t-87.5 97t-126.5 46l-65 8q-130 14 -214.5 106t-86.5 221q0 87 44 164.5t123 123.5t175 46q126 -6 215 -81t110 -195q4 -25 4 -70q-3 -90 -47 -160l29 -18q25 45 38 88.5t13 89.5q0 43 -4 68q-8 62 -40.5 120t-81.5 101t-109.5 66.5
t-128.5 23.5q-99 0 -185.5 -47.5t-138.5 -130t-53 -180.5q0 -146 96 -252.5t242 -118.5l57 -4q61 -6 110 -39t77 -86t28 -115q0 -98 -69.5 -168.5t-168.5 -70.5q-51 0 -101.5 22.5t-86.5 64t-47 95.5q-4 20 -4 57q0 64 41 125zM406 590q-48 -58 -48 -127q0 -30 9 -53
q19 -64 77.5 -104t130.5 -40q59 2 106.5 30t76 77.5t28.5 105.5q-1 53 -24.5 98.5t-66 75t-95.5 33.5l-68 8q-102 12 -184 66.5t-129 141.5t-47 188q1 105 56.5 195.5t149 143t200.5 52.5q99 -1 182 -47t136.5 -125.5t66.5 -178.5q6 -39 6 -73q-3 -96 -54 -187l25 -20
q66 107 66 215q0 47 -5 72q-15 108 -74 194.5t-151 136t-201 50.5q-85 0 -164 -32t-142 -91t-98 -136t-36 -165q0 -113 53.5 -209.5t149 -157t209.5 -72.5l45 -6q67 -6 111.5 -55.5t44.5 -116.5q-1 -70 -52.5 -120.5t-120.5 -51.5q-63 0 -111.5 36t-62.5 99q0 94 39 140z
M467 575q-37 -36 -37 -151q37 -94 145 -94q61 1 104.5 45.5t43.5 105.5q-2 60 -42 101.5t-101 46.5l-37 2q-91 6 -168.5 42.5t-137.5 99.5t-93 144.5t-33 169.5q1 123 64 226.5t169.5 164t233.5 60.5q113 -1 209 -52.5t158 -143t77 -203.5q6 -40 6 -78q0 -62 -17.5 -116
t-54.5 -114l27 -30q46 67 68 130t22 134q0 22 -4 68q-9 93 -50 175t-106.5 142.5t-149 95t-177.5 35.5q-140 0 -259 -66t-188 -179.5t-69 -250.5q1 -130 63.5 -240.5t170.5 -179t233 -75.5l34 -4q46 -3 77.5 -32.5t31.5 -72.5t-29 -75t-73 -35q-40 0 -72.5 22t-36.5 56
q0 42 13.5 73t33.5 41z" />
    <glyph glyph-name="nine" unicode="9" horiz-adv-x="1151" 
d="M59 1071q0 111 42 209t114.5 170.5t166.5 112t198 39.5q141 0 261 -72t189.5 -194t69.5 -263q0 -30 -6.5 -68.5t-14.5 -68.5t-14 -43l-424 -893h-63l440 920q8 21 18.5 70t10.5 89q0 95 -36.5 179.5t-100.5 149t-150.5 101.5t-181.5 37q-124 0 -229.5 -62t-167.5 -171.5
t-62 -235.5q3 -154 98.5 -278t249.5 -164l10 22q-75 18 -135.5 58.5t-108 102.5t-71 129.5t-23.5 131.5q0 120 56.5 221.5t157.5 160.5t225 59q87 0 168.5 -34.5t142.5 -94t96 -139.5t35 -171q0 -93 -39 -178l-432 -903h-43l436 922q35 74 35 161q0 80 -30.5 152t-85 125.5
t-125.5 84t-154 32.5q-168 0 -282 -116t-114 -284q1 -89 39.5 -168.5t109 -134.5t161.5 -74l12 23q-64 13 -116.5 45t-92.5 80.5t-62.5 107t-23.5 121.5q0 77 27.5 145.5t77 120t118.5 80.5t146 29q98 0 182.5 -51t134 -138t49.5 -192q-3 -75 -30 -133l-447 -938h-39
l451 946q18 40 23 65t7 66q0 72 -27 133.5t-71.5 106t-106 71.5t-130.5 27q-66 0 -126.5 -25.5t-105.5 -71t-71.5 -110t-26.5 -137.5q5 -77 40.5 -144t98.5 -112t141 -57l11 26q-112 16 -184.5 97.5t-78.5 189.5q0 87 39.5 159.5t108 114t154.5 41.5q63 0 119 -24.5
t97.5 -67.5t65 -99.5t23.5 -121.5q0 -57 -21 -100l-461 -973h-32l467 983q18 39 18 100q0 75 -37.5 138t-103 100t-138.5 37q-113 -2 -191.5 -85t-78.5 -202q8 -101 77 -174t169 -82l18 29q-96 5 -162 72.5t-69 162.5q0 67 31 123t86.5 88.5t124.5 34.5q65 0 121 -34.5
t88 -93t32 -124.5q-3 -47 -16 -78l-473 -995h-33l479 1004q13 26 13 77q-1 58 -30 107.5t-77 78.5t-104 29q-60 -1 -108.5 -30.5t-76.5 -78.5t-28 -108q1 -56 30.5 -103.5t79 -75.5t105.5 -28l16 33q-20 0 -31 2q-69 9 -115 57.5t-46 114.5q0 75 49.5 126.5t128.5 51.5
q46 -1 85 -24.5t61 -62.5t24 -87q0 -47 -13 -71l-483 -1012h-22l487 1028q10 24 10 53q0 40 -20.5 76t-56.5 57t-76 21q-72 -4 -112 -46.5t-40 -109.5q0 -60 47 -103t109 -46q5 0 11.5 2t14.5 4l31 55q-31 -16 -63 -16q-42 0 -75.5 32.5t-33.5 75.5q0 45 33 78t78 33
q27 0 52 -15t39.5 -39t16.5 -55q0 -33 -14 -61l-490 -1024h-18l278 588q-169 44 -271.5 176t-113.5 307zM672 1083q0 39 -26.5 65.5t-63.5 27.5q-40 0 -67.5 -30t-27.5 -69q5 -38 31.5 -62t63.5 -24q36 1 63 28t27 64z" />
    <glyph glyph-name="colon" unicode=":" horiz-adv-x="561" 
d="M76 707h86v-86h-23v63h-63v23zM76 772h151v-151h-26v124h-125v27zM76 899h276v-278h-33v241h-243v37zM76 969h350v-348h-45v305h-305v43zM76 1049h430v-428h-55v370h-375v58zM76 836h213v-215h-31v184h-182v31zM76 618v23h18v-23h-18zM76 86h86v-86h-23v63h-63v23z
M76 150h151v-150h-26v125h-125v25zM76 279h276v-279h-33v242h-243v37zM76 348h350v-348h-45v305h-305v43zM76 426h430v-426h-55v371h-375v55zM76 213h213v-213h-31v184h-182v29zM76 0v18h18v-18h-18z" />
    <glyph glyph-name="semicolon" unicode=";" horiz-adv-x="549" 
d="M53 713h86v-86h-22v63h-64v23zM53 778h152v-151h-27v125h-125v26zM53 907h277v-280h-33v241h-244v39zM53 975h350v-348h-45v305h-305v43zM53 1055h430v-428h-55v372h-375v56zM53 842h213v-215h-30v184h-183v31zM53 627v18h19v-18h-19zM53 90h84v-88q0 -27 -12 -57
q-11 -27 -41 -60l-14 17q24 22 36 55q11 25 11 45v66h-64v22zM53 156h152v-164q0 -27 -19 -74q-9 -21 -26.5 -44t-30.5 -34l-18 21q34 26 51 69q10 31 10 68l2 131h-121v27zM53 283h277l-2 -287q0 -58 -27 -123q-27 -70 -84 -125l-22 27q54 52 75 110q25 66 25 115l-2 246
h-240v37zM53 352h348v-356q0 -69 -30 -150q-36 -84 -101 -149l-30 33q56 54 90 129q10 26 14.5 42t9 44t4.5 53v311h-305v43zM53 432h428v-395q0 -123 -41 -225q-40 -96 -114 -170l-37 39q23 21 52.5 61.5t49.5 89.5q19 47 25 86.5t6 108.5l2 348h-371v57zM53 219h211v-219
q0 -65 -28 -115q-25 -50 -62 -90l-20 21q37 32 59 82q18 39 18 100l2 190h-180v31zM27 -55q15 12 22 26q4 9 4 27v25h19v-23q0 -20 -9 -33q-5 -21 -24 -35z" />
    <glyph glyph-name="question" unicode="?" 
d="M408 362h63v66h23v-86h-86v20zM408 303h124v125h25v-152h-149v27zM408 186h243v242h33v-278h-276v36zM408 123h305v305h45v-348h-350v43zM408 57h374v371h56v-428h-430v57zM408 244h182v184h28v-215h-210v31zM426 428v-18l-18 -2v20h18zM854 735l-42 -40t-34 -46
q-17 -41 -20 -80h-45q0 37 14 78q11 32 25.5 50.5t50.5 56.5l82 84q41 41 67.5 109t26.5 145q0 109 -55.5 199t-149.5 142t-203 52q-104 -3 -193 -56.5t-140.5 -144t-51.5 -194.5h-43q0 89 33 169t94.5 142t140 97t167.5 36q121 0 223 -58.5t162.5 -160t60.5 -223.5
q0 -173 -109 -291zM899 668q-13 -13 -21.5 -20t-16 -14.5t-13.5 -19.5q-10 -27 -10 -45h-56q3 37 17 70q9 20 46 55t44 43l67 74q38 45 65.5 120.5t27.5 155.5q0 127 -64.5 235t-173 171t-236.5 63q-125 -1 -230.5 -65t-166.5 -171.5t-61 -229.5h-54q0 138 68 256.5
t185.5 189.5t254.5 72q146 0 269 -69t193.5 -186.5t72.5 -260.5q0 -106 -35 -195t-100 -156zM565 915q-40 -42 -62.5 -78t-42 -89.5t-27 -92.5t-7.5 -86h-18q0 83 26 160q24 69 53.5 115.5t81.5 101.5l68 70q39 37 39 80q-2 25 -13.5 44.5t-30.5 32t-42 13.5
q-39 0 -68.5 -27.5t-29.5 -68.5h-17q0 45 31 77.5t76 34.5q44 0 77.5 -30.5t34.5 -75.5q0 -45 -53 -101zM631 891q-104 -98 -129 -229q-8 -41 -8 -93h-23q0 60 12 109q15 68 44.5 118t84.5 107l70 70q29 29 42 56.5t13 68.5q-3 63 -46 105t-105 42q-64 0 -110 -45t-46 -110
h-20q0 48 24.5 89t66.5 65t89 24q46 -1 83.5 -23.5t60 -60.5t24.5 -86q0 -46 -11 -74.5t-42 -58.5zM653 819q-43 -43 -69 -114q-25 -66 -25 -136h-27q0 72 21 138q16 45 38 79t52 64l98 98q32 32 44 64t12 75q0 57 -27.5 107t-74.5 81t-105 32q-91 0 -157 -64t-66 -153h-25
q0 62 29.5 117.5t85 89t129.5 34.5q64 0 120 -32t88.5 -86.5t32.5 -118.5q0 -55 -15.5 -93.5t-51.5 -74.5zM705 780q-42 -38 -66 -106q-18 -50 -18 -105h-29q0 56 16 111q20 60 68 111l117 122q30 32 48.5 80t18.5 105q-1 72 -38 133.5t-100.5 97t-135.5 35.5
q-73 0 -138 -37t-102.5 -100t-38.5 -137h-28q0 82 42 153.5t113 113.5t152 42q82 0 150.5 -40t110 -107t44.5 -148q0 -68 -17 -119t-63 -98zM752 735q-30 -29 -50 -80q-14 -45 -14 -86h-37q0 52 13 90q17 59 59 101l121 121q31 32 53.5 94.5t22.5 122.5q0 67 -27.5 128.5
t-71.5 104t-107 68.5t-130 26q-90 0 -168 -45t-123 -122.5t-45 -167.5h-37q0 99 49.5 184t134.5 136t183 52q100 0 187.5 -49.5t139 -134t51.5 -184.5q0 -151 -104 -260z" />
    <glyph glyph-name="A" unicode="A" horiz-adv-x="1157" 
d="M563 1597q107 0 204 -40t170 -109.5t115 -163t42 -199.5l-2 -1085h-54v1083q0 127 -64 232.5t-173.5 168t-239.5 62.5q-91 -1 -174 -36t-145 -95t-97.5 -138.5t-35.5 -168.5v-293h24v283q0 112 58.5 209.5t158.5 154.5t213 58q91 0 172 -33.5t143.5 -93.5t98 -140.5
t35.5 -169.5v-1083h-41v1083q0 106 -54.5 196.5t-148.5 143t-203 52.5q-104 -3 -192.5 -52.5t-140.5 -134.5t-52 -184v-289h23v303q0 140 108 235t254 97q101 0 188.5 -49.5t139 -134t51.5 -185.5v-1081h-37v1083q0 68 -27 129.5t-72.5 106.5t-108.5 71.5t-132 26.5
q-86 -1 -161 -41.5t-120.5 -110.5t-45.5 -153l2 -297h30v295q0 77 41 140t109.5 98.5t146.5 37.5q82 0 153 -40.5t113 -111t42 -151.5v-1083h-37v1083q0 56 -20.5 105.5t-59 88t-89 60t-104.5 21.5q-71 -2 -132 -34.5t-97.5 -89t-36.5 -124.5v-295h33v295q0 90 70 151.5
t165 61.5q101 0 171.5 -69.5t70.5 -170.5v-1083h-23v1087q0 58 -30 106t-80.5 76.5t-108.5 28.5q-53 -1 -101.5 -25t-78 -66.5t-29.5 -94.5v-297h37v299q0 62 53 102.5t121 40.5q73 0 125 -50.5t52 -123.5v-1083h-21v1087q0 63 -46.5 106.5t-111.5 43.5q-60 -2 -104.5 -38
t-44.5 -89v-295h45v281q0 40 30 67.5t72 30.5q46 0 80.5 -31.5t34.5 -75.5v-1087h-18v391h-179v-391h-20v414h194v41h-239v-455h-23v481h262v35h-299v-516h-26l2 547h323v28h-358v-575h-29v606h387v25h-417v-631h-39v672h459v24h-482v-696h-47v739h529v23h-553v-762h-54
v1110q0 133 70 243.5t186 175.5t252 68zM483 1104v-289h179v277q0 35 -29.5 58.5t-65.5 23.5q-31 -2 -57.5 -21.5t-26.5 -48.5z" />
    <glyph glyph-name="B" unicode="B" horiz-adv-x="1214" 
d="M645 981h-512l-2 -928l510 2q125 0 232 63.5t170 173t63 238.5q-3 123 -65.5 226.5t-167.5 164t-228 60.5zM639 80h-481v876h491q88 0 166.5 -32.5t138.5 -92t94.5 -140t34.5 -165.5q0 -120 -59.5 -223.5t-161 -163t-223.5 -59.5zM653 909h-448v-782h434q113 0 202.5 53
t142 146t52.5 204q-1 101 -53.5 189.5t-141 139t-188.5 50.5zM641 150h-414v737h424q96 0 179.5 -49t133 -132t50.5 -180q0 -77 -28 -144t-80 -120t-120.5 -82.5t-144.5 -29.5zM653 848h-389v-662h377q68 0 131.5 27.5t108 73.5t70.5 108.5t26 130.5q-1 87 -45 161.5
t-118.5 117.5t-160.5 43zM635 215h-340v604h350q59 0 115 -23t96.5 -61.5t65.5 -92t26 -112.5q0 -88 -40.5 -160t-113.5 -113.5t-159 -41.5zM918 528q-1 55 -23 101.5t-60.5 82.5t-86.5 55t-103 19h-321v-540h311q57 0 109 20.5t91.5 59t61 91t21.5 111.5zM637 276h-281v480
h285q65 0 121 -30.5t91 -84.5t36 -117q0 -66 -35 -123.5t-92 -91t-125 -33.5zM860 524q-1 55 -31.5 102.5t-80.5 74t-107 26.5h-258v-424h250q61 0 113 29.5t83 80t31 111.5zM635 342h-213v350h215q73 0 125.5 -49t54.5 -121q0 -48 -22.5 -90t-63.5 -66t-96 -24zM799 520
q-2 65 -51 107.5t-117 42.5h-187v-305h187q73 0 120.5 44t47.5 111zM657 410h-168v215h170q41 0 68.5 -31.5t28.5 -71.5q0 -44 -28 -78t-71 -34zM737 522q-2 36 -22 60t-51 24h-156v-178h151q22 0 39.5 13t28 36t10.5 45zM573 1599q100 0 190 -36.5t159.5 -103t109 -155
t39.5 -186.5q0 -73 -12 -124.5t-45 -112.5q63 -63 105.5 -156.5t43.5 -200.5q0 -141 -70.5 -261.5t-190.5 -191.5t-261 -71h-563v1108q0 99 38 188.5t107 158.5t159.5 106.5t190.5 37.5zM133 1102v-70h23v76q0 84 33 159.5t90.5 132.5t135 89.5t160.5 32.5
q112 0 208.5 -54.5t153 -147.5t58.5 -206q0 -55 -9 -93t-30 -83l19 -18q41 91 41 194q-1 86 -37 166.5t-96.5 140.5t-140.5 93.5t-169 33.5q-88 0 -169.5 -35.5t-141.5 -96.5t-94.5 -142.5t-34.5 -171.5zM197 1094v-62h30v70q0 92 45.5 172t124 127.5t170.5 48.5
q93 0 172 -43t127 -117.5t54 -165.5q0 -89 -23 -145l21 -18q30 75 30 153q-1 77 -31.5 144t-83 118t-121 79t-145.5 28q-76 -1 -144.5 -32.5t-118.5 -85.5t-78.5 -125t-28.5 -146zM262 1110v-78h33v76q0 73 37 138t101 103.5t136 39.5q78 0 142.5 -36.5t103.5 -99t41 -139.5
q0 -67 -18 -113l24 -8q25 57 25 119q-2 84 -45.5 153.5t-117 109.5t-155.5 40q-61 0 -117.5 -23.5t-99 -66t-66.5 -99t-24 -116.5zM322 1120v-88h34v76q0 87 60.5 149.5t150.5 65.5q61 0 113 -27t83 -74.5t32 -105.5q0 -53 -21 -96l37 -8q18 48 18 104q-3 69 -40 124.5
t-97 87.5t-133 32q-63 -4 -118 -40t-87 -90.5t-32 -109.5zM385 1112v-78h39v70q0 62 42 107t103 46q63 0 109 -40.5t49 -100.5q0 -49 -16 -82l39 -8q16 38 16 90q-4 79 -61.5 129.5t-137.5 50.5q-73 -3 -127.5 -56.5t-54.5 -127.5zM444 1106v-72h41v62q0 41 25.5 70.5
t62.5 29.5q33 0 60.5 -24.5t30.5 -57.5q0 -50 -35 -76h59q21 31 21 74q-2 53 -41 89t-93 36q-53 0 -92 -38t-39 -93zM502 1034h65q32 0 55 23t23 55q-2 21 -12.5 35.5t-28 22.5t-35.5 8q-29 -1 -48 -25.5t-19 -54.5v-64z" />
    <glyph glyph-name="C" unicode="C" 
d="M1104 365q-97 -56 -232 -62q-131 0 -241.5 65t-175 174.5t-64.5 237.5q0 96 36.5 180.5t101 150t151 103.5t180.5 39q78 0 130 -13t114 -48v-23q-111 66 -244 66q-92 -2 -172 -37t-143 -98.5t-98 -146.5t-35 -173q0 -89 35 -171t99.5 -146.5t149.5 -100.5t178 -36
q126 2 230 63v-24zM1104 293q-64 -30 -110.5 -41t-121.5 -14q-110 0 -210 42t-176 118t-118.5 175.5t-43.5 206.5q0 109 41 207t116.5 173.5t172.5 117.5t206 43q128 0 244 -55v-29q-118 59 -246 59q-136 -1 -254 -71.5t-186 -188.5t-68 -256q0 -137 71.5 -256t191 -189.5
t259.5 -70.5q70 3 120.5 15t111.5 43v-29zM1104 80q-67 -22 -116.5 -30.5t-113.5 -8.5q-201 0 -373.5 100.5t-273 270.5t-100.5 368q1 198 99 366.5t265.5 267.5t366.5 99q129 0 246 -38v-41q-61 21 -116.5 30t-129.5 9q-139 0 -264.5 -54t-221.5 -150.5t-149 -222
t-53 -266.5q1 -195 97 -354t257.5 -249.5t349.5 -90.5q70 0 114 7.5t116 33.5v-47zM1104 152q-115 -41 -230 -41q-189 0 -344.5 89.5t-244 244t-88.5 335.5q0 178 89 331t242 243.5t330 91.5q76 0 130 -10t116 -33v-37q-65 27 -117.5 36t-128.5 9q-171 -3 -314.5 -88
t-228 -229.5t-84.5 -313.5q0 -171 87 -317t235.5 -231t320.5 -85q68 0 114 9.5t116 36.5v-41zM1104 -2q-113 -36 -227 -39q-228 0 -418.5 109.5t-301.5 298.5t-112 413q0 220 109.5 407t296.5 298t405 112q123 0 248 -38v-54q-60 21 -116 29t-132 8q-148 0 -282.5 -58
t-240 -162t-167 -246t-64.5 -300q0 -158 64 -298t173.5 -242.5t248.5 -160t286 -57.5q141 8 230 37v-57zM1104 223q-57 -23 -112.5 -35t-117.5 -12q-169 0 -308.5 81.5t-220.5 220.5t-81 300q0 121 46 231t129 195t192 131.5t229 46.5q127 0 244 -49v-33q-59 28 -101 39.5
t-143 12.5q-154 0 -285.5 -79t-206.5 -211.5t-75 -281.5q0 -155 77 -288t210 -210t294 -77q120 2 230 51v-33zM1104 446q-59 -42 -110.5 -59t-121.5 -18q-109 0 -206 56t-153 151t-56 204q0 110 54.5 203t147.5 147.5t201 57.5q138 0 244 -74v-18q-107 78 -242 78
q-79 -1 -150.5 -32t-124.5 -85t-83.5 -126t-30.5 -151q0 -107 54.5 -197.5t146 -143t198.5 -52.5q70 0 121 18t111 64v-23z" />
    <glyph glyph-name="D" unicode="D" horiz-adv-x="1427" 
d="M580 1505h-449v-1454h442q195 0 362 95.5t267 260t103 357.5q0 152 -55.5 288t-154.5 237.5t-231 158.5t-284 57zM567 76h-411v1405h424q144 0 272.5 -55t225.5 -155t150.5 -229.5t53.5 -279.5q-4 -190 -98.5 -347t-257.5 -248t-359 -91zM600 1434h-397v-1311h366
q185 0 336.5 85t239.5 233t92 323q0 136 -48.5 257.5t-136 215t-204.5 145.5t-248 52zM571 145h-346v1266h377q124 0 235 -51t195.5 -141t132 -208.5t47.5 -248.5q-4 -169 -91 -311.5t-233 -224t-317 -81.5zM606 1374h-344v-1192h311q125 0 235 44t191.5 123.5t127.5 185
t49 227.5q0 124 -45 236.5t-122 196t-181 131.5t-222 48zM565 213h-270v1133h303q151 0 277.5 -79.5t200 -213.5t73.5 -289q-4 -153 -82.5 -279.5t-210 -199t-291.5 -72.5zM1116 762q0 149 -68 276.5t-186.5 201t-263.5 73.5h-274v-1069h241q149 0 275 68t199.5 187.5
t76.5 262.5zM567 276h-211v1004h260q125 0 234 -71t173 -191.5t64 -257.5q-3 -102 -44.5 -190.5t-111.5 -154.5t-164 -102.5t-200 -36.5zM1059 758q0 100 -33.5 191t-93.5 159t-142.5 107.5t-173.5 39.5h-233v-954h180q128 0 241 60t181 164.5t74 232.5zM565 342h-145v875
h190q111 0 204.5 -62.5t147.5 -169t54 -229.5q-6 -116 -63 -211t-158.5 -149t-229.5 -54zM997 756q0 118 -51.5 218.5t-142.5 160t-197 59.5h-164v-832h119q95 0 174.5 29t136 81.5t89 126t36.5 157.5zM567 406h-80v743h136q89 0 165 -53.5t121 -144t45 -195.5
q-6 -98 -59.5 -178.5t-140 -126t-187.5 -45.5zM936 756q0 99 -40.5 185.5t-111.5 137.5t-157 51h-121v-704h84q89 0 167 44t125.5 119.5t53.5 166.5zM1362 758q-3 -156 -66 -294.5t-172 -242.5t-251.5 -162.5t-299.5 -58.5h-499v1559h475q170 0 321 -61t260.5 -169.5
t170.5 -256t61 -314.5z" />
    <glyph glyph-name="E" unicode="E" horiz-adv-x="1061" 
d="M997 862l-819 2v-354q0 -63 29 -143.5t92 -141.5q66 -63 137.5 -87.5t171.5 -24.5h389v-39h-395q-79 0 -137.5 12t-110.5 42.5t-100 80.5q-56 59 -88.5 147.5t-32.5 145.5v407h864v-47zM997 743h-698v-243q0 -44 25 -101.5t69 -95.5q85 -70 191 -70q15 1 32.5 2t22.5 1
h358v-29h-362q-94 0 -144.5 12.5t-117.5 61.5q-47 36 -75 103.5t-28 111.5l-2 276h729v-29zM997 684h-637v-166q0 -115 89 -180q33 -24 62.5 -31.5t68.5 -7.5h61h356v-29h-354h-47q-53 0 -85.5 8t-84.5 41q-44 31 -69 88.5t-25 108.5v195h665v-27zM997 625h-579v-109
q0 -23 13.5 -63t47.5 -66q29 -20 50 -24.5t57 -4.5h59h352v-22h-354h-59q-37 0 -63 6.5t-58 28.5q-34 26 -51 70.5t-17 72.5l2 133l600 -2v-20zM997 563h-516l-2 -55q0 -51 45 -80q23 -12 62 -12h47h364v-17h-362q-49 0 -76 4t-49 19q-47 27 -47 88l2 70l532 -2v-15z
M997 803h-757v-291q0 -56 27.5 -132t80.5 -118q52 -40 92.5 -58.5t78 -23t106.5 -4.5h372v-33h-383q-98 0 -153 15t-135 78q-73 58 -97 145t-24 151v304h792v-33zM586 1141q-58 0 -84 -29q-25 -27 -25 -92v-29h520v-55h-888l-3 -438q0 -72 35.5 -161.5t102.5 -154.5
q143 -137 360 -137h393v-49h-397q-115 0 -195 24.5t-163 92.5q-87 71 -138 178t-51 221v543q0 92 36.5 184.5t107.5 167.5q59 60 119.5 94t131 48t156.5 14h393v-54h-391q-145 0 -236.5 -44.5t-150.5 -112.5q-41 -47 -75.5 -128.5t-34.5 -158.5v-74h22v62q0 80 35.5 158
t83.5 135q61 68 152 103.5t190 35.5h405v-45h-405q-189 0 -311 -119q-47 -48 -76 -125t-29 -127v-78h27v35q0 167 96 272q50 57 128.5 88t172.5 31h397v-39h-399q-95 0 -161 -24.5t-118 -89.5q-79 -94 -79 -234v-39h26v60q0 43 19.5 98t54.5 94q48 58 110 81.5t146 23.5h401
v-29h-399q-80 0 -140 -23t-104 -79q-28 -36 -42.5 -84t-14.5 -78v-64h35v64q0 76 55 147q41 49 92 68.5t121 19.5h397v-30h-397q-63 0 -106 -14t-80 -54q-26 -29 -43 -73t-17 -77v-51h41v45q0 84 41 125q57 60 170 60h391v-19h-391q-105 0 -153 -53q-37 -45 -37 -123v-35h45
v31q0 68 28 98q32 37 93 37h415v-16h-411z" />
    <glyph glyph-name="F" unicode="F" horiz-adv-x="1067" 
d="M143 0v918h867v-46h-822v-872h-45zM279 0v780h731v-28h-699v-752h-32zM342 0v719h666l2 -27h-641v-692h-27zM406 0v655h604v-22h-582v-633h-22zM475 0v588h535v-17h-518v-571h-17zM63 0v1063q0 189 146 342q57 60 117.5 94t131.5 48t158 14h392v-54h-390
q-251 0 -389 -157q-41 -49 -74.5 -124.5t-33.5 -152.5v-74h22v62q0 142 117 282q60 69 151.5 104.5t190.5 35.5h406v-45h-406q-187 0 -309 -119q-48 -50 -76.5 -121t-28.5 -121v-78h25v35q0 78 23 141t75 121q51 56 129 87.5t170 31.5h398v-41h-400q-95 0 -160 -24t-118 -90
q-42 -51 -60 -101.5t-18 -118.5v-41h27v62q0 37 19 89t52 91q50 58 111.5 81.5t144.5 23.5h402v-29h-400q-79 0 -138 -22t-103 -78q-27 -37 -43.5 -80t-16.5 -74v-64h35v64q0 69 57 135q40 50 89.5 69t123.5 19h396v-29h-396q-63 0 -107 -14.5t-79 -52.5q-59 -62 -59 -141
v-50h41v45q0 74 41 115q55 60 167 60h392v-21h-392q-55 0 -89.5 -10t-61.5 -41q-39 -44 -39 -113v-35h45v29q0 60 29 90q31 37 94 37h414v-14h-412q-55 0 -84 -31q-23 -29 -23 -82v-29h521l-2 -55l-889 -2v-942h-56zM215 0v850h793v-39h-756v-811h-37z" />
    <glyph glyph-name="G" unicode="G" horiz-adv-x="1579" 
d="M1221 1083q-60 70 -150.5 112t-196.5 42q-123 -1 -225 -61.5t-162.5 -164t-60.5 -223.5q0 -122 61 -227.5t166.5 -168t231.5 -62.5q113 2 192.5 41.5t79.5 132.5q0 43 -20.5 80t-55 59.5t-77.5 22.5h-259v24h265q80 0 126 -58t46 -128t-41.5 -114t-106 -62.5
t-149.5 -20.5q-96 0 -184 36.5t-157 105.5t-105 156t-36 181q1 125 65 234.5t170.5 173t233.5 66.5q113 0 206 -43t159 -119zM1268 1126q-69 77 -172 123.5t-226 46.5q-104 -2 -196 -42.5t-161.5 -109t-109.5 -161.5t-41 -195q0 -139 70.5 -260t191 -191.5t261.5 -70.5
q80 0 157 27t128 82t51 131q-3 58 -31.5 109.5t-74.5 81.5t-105 30h-265v29h259q67 0 122.5 -33.5t88.5 -91t36 -125.5q0 -86 -51.5 -144.5t-135.5 -88t-179 -31.5q-147 0 -273 74t-200 201t-74 271q1 110 43.5 207.5t116 171t171 115t203.5 41.5q129 0 233 -47t181 -131z
M1403 1245q-93 105 -232 168.5t-299 63.5q-139 -1 -265 -55t-221 -149t-149 -219t-55 -266q0 -190 96 -351.5t259 -256t352 -94.5q105 0 196 29t164 85.5t112.5 135t39.5 170.5q-1 86 -33.5 162t-88 130t-125.5 83.5t-150 29.5h-259v41h273q89 0 167 -36.5t137.5 -99.5
t91.5 -143.5t32 -164.5q-1 -102 -42.5 -188.5t-115 -146.5t-174.5 -93.5t-223 -36.5q-151 0 -288 58t-241.5 163t-162.5 240.5t-58 283.5q1 196 100 365.5t265 268t364 98.5q116 0 220.5 -30t191.5 -86.5t154 -131.5zM1356 1204q-84 94 -211.5 152.5t-274.5 58.5
q-168 -1 -312 -86t-229.5 -229.5t-86.5 -311.5q0 -172 87.5 -319t237 -233t320.5 -86q129 2 231.5 44t161.5 123t59 191q-5 91 -47 169t-115.5 124.5t-168.5 46.5h-263v35h273q76 0 141 -30t115 -84.5t76 -121t26 -141.5q-1 -120 -62.5 -208t-172.5 -135.5t-254 -49.5
q-139 0 -262 53t-216.5 146.5t-146.5 217.5t-53 258q1 136 52.5 254.5t143 210.5t211 144t254.5 53q158 0 287.5 -58t222.5 -163zM1456 1288q-63 69 -153.5 128t-203.5 94.5t-229 35.5q-150 -1 -291 -61.5t-245 -164.5t-163.5 -244t-59.5 -290q0 -208 106 -384.5t285 -280
t383 -103.5q124 1 229.5 35.5t185 98t123.5 153t45 197.5q0 127 -59.5 235.5t-164 173t-226.5 64.5h-273v59h248q107 0 203.5 -40.5t170.5 -113t115.5 -168.5t41.5 -204q-1 -135 -53.5 -238t-140.5 -169.5t-200.5 -99.5t-240.5 -36q-166 0 -318 64.5t-267 178.5t-180 264.5
t-65 315.5q1 164 64 310t175 258t261 176t311 67q128 0 244 -33.5t211 -93.5t168 -143zM1311 1165q-16 20 -46 47t-85 61t-135.5 59.5t-172.5 25.5q-153 -1 -283.5 -78.5t-206.5 -207.5t-77 -284q0 -154 77 -288t210 -212.5t295 -78.5q103 2 195 36t146 101t54 162
q-3 57 -25.5 109t-59.5 90t-87 59.5t-106 21.5h-259v31h275q22 0 66.5 -11t94 -42t89 -94.5t43.5 -161.5q0 -143 -105 -235t-321 -99q-165 0 -306 83t-223 224t-82 303q0 121 46 230.5t128.5 193t191.5 130t230 46.5q143 0 258.5 -51.5t202.5 -148.5zM1178 1042
q-52 60 -131 98t-173 38q-106 -2 -194.5 -54t-141 -141.5t-53.5 -194.5q0 -78 31.5 -151t87.5 -129t128.5 -87.5t152.5 -31.5q68 0 141.5 27t73.5 88q-2 41 -25.5 70.5t-62.5 29.5h-267v21h267q31 0 54.5 -16.5t37.5 -44.5t14 -58q-1 -73 -71.5 -101t-161.5 -32
q-116 0 -211 56.5t-150 152.5t-55 206q2 85 33.5 158t86 128t128.5 87.5t155 32.5q62 0 123 -17.5t110.5 -49t84.5 -72.5z" />
    <glyph glyph-name="H" unicode="H" horiz-adv-x="1282" 
d="M989 1559v-1559h-37v1559h37zM1049 1559v-1559h-29v1559h29zM1108 1559v-1559h-27v1559h27zM1169 1559v-1559h-22v1559h22zM1233 1559v-1559h-19v1559h19zM930 1559v-1559h-47v1559h47zM55 1559h56v-564h24v564h47v-564h23v564h37v-564h30v561l29 3v-564h33v564h26v-564
h39v564h23v-564h43l2 561l20 3l-2 -564h318v564h55v-1559h-55v567h-318v-567h-18v586h336v43h-381v-629h-23v653h404v37h-443v-690h-26v717h469v33h-502v-750h-29v780h531v29h-561v-809h-37v846h596l2 22h-621v-868h-47v918h668v20h-692v-938h-56v1559z" />
    <glyph glyph-name="I" unicode="I" horiz-adv-x="618" 
d="M276 1559v-1559h-36v1559h36zM338 1559v-1559h-29v1559h29zM397 1559v-1559h-26v1559h26zM457 1559v-1559h-23v1559h23zM520 1559v-1559h-18v1559h18zM145 1559v-1559h-53v1559h53zM217 1559v-1559h-47v1559h47z" />
    <glyph glyph-name="J" unicode="J" horiz-adv-x="1157" 
d="M483 500v-37q0 -32 25 -53t59 -23q37 0 66 23t29 59v1090h20v-1088q0 -42 -34 -73t-81 -31q-43 2 -72.5 27.5t-29.5 70.5v35h18zM420 500l-2 -31q0 -39 20.5 -71.5t55 -51t73.5 -20.5q65 0 112.5 42t47.5 103v1088h23v-1084q0 -48 -24.5 -87t-66 -62t-90.5 -23
q-71 2 -121.5 49t-50.5 117v31h23zM358 500v-39q0 -82 63.5 -139.5t145.5 -57.5q86 0 149.5 61t63.5 146v1088h33l-2 -1084q0 -63 -33 -117t-88.5 -86t-118.5 -32q-62 0 -117.5 29t-88.5 80.5t-33 113.5v37h26zM299 500v-39q0 -70 37 -128.5t99 -92t134 -35.5q54 0 105 21
t90.5 59.5t60.5 87.5t21 102l-2 1084h30v-1084q0 -61 -23.5 -115t-67 -96.5t-98.5 -65t-118 -22.5q-78 1 -147 39t-109.5 103.5t-40.5 144.5v37h29zM240 500v-39q0 -84 45 -157t119.5 -114.5t160.5 -44.5q92 0 170 44.5t124 120.5t46 165v1084h39l-2 -1082q0 -99 -51.5 -183
t-139.5 -133.5t-188 -49.5q-95 1 -178.5 47t-132.5 125t-49 172v45h37zM180 500v-43q0 -99 52.5 -184.5t141.5 -135.5t189 -51q81 0 155 31t128.5 83.5t86.5 123t32 151.5v1084h49v-1082q0 -116 -60.5 -217t-164 -160t-226.5 -59q-113 1 -213 58.5t-158.5 154t-58.5 209.5
v37h47zM109 500l-3 -43q0 -117 62.5 -218t167 -161.5t223.5 -61.5q131 0 240.5 62t173 167.5t63.5 229.5v1084h56v-1086q0 -105 -42 -198t-115 -162.5t-170 -109.5t-204 -40q-136 3 -252.5 69.5t-186 181t-69.5 247.5v37z" />
    <glyph glyph-name="K" unicode="K" horiz-adv-x="1407" 
d="M1352 0h-58l-284 688q-49 122 -163 198.5t-257 76.5q-123 0 -229.5 -60t-170 -163.5t-63.5 -225.5v-514h-57v1559h55v-818l25 33v785h47v-719l20 24v695h39v-660l31 23v637h30v-615l31 17v598h27v-586l39 14v572h20v-562l47 11v551h19v-545l59 4l258 541h60l-252 -539
l22 -4l256 543h47l-254 -549l23 -4l262 553h37l-264 -566l26 -8l273 574h30l-276 -588l31 -10l282 598h31l-289 -617l33 -16l299 633h23l-306 -650l33 -26l322 676h18l-323 -695q16 -17 53 -65q33 -47 49 -84zM1268 0h-47l-273 662q-27 65 -80 118.5t-127.5 85t-152.5 31.5
q-77 0 -149.5 -31t-125.5 -85t-83.5 -126t-30.5 -151v-504h-47v512q0 86 35 166t95 138t141 91t167 33q93 0 173 -35.5t139.5 -99.5t92.5 -143zM981 0h-20l-230 563q-20 47 -57 71.5t-88 24.5q-40 -1 -74.5 -20.5t-54 -51t-19.5 -71.5v-516h-22v518q0 68 50.5 114t121.5 48
q54 0 97.5 -28.5t64.5 -80.5zM1053 0h-29l-240 586q-26 65 -77 98t-121 33q-86 -2 -147.5 -60t-61.5 -141v-516h-27v514q0 64 33 116.5t87.5 83.5t119.5 31q49 0 93.5 -19t77 -52.5t50.5 -73.5zM1122 0h-30l-248 602q-22 54 -61.5 93.5t-90.5 60t-104 20.5
q-69 -1 -132.5 -37t-100 -96t-36.5 -131v-512h-30v512q0 80 41 147.5t109 107t149 42.5q90 0 168 -53t104 -119zM1192 0h-39l-272 659q-28 70 -112.5 123.5t-180.5 53.5q-67 0 -126.5 -25t-105.5 -71t-72 -106.5t-26 -125.5v-508h-37v504q0 99 50 183t133.5 133t183.5 50
q113 0 205 -61.5t131 -155.5zM911 0h-18l-217 530q-11 31 -34 49.5t-54 18.5q-34 -1 -60 -28t-26 -62v-508h-19v510q0 41 30.5 71.5t74.5 32.5q76 0 104 -73z" />
    <glyph glyph-name="L" unicode="L" horiz-adv-x="1092" 
d="M1022 408h-535v1155h19v-1135h516v-20zM1022 344h-602v1219h20v-1198h582v-21zM1022 276h-668v1287h27v-1258h641v-29zM1022 150h-799v1413h39v-1377l758 2zM1022 80h-866v1483h47v-1438h817zM1020 0h-946v1563h55v-1508h891v-55zM1022 215h-729v1348h29v-1315h700v-33z
" />
    <glyph glyph-name="M" unicode="M" horiz-adv-x="1767" 
d="M1303 0h-21l-84 471l-324 -504l-309 475l-80 -442h-18l88 492l319 -492l330 518zM1239 692l127 -692h-23l-114 635l-357 -551l-342 526l-104 -610h-20l112 672l354 -551zM1274 868l160 -868h-25l-147 795l-388 -600l-374 579l-138 -774h-26l149 854l389 -610zM1307 1036
l192 -1036h-26l-179 958l-420 -653l-409 635l-166 -940h-31l183 1024l421 -659zM1341 1208l224 -1208h-35l-207 1110l-449 -696l-440 688l-194 -1102h-35l209 1198l460 -717zM1378 1393l258 -1393h-45l-237 1276l-480 -746l-475 742l-223 -1272h-43l240 1389l501 -775z
M1423 1608l295 -1608h-57l-268 1460l-519 -803l-509 795l-256 -1452h-58l283 1599l540 -837z" />
    <glyph glyph-name="N" unicode="N" horiz-adv-x="1401" 
d="M498 670v-670h-19v705l836 -717v1568h18v-1605zM434 807v-807h-22v852l835 -721v1425h23v-1468zM373 928v-928h-27v991l836 -712v1277h26v-1339zM315 1063v-1063h-30v1124l835 -710v1142h31v-1208zM256 1190v-1190h-39v1270l836 -711v997h37v-1075zM195 1321v-1321h-48
v1419l836 -708v845h47v-944zM123 1470v-1470h-55v1591l835 -708v673h55v-792z" />
    <glyph glyph-name="O" unicode="O" horiz-adv-x="1761" 
d="M61 778q1 166 63.5 313t175 259.5t259.5 176t313 64.5q171 0 321.5 -62.5t264.5 -174t179.5 -259t66.5 -311.5q0 -163 -63 -315t-174.5 -265.5t-259.5 -179.5t-314 -67q-222 0 -413.5 110.5t-305 300.5t-113.5 410zM471 778q1 110 55 202.5t147 148.5t201 57
q112 0 208.5 -55t152.5 -147.5t57 -203.5q0 -110 -54 -205.5t-147.5 -152t-203.5 -57.5q-82 0 -157 32t-135 91t-92 133t-32 157zM887 383q107 1 196 55t141 145t52 197q0 78 -32.5 151.5t-86.5 125t-127 82t-153 30.5q-104 -1 -194 -54.5t-142 -142.5t-52 -194
q0 -108 54 -198.5t145.5 -143.5t198.5 -53zM406 776q0 127 63.5 235.5t171.5 172.5t233 65q129 0 240.5 -62.5t177 -170.5t66.5 -236q0 -128 -59.5 -237t-167.5 -173.5t-244 -68.5q-130 0 -241.5 65t-175.5 173.5t-64 236.5zM889 203q126 6 231 53t180 125.5t115.5 180.5
t40.5 220q-1 151 -80 282t-212.5 206.5t-289.5 75.5q-153 0 -283 -76.5t-206.5 -207t-77.5 -284.5q0 -151 77 -285t210 -212t295 -78zM889 10q205 1 380.5 106.5t277.5 281.5t102 380q0 153 -61.5 293t-169 244t-249.5 162.5t-297 58.5q-204 -1 -379 -104t-277 -277.5
t-103 -378.5q0 -207 105.5 -383.5t284.5 -279.5t386 -103zM889 143q175 4 319 91t226 232t82 316q0 128 -52 243t-139.5 199.5t-204 133.5t-246.5 49q-128 -1 -242 -51t-200.5 -136.5t-135.5 -200.5t-50 -241q0 -170 85.5 -316.5t233.5 -232.5t324 -86zM891 82
q139 1 265 56.5t221.5 153t148.5 223.5t53 267q-1 139 -57.5 266t-153.5 221t-225 147.5t-269 53.5q-139 -1 -265.5 -56t-220.5 -149t-148 -219t-56 -268q0 -187 95 -347.5t258.5 -254.5t353.5 -94zM143 778q1 198 99.5 366t266.5 266.5t365 98.5q149 0 286.5 -57
t239.5 -155.5t161.5 -232.5t60.5 -282q0 -197 -98 -367.5t-267 -272.5t-366 -103q-151 0 -287.5 58t-240.5 161t-162 237.5t-58 282.5zM279 776q0 121 45.5 229t128 192.5t192.5 130.5t229 46q122 0 233.5 -44.5t197 -126t133 -189.5t47.5 -232q0 -165 -77 -302.5
t-213 -219.5t-306 -88q-164 0 -305 81.5t-223 221.5t-82 301zM213 778q0 177 89.5 329t242.5 241t329 92q135 0 257.5 -50t217.5 -141t148.5 -211.5t54.5 -255.5q0 -136 -48 -258t-137.5 -214.5t-211.5 -145t-264 -55.5q-136 0 -259 52t-218 145t-148 214t-53 258zM340 778
q1 110 43 207t117 172.5t170.5 117t203.5 42.5q111 0 211.5 -41.5t176 -115.5t118.5 -173t43 -207q0 -146 -67.5 -269.5t-190 -197t-276.5 -77.5q-149 0 -275.5 73.5t-200 198.5t-73.5 270zM889 258q112 3 205.5 44.5t161.5 114.5t104.5 164.5t36.5 196.5q-1 141 -72 258
t-191.5 185.5t-259.5 68.5q-103 -1 -195.5 -41t-163 -110.5t-109.5 -162t-41 -198.5q0 -140 71 -260t191.5 -190t261.5 -70zM889 322q99 4 181.5 40.5t142.5 98.5t92 142t32 175q0 90 -36.5 173.5t-100.5 146.5t-148 98t-175 35q-92 -2 -172.5 -37t-143.5 -99t-98 -146
t-35 -171q0 -121 61 -226.5t167 -167.5t233 -62z" />
    <glyph glyph-name="P" unicode="P" 
d="M504 1096q0 -46 26 -74.5t64 -28.5q39 0 66.5 27.5t27.5 66.5q-1 35 -27.5 59.5t-62.5 24.5t-63 -20.5t-31 -54.5zM588 618q116 0 223 59t175 163t69 227q0 88 -32.5 171.5t-94 152t-146 108.5t-178.5 41q-96 0 -183.5 -35.5t-152.5 -98t-102 -146.5t-37 -177v-1083h-55
v1085q0 138 72 256.5t193.5 187t262.5 68.5q139 -3 256.5 -75.5t184.5 -194.5t67 -264q0 -101 -41.5 -192t-113.5 -158.5t-167.5 -107t-199.5 -42.5q-36 0 -86 6v-569h-17l-2 1087q0 44 35 73.5t80 29.5q43 0 74.5 -28.5t32.5 -71.5q0 -47 -27 -77t-80 -38q-32 0 -57.5 15.5
t-36.5 29.5v-62q10 -7 37.5 -17.5t48.5 -10.5q63 0 109 47t46 110q-1 61 -43.5 103.5t-103.5 44.5q-65 0 -112.5 -43.5t-47.5 -104.5l2 -1087h-22v1083q0 46 24 86t65 63t89 23q69 0 119.5 -50.5t50.5 -121.5q0 -47 -24.5 -87.5t-66 -64.5t-87.5 -24q-45 3 -84 27v-43
q37 -20 86 -23q56 0 106 30t78.5 80t28.5 105q0 85 -59.5 147t-145.5 64q-57 0 -108.5 -28t-81 -74t-29.5 -105v-1087h-31v1083q0 67 33.5 121t90 85.5t124.5 31.5q62 -1 116 -33t86 -86t33 -117q0 -64 -32 -120t-88 -89.5t-125 -33.5q-39 3 -78 16v-35q41 -14 82 -14
q74 0 137 37.5t101 100t38 132.5q0 47 -22 99t-57.5 91t-84.5 63t-104 24q-53 0 -103.5 -21t-88.5 -59.5t-59 -88.5t-21 -104v-1083h-35v1083q0 82 42 152t113 110.5t152 40.5q80 -1 147 -45t107 -113.5t43 -144.5q0 -84 -41 -154.5t-111.5 -111.5t-150.5 -41q-45 3 -88 17
v-29q41 -13 82 -16q90 0 168 47t125 123.5t47 156.5q-3 85 -47.5 163.5t-118.5 126t-162 48.5q-91 0 -169 -44.5t-124.5 -119.5t-46.5 -166v-1083h-33v1081q0 98 50 182.5t136 134.5t187 50q94 -5 175.5 -51.5t131.5 -131t53 -194.5q0 -86 -49 -168.5t-134.5 -134
t-188.5 -51.5q-61 4 -82 8v-25q35 -9 80 -12q79 0 152 30.5t127 82t87 124.5t33 150q0 106 -52.5 196t-141.5 144.5t-191 57.5q-81 0 -153 -30t-127.5 -84.5t-86 -125.5t-30.5 -150v-1083h-47v1083q0 117 59 216t162.5 158t226.5 59q127 -6 224 -69t149 -162.5t55 -207.5
q0 -118 -62.5 -217.5t-165.5 -158t-216 -58.5q-61 4 -82 8v-22q61 -11 84 -11z" />
    <glyph glyph-name="Q" unicode="Q" horiz-adv-x="1767" 
d="M881 387q106 1 195 55.5t141.5 146t52.5 197.5q-2 108 -56 197t-145.5 141t-196.5 52q-105 -1 -195 -54.5t-142.5 -143t-53.5 -194.5q0 -82 30.5 -153t87.5 -126.5t129 -86.5t153 -31zM1315 657q16 64 16 127q-1 122 -64 226.5t-168.5 165.5t-228.5 61q-92 -2 -172.5 -37
t-143.5 -99t-97.5 -146.5t-34.5 -170.5q0 -122 61 -227t166.5 -167t231.5 -62q175 7 272.5 90t138.5 176l377 -367l-16 -16l-355 344q-22 -42 -68 -95.5t-135 -101t-214 -51.5q-97 0 -185 36.5t-155 103t-104.5 153.5t-37.5 182q1 128 64.5 236t172 172t234.5 65
q126 0 235.5 -62.5t175.5 -171t69 -235.5q0 -85 -17 -145l31 -33q27 89 27 176q-3 138 -73.5 256t-190 187t-259.5 69q-103 -1 -195.5 -41t-162.5 -110t-110 -162t-42 -199q0 -140 71 -260t192.5 -190t261.5 -70q114 0 204.5 45t142.5 95.5t79 89.5l317 -310l-18 -20
l-299 291q-28 -37 -79.5 -83.5t-140.5 -87.5t-208 -42q-145 0 -272 73.5t-201 199t-74 269.5q1 110 42 205.5t117 172.5t172 118.5t205 42.5q109 0 208.5 -42t173.5 -114.5t118 -172.5t47 -208q0 -63 -7 -105t-24 -89l27 -27q22 56 29.5 102.5t7.5 120.5q-3 117 -49 220.5
t-125.5 180.5t-183.5 120t-224 43q-153 0 -283 -76.5t-206.5 -207t-77.5 -284.5q0 -154 77.5 -286.5t211.5 -210.5t293 -78q134 3 239 48.5t193 145.5l268 -262l-18 -18l-248 239q-175 -181 -434 -184q-163 0 -304 81.5t-224 221.5t-83 301q1 122 46.5 229.5t128 192
t192.5 130.5t229 46q122 0 233.5 -44.5t196 -125.5t132.5 -189t49 -233q0 -77 -9.5 -129.5t-35.5 -115.5l22 -25q31 69 42 126.5t11 143.5q-4 171 -91.5 314t-233 226t-316.5 83q-169 -1 -314 -86t-229.5 -228.5t-84.5 -312.5q0 -171 86 -317t234.5 -231.5t322.5 -85.5
q131 1 235 44t195 128l229 -222l-26 -26l-203 196q-100 -82 -196 -116t-234 -39q-140 0 -263 52.5t-216.5 146t-145 216.5t-51.5 254q1 134 52.5 254t142.5 211t212.5 143.5t253.5 53.5q135 0 257 -50t215.5 -141t148 -212t57.5 -255q0 -90 -13 -155.5t-46 -138.5l16 -19
q26 55 41 104t21 99t6 110q-1 140 -57 265.5t-152.5 220.5t-224 148t-269.5 53q-139 0 -265 -54.5t-220.5 -149t-148.5 -219.5t-56 -268q0 -142 56 -269.5t155.5 -225t228 -150.5t267.5 -53q234 0 428 152l186 -181l-33 -32l-157 155q-90 -65 -196 -100.5t-228 -36.5
q-199 0 -372.5 100.5t-274.5 271t-101 369.5q1 151 58.5 284.5t156.5 233t232.5 157t283.5 57.5q149 0 284.5 -56t237.5 -155.5t161.5 -233.5t62.5 -283q0 -104 -15.5 -180t-60.5 -166l21 -16q46 93 64.5 172t18.5 186q-1 155 -63.5 294.5t-169 243.5t-247.5 162t-296 58
q-204 -1 -379.5 -104.5t-278 -277.5t-102.5 -378q0 -207 105.5 -383.5t285 -279.5t386.5 -103q231 3 424 134l143 -144l-39 -39l-108 113q-99 -59 -196.5 -88t-219.5 -29q-224 0 -415 110.5t-304 300.5t-113 410q1 166 64.5 313.5t175.5 259.5t259 175.5t312 64.5
q168 0 317.5 -61.5t264.5 -173t181 -260t69 -314.5q0 -121 -21 -209t-78 -196l111 -113l-10 -12l-426 414q-27 -91 -85.5 -157.5t-137 -102.5t-170.5 -41q-113 0 -208.5 56.5t-150.5 152t-55 204.5q0 108 54 202t146.5 149.5t200.5 56.5q84 0 159 -30.5t133 -85.5t91.5 -129
t36.5 -159q0 -63 -6 -100z" />
    <glyph glyph-name="R" unicode="R" 
d="M500 1094q0 -45 26.5 -74t63.5 -29q39 0 65.5 27.5t26.5 66.5q0 22 -12.5 42.5t-31.5 31t-44 12.5q-36 0 -63 -21t-31 -56zM1055 1130q-12 110 -75.5 205t-163.5 151.5t-216 57.5q-130 0 -239.5 -62.5t-173.5 -168t-64 -232.5v-1081h-55v1083q0 139 72.5 257t194.5 186.5
t263 68.5q141 -1 259 -71t185.5 -191.5t67.5 -269.5q-2 -90 -23.5 -153t-74.5 -138q49 -57 73 -127q25 -67 25 -141v-504h-18v481q0 64 -17.5 127t-53 120.5t-87.5 105.5q-68 64 -132.5 92t-124.5 35.5t-114 13.5q-21 4 -41 23t-22 20v-57q5 -4 14.5 -11t22.5 -12.5t32 -5.5
q51 0 112.5 -13.5t124.5 -44.5t109 -75q68 -65 104 -148.5t36 -154.5v-496h-25v506q0 70 -32 139.5t-95 132.5q-64 68 -156 99.5t-180 31.5q-22 0 -33 4t-19.5 11.5t-14.5 9.5v-45q23 -9 57 -17q13 -2 36.5 -2t27.5 -2q36 -1 82.5 -15.5t92.5 -40.5t81 -62q61 -61 87.5 -124
t26.5 -149v-477h-28v483q0 78 -26.5 138.5t-84.5 115.5q-55 53 -109 75t-133 28q-2 2 -24.5 3t-30.5 3q-10 1 -18 2.5t-15.5 3t-19.5 4.5v-33q30 -10 49 -12q12 -2 35 -2t28 -2q67 -4 117 -26t96 -66q60 -55 83.5 -117t23.5 -145v-453h-37v471q0 131 -86 217
q-44 45 -91 64.5t-116 25.5q-15 0 -51 4q-20 2 -53 11v-29l100 -12q62 -6 105 -24t83 -58q86 -80 86 -197v-473h-38v469q0 108 -78 180q-62 57 -162 66l-96 8v-25l90 -8q52 -3 85 -15t62 -40q74 -64 74 -172v-463h-45v471q0 77 -55 129q-42 40 -115 43l-96 6v-20l94 -8
q61 -4 98 -39q51 -43 51 -113v-469h-59v465q0 41 -29 70q-28 28 -67 28l-90 4v-567h-19l2 1085q0 49 32 78t79 29q37 0 64.5 -19t39.5 -53q6 -18 6 -37q0 -68 -59 -98l66 -8q39 46 39 94q0 22 -11 55q-35 106 -145 109q-64 0 -111 -44t-47 -106v-1085h-22v1081q0 72 53 123
t125 51q60 0 106 -33.5t64 -91.5q10 -33 10 -57q0 -53 -37 -102l37 -13q36 62 39 117q0 24 -6 51q-16 76 -75 123t-136 47q-89 0 -154 -62.5t-65 -148.5v-1085h-25v1081q0 65 33.5 120.5t90.5 87.5t120 32q87 0 152 -52.5t83 -138.5q9 -45 9 -59q0 -57 -41 -125l32 -12
q41 64 41 133q0 30 -6 63q-12 66 -50 117t-96 80t-122 29q-73 0 -138.5 -37t-103 -100t-37.5 -138v-1081h-30v1081q0 80 41.5 150.5t113.5 111.5t152 41q77 0 139.5 -32t104.5 -88t57 -131q4 -25 4 -66q0 -77 -41 -149l23 -13q48 84 51 164q0 29 -6 64q-8 54 -38 106.5
t-73 90.5t-100.5 60.5t-118.5 22.5q-68 0 -130.5 -26t-108.5 -70t-73.5 -106t-27.5 -130v-1081h-35v1083q0 99 51.5 183t138.5 133t187 49q69 0 130.5 -25.5t111 -69.5t80.5 -99t38 -109q5 -27 5 -76q-5 -105 -56 -186l23 -17q63 100 63 199q0 33 -6 74q-15 96 -69.5 172.5
t-137.5 119t-182 42.5q-106 0 -199 -52.5t-147.5 -143t-54.5 -196.5v-1081h-45v1081q0 89 35.5 169.5t98 140.5t143.5 93.5t171 33.5q82 0 158.5 -31t135.5 -85.5t96 -125.5t44 -150q4 -40 4 -59q0 -61 -18.5 -117.5t-56.5 -113.5l16 -15q82 125 82 246q0 19 -4 63z" />
    <glyph glyph-name="S" unicode="S" horiz-adv-x="1151" 
d="M571 86q81 0 153 31t125.5 83.5t84.5 124.5t31 148q0 78 -25 145.5t-71.5 121t-111.5 87.5t-139 41l-45 4q-91 11 -151.5 66.5t-63.5 138.5q0 90 62.5 156t150.5 67q77 0 138.5 -49t74.5 -121q2 -18 2 -47h-41q-3 22 -8 41q-17 62 -61 99t-107 37q-70 -1 -119 -53
t-49 -122q0 -68 48.5 -114.5t117.5 -52.5l56 -5q109 -9 198 -69t138 -157.5t49 -207.5q0 -87 -34 -168t-93 -140.5t-138 -95t-168 -36.5q-78 0 -154.5 28t-138 80t-99 122t-46.5 147q-2 22 -2 59h45v-59q15 -134 129.5 -232t261.5 -98zM578 12q125 0 230 63.5t166.5 172
t61.5 231.5q0 84 -30.5 163.5t-86 142.5t-131 102.5t-163.5 48.5l-47 4q-61 6 -106 43.5t-46 95.5q0 62 42 107t103 45q52 0 94 -34.5t50 -78.5q2 -12 2 -35h-55q0 23 -3 33q-9 29 -32.5 45.5t-53.5 16.5q-36 0 -64 -25.5t-28 -62.5q0 -36 28 -63t64 -30l58 -6
q95 -7 180 -51.5t147 -114.5t98.5 -161.5t37.5 -182.5q0 -144 -70.5 -264t-188 -189t-257.5 -71q-134 0 -249 61.5t-186.5 169t-83.5 240.5q-2 18 -2 47h54q0 -41 4 -67q14 -113 81.5 -203.5t170 -141.5t211.5 -51zM575 330q61 1 104.5 45.5t43.5 105.5q0 59 -40.5 101
t-100.5 47l-37 2q-91 6 -168.5 42.5t-137.5 99.5t-93 144.5t-33 169.5q0 122 63 226t169.5 164.5t232.5 60.5q86 0 162.5 -29.5t135.5 -83.5t97.5 -126.5t50.5 -159.5q4 -42 4 -56h-22q0 19 -5 54q-15 108 -74 194.5t-151 136t-201 50.5q-85 0 -164.5 -32t-141.5 -91.5
t-96.5 -136t-35.5 -164.5q0 -116 54 -212t148 -155.5t208 -71.5l47 -6q66 -6 110 -55.5t44 -116.5q0 -71 -51 -121t-122 -51q-62 0 -110.5 36t-61.5 99q-4 26 -4 35h23q0 -26 10 -51q37 -94 143 -94zM575 266q60 2 107.5 30t75.5 76.5t28 106.5q0 55 -24 100t-66 73.5
t-96 33.5l-65 8q-103 12 -186 67t-130 141t-47 188q1 105 56.5 195.5t149 143t200.5 52.5q153 -3 261 -102.5t126 -248.5q2 -18 2 -47h-27q0 35 -2 56q-12 86 -62.5 156.5t-128 112t-169.5 42.5q-100 0 -185.5 -47.5t-137 -130t-52.5 -180.5q0 -95 43.5 -178t120.5 -134.5
t172 -58.5l57 -4q61 -6 111 -39.5t78 -86t28 -114.5q0 -97 -71 -168t-169 -71q-51 0 -101 22.5t-86 64.5t-46 95q-4 22 -4 55h26q0 -41 7 -65q19 -64 77 -104t129 -40zM578 209q53 0 104.5 21.5t89 59t58 87t20.5 102.5q0 68 -31 126.5t-86.5 96t-126.5 46.5l-67 8
q-130 14 -214.5 106.5t-84.5 220.5q0 87 44 164.5t123 123.5t175 46q127 -6 217 -80.5t106 -195.5q4 -21 4 -58h-30q0 39 -5 64q-13 72 -56.5 126t-107 83.5t-139.5 29.5q-63 0 -117 -23t-97 -64.5t-67 -98t-24 -115.5q0 -117 78 -202.5t195 -98.5l73 -8q117 -11 192 -95.5
t75 -201.5q0 -63 -22.5 -115.5t-66.5 -96.5t-97.5 -66.5t-117.5 -24.5q-72 0 -138.5 34t-110 88t-52.5 116v61h29v-57q6 -55 47 -103t103.5 -77t124.5 -29zM571 147q66 0 126.5 26t106 71.5t71.5 105.5t26 127q0 83 -35.5 155t-99 118t-141.5 55l-86 8q-69 8 -123.5 45
t-87 96t-33.5 129q0 114 79.5 196t192.5 85q72 0 137 -34.5t105 -93t41 -122.5v-31h-37q0 27 -2 43q-13 89 -80.5 145t-159.5 56q-66 0 -121.5 -33t-87.5 -89.5t-32 -121.5q1 -61 28.5 -113t74.5 -84t104 -38l90 -10q89 -9 161 -60.5t112 -131t40 -173.5q0 -96 -48 -178.5
t-132 -132.5t-178 -51q-90 0 -173.5 40t-137 110t-60.5 153q-2 22 -2 61h37v-59q15 -111 109 -190t216 -79zM586 1581q-139 0 -258 -66.5t-188.5 -180.5t-69.5 -249q1 -130 63.5 -240.5t170.5 -179t233 -75.5l34 -4q47 -3 78.5 -32t32.5 -73q0 -43 -29.5 -75t-74.5 -35
q-38 0 -70.5 22t-38.5 56q-2 8 -2 26h18q0 -20 4 -33q9 -26 31.5 -39.5t52.5 -13.5q38 0 63.5 26.5t25.5 63.5q0 24 -11.5 44t-32 32.5t-45.5 13.5l-51 6q-100 10 -186 53t-150.5 112.5t-99.5 158.5t-35 188q0 138 71.5 256.5t193 187t262.5 68.5q134 -2 244.5 -61.5
t181 -164t83.5 -234.5q1 -14 2 -30t1 -26h-17q0 12 -4 50q-15 126 -81 227t-171 159.5t-231 61.5z" />
    <glyph glyph-name="T" unicode="T" horiz-adv-x="1255" 
d="M1188 1133h-340v-1133h-19v1149h359v-16zM1188 1194h-404v-1194h-22v1217h426v-23zM1188 1255h-465v-1255h-27v1280h492v-25zM1188 1372h-584v-1372h-37v1411h621v-39zM1188 1436h-643v-1436h-47v1481h690v-45zM1188 1313h-524v-1313h-29v1343h553v-30zM70 1139v14h346
v43h-346v21h346v38h-346v29h346v33h-346v31h346v30h-346v35h346v23h-346v51h346v18h-346v54h1118v-54h-715v-1505h-57v1139h-346z" />
    <glyph glyph-name="U" unicode="U" 
d="M496 1559v-1106q0 -29 25 -47.5t57 -20.5q37 0 65.5 23.5t28.5 58.5v1092h20v-1090q0 -43 -33.5 -73.5t-80.5 -30.5q-42 2 -72.5 30.5t-30.5 67.5v1096h21zM428 1559v-1090q0 -59 45 -102t105 -45q64 0 111.5 42.5t47.5 104.5v1090h21v-1086q0 -71 -53 -121.5t-125 -50.5
q-68 0 -120 47t-52 115v1096h20zM369 1559v-1113q0 -77 63.5 -130.5t145.5 -55.5q58 0 108.5 28t80.5 76t30 105l2 1090h24v-1086q0 -66 -33.5 -120.5t-90 -87t-121.5 -32.5q-63 2 -117 30t-86.5 76t-32.5 110v1110h27zM311 1559v-1113q0 -67 36.5 -123.5t97.5 -88
t133 -33.5q54 0 105.5 21t90.5 59t60.5 88t21.5 104v1086h31l-2 -1086q0 -82 -42 -152t-112.5 -110.5t-152.5 -40.5q-120 2 -208.5 82.5t-88.5 196.5v1110h30zM250 1559v-1113q0 -85 45 -154.5t119 -109t161 -41.5q91 0 170.5 45t126 121.5t46.5 165.5v1086h34v-1084
q0 -100 -52 -185t-138 -134.5t-187 -49.5q-94 1 -178 45.5t-134 120.5t-50 168v1119h37zM190 1559v-1104q0 -99 52.5 -185t141.5 -136.5t191 -51.5q107 0 198.5 52t146.5 142.5t55 196.5v1086h47v-1086q0 -89 -34.5 -167t-98 -139t-145 -94.5t-171.5 -33.5q-113 1 -213 58.5
t-158.5 154t-58.5 209.5v1098h47zM119 1559v-1108q0 -90 36 -170t99 -139.5t145 -94t172 -37.5q131 0 240 63t172.5 169t63.5 231v1086h55v-1088q0 -138 -72.5 -256.5t-194 -187t-262.5 -68.5q-135 3 -253 68.5t-187.5 177.5t-69.5 244v1110h56z" />
    <glyph glyph-name="V" unicode="V" horiz-adv-x="1546" 
d="M770 958l-274 601h18l256 -558l254 558h20zM770 637l-420 922h27l393 -850l389 850h27zM772 487l-491 1072h30l459 -996l459 996h31zM772 328l-561 1231h35l524 -1139l520 1139h39zM772 160l-641 1399h43l598 -1293l588 1293h47zM772 -31l-727 1590h59l668 -1457
l662 1457h59zM770 801l-348 758h22l326 -705l322 705h22z" />
    <glyph glyph-name="W" unicode="W" horiz-adv-x="1831" 
d="M1214 1051l-296 524l-297 -533l-150 517h21l135 -476l288 523l297 -510l121 463h19zM918 1438l-316 -570l-196 691h22l180 -629l310 555l317 -555l164 629h22l-182 -685zM918 1300l-334 -602l-248 861h26l232 -789l324 592l337 -586l209 783h27l-227 -859zM922 1174
l-359 -648l-293 1033h31l272 -953l345 629l358 -621l252 945h28l-272 -1027zM922 1040l-379 -680l-338 1199h35l315 -1108l363 663l376 -653l295 1098h35l-319 -1199zM922 893l-400 -723l-391 1389h43l358 -1272l390 704l391 -692l340 1260h45l-365 -1379zM922 731
l-424 -764l-449 1592h57l408 -1453l408 740l419 -727l381 1440h58l-422 -1592z" />
    <glyph glyph-name="X" unicode="X" horiz-adv-x="1587" 
d="M1214 1559l-454 -742l497 -817h-40l-500 815l454 744h43zM1280 1559l-449 -746l494 -813h-37l-495 815l456 744h31zM1352 1559l-453 -744l498 -815h-31l-500 813l457 746h29zM1425 1559l-454 -744l497 -815h-24l-500 815l459 744h22zM1497 1559l-453 -744l496 -815h-20
l-498 815l459 744h16zM1141 1559l-453 -744l496 -815h-54l-495 815l455 744h51zM573 758l-464 -758h-64l496 815l-463 744h63l432 -687l13 19l-414 668h49l391 -621l15 20l-373 601h45l350 -564l17 25l-332 539h31l317 -508l20 32l-296 476h32l281 -451l22 39l-258 412h29
l244 -394l26 45l-219 349h21l207 -334l204 334h64l-451 -742l496 -817h-66l-245 401l-244 -401h-19l250 422l-24 39l-281 -461h-24l288 483l-18 33l-315 -516h-35l331 545l-18 33l-350 -578h-37l367 604l-15 29l-383 -633h-43l404 670l-13 24l-421 -694h-54l447 737z" />
    <glyph glyph-name="Y" unicode="Y" horiz-adv-x="1372" 
d="M907 756v-756h-20v735q0 42 -8 86q-10 59 -33 107l-330 631h21l151 -289l152 289h63l-180 -355l12 -22l195 377h49l-217 -426l12 -29l238 455h39l-254 -494l12 -31l274 525h33l-287 -555l19 -37l307 592h27l-318 -629l17 -41l350 670h24l-362 -695l12 -76l395 771h25z
M590 799q6 -11 10 -41q2 -17 2 -45v-713h-45v713q0 22 -2 37q0 20 -8 36l-404 773h50zM520 786q10 -23 12 -38v-43v-705h-55v745l-426 814h62zM801 918q31 -62 39 -119q2 -29 2 -72v-727h-21v748q0 32 -6 67q-7 40 -22 68l-353 676h27zM754 872q16 -33 24 -84q2 -28 2 -75
v-713h-26v705q0 51 -2 81q-7 38 -17 60l-368 713h30zM700 846q11 -24 21 -64q4 -26 4 -69v-713h-33v705q0 47 -4 73q-6 35 -16 53l-377 728h33zM647 823q9 -17 15 -55q2 -14 2 -63v-705h-39v709q0 18 -2 53q0 29 -17 59l-385 738h41z" />
    <glyph glyph-name="Z" unicode="Z" horiz-adv-x="1343" 
d="M717 426h549v-16h-580l518 1132h-1071v17h1100zM614 362h650v-20h-684l522 1135h-967v22h1000zM522 305l742 -2v-27l-789 3l522 1130h-862v27h905zM428 246h836v-31l-885 2l520 1133h-764v28h807zM334 184h930v-37h-988l523 1135h-664v39h715zM242 123h1022v-45h-1096
l516 1136h-549v46h621zM129 53h1135v-53h-1221l518 1135h-426v55h512z" />
    <glyph glyph-name="backslash" unicode="\" horiz-adv-x="1360" 
d="M1147 -346l-838 1905h41l834 -1905h-37zM1085 -346l-839 1905h33l835 -1905h-29zM1020 -346l-840 1905h27l837 -1905h-24zM950 -346l-839 1905h24l836 -1905h-21zM885 -346l-842 1905h20l840 -1905h-18zM1294 -346l-841 1905h57l838 -1905h-54zM1219 -346l-840 1905h47
l840 -1905h-47z" />
    <glyph glyph-name="asciicircum" unicode="^" horiz-adv-x="1081" 
d="M109 1948l426 94l432 -94v-35l-435 94l-423 -94v35zM109 1886l423 96l435 -96v-26l-435 96l-423 -96v26zM109 1831l421 96l437 -96v-25l-439 97l-419 -97v25zM109 1772l419 96l439 -96v-19l-439 94l-419 -94v19zM109 1712l419 96l439 -96v-18l-439 96l-419 -96v18z
M109 2081l428 96l430 -96v-49l-430 94l-428 -94v49zM109 2009l423 96l435 -96v-41l-430 94l-428 -94v41z" />
    <glyph glyph-name="grave" unicode="`" horiz-adv-x="887" 
d="M582 1696l-195 458h41l184 -458h-30zM532 1696l-206 458h30l201 -458h-25zM479 1696l-219 461h27l213 -461h-21zM424 1696l-234 461h25l225 -461h-16zM371 1696l-246 461h18l242 -461h-14zM702 1696l-172 458h56l159 -458h-43zM641 1696l-184 458h47l174 -458h-37z" />
    <glyph glyph-name="a" unicode="a" horiz-adv-x="1163" 
d="M563 1597q107 0 204 -40t170 -109.5t115 -163t42 -199.5l-2 -1085h-54v1083q0 127 -64 232.5t-173.5 168t-239.5 62.5q-91 -1 -174 -36t-145 -95t-97.5 -138.5t-35.5 -168.5v-293h24v283q0 112 58.5 209.5t158.5 154.5t213 58q91 0 172 -33.5t143.5 -93.5t98 -140.5
t35.5 -169.5v-1083h-41v1083q0 106 -54.5 196.5t-148.5 143t-203 52.5q-104 -3 -192.5 -52.5t-140.5 -134.5t-52 -184v-289h23v303q0 140 108 235t254 97q101 0 188.5 -49.5t139 -134t51.5 -185.5v-1081h-37v1083q0 68 -27 129.5t-72.5 106.5t-108.5 71.5t-132 26.5
q-86 -1 -161 -41.5t-120.5 -110.5t-45.5 -153l2 -297h30v295q0 77 41 140t109.5 98.5t146.5 37.5q82 0 153 -40.5t113 -111t42 -151.5v-1083h-37v1083q0 56 -20.5 105.5t-59 88t-89 60t-104.5 21.5q-71 -2 -132 -34.5t-97.5 -89t-36.5 -124.5v-295h33v295q0 90 70 151.5
t165 61.5q101 0 171.5 -69.5t70.5 -170.5v-1083h-23v1087q0 58 -30 106t-80.5 76.5t-108.5 28.5q-53 -1 -101.5 -25t-78 -66.5t-29.5 -94.5v-297h37v299q0 62 53 102.5t121 40.5q73 0 125 -50.5t52 -123.5v-1083h-21v1087q0 63 -46.5 106.5t-111.5 43.5q-60 -2 -104.5 -38
t-44.5 -89v-295h45v281q0 40 30 67.5t72 30.5q46 0 80.5 -31.5t34.5 -75.5v-1087h-18v391h-179v-391h-20v414h194v41h-239v-455h-23v481h262v35h-299v-516h-26l2 547h323v28h-358v-575h-29v606h387v25h-417v-631h-39v672h459v24h-482v-696h-47v739h529v23h-553v-762h-54
v1110q0 133 70 243.5t186 175.5t252 68zM483 1104v-289h179v277q0 35 -29.5 58.5t-65.5 23.5q-31 -2 -57.5 -21.5t-26.5 -48.5z" />
    <glyph glyph-name="b" unicode="b" horiz-adv-x="1221" 
d="M645 981h-512l-2 -928l510 2q125 0 232 63.5t170 173t63 238.5q-3 123 -65.5 226.5t-167.5 164t-228 60.5zM639 80h-481v876h491q88 0 166.5 -32.5t138.5 -92t94.5 -140t34.5 -165.5q0 -120 -59.5 -223.5t-161 -163t-223.5 -59.5zM653 909h-448v-782h434q113 0 202.5 53
t142 146t52.5 204q-1 101 -53.5 189.5t-141 139t-188.5 50.5zM641 150h-414v737h424q96 0 179.5 -49t133 -132t50.5 -180q0 -77 -28 -144t-80 -120t-120.5 -82.5t-144.5 -29.5zM653 848h-389v-662h377q68 0 131.5 27.5t108 73.5t70.5 108.5t26 130.5q-1 87 -45 161.5
t-118.5 117.5t-160.5 43zM635 215h-340v604h350q59 0 115 -23t96.5 -61.5t65.5 -92t26 -112.5q0 -88 -40.5 -160t-113.5 -113.5t-159 -41.5zM918 528q-1 55 -23 101.5t-60.5 82.5t-86.5 55t-103 19h-321v-540h311q57 0 109 20.5t91.5 59t61 91t21.5 111.5zM637 276h-281v480
h285q65 0 121 -30.5t91 -84.5t36 -117q0 -66 -35 -123.5t-92 -91t-125 -33.5zM860 524q-1 55 -31.5 102.5t-80.5 74t-107 26.5h-258v-424h250q61 0 113 29.5t83 80t31 111.5zM635 342h-213v350h215q73 0 125.5 -49t54.5 -121q0 -48 -22.5 -90t-63.5 -66t-96 -24zM799 520
q-2 65 -51 107.5t-117 42.5h-187v-305h187q73 0 120.5 44t47.5 111zM657 410h-168v215h170q41 0 68.5 -31.5t28.5 -71.5q0 -44 -28 -78t-71 -34zM737 522q-2 36 -22 60t-51 24h-156v-178h151q22 0 39.5 13t28 36t10.5 45zM573 1599q100 0 190 -36.5t159.5 -103t109 -155
t39.5 -186.5q0 -73 -12 -124.5t-45 -112.5q63 -63 105.5 -156.5t43.5 -200.5q0 -141 -70.5 -261.5t-190.5 -191.5t-261 -71h-563v1108q0 99 38 188.5t107 158.5t159.5 106.5t190.5 37.5zM133 1102v-70h23v76q0 84 33 159.5t90.5 132.5t135 89.5t160.5 32.5
q112 0 208.5 -54.5t153 -147.5t58.5 -206q0 -55 -9 -93t-30 -83l19 -18q41 91 41 194q-1 86 -37 166.5t-96.5 140.5t-140.5 93.5t-169 33.5q-88 0 -169.5 -35.5t-141.5 -96.5t-94.5 -142.5t-34.5 -171.5zM197 1094v-62h30v70q0 92 45.5 172t124 127.5t170.5 48.5
q93 0 172 -43t127 -117.5t54 -165.5q0 -89 -23 -145l21 -18q30 75 30 153q-1 77 -31.5 144t-83 118t-121 79t-145.5 28q-76 -1 -144.5 -32.5t-118.5 -85.5t-78.5 -125t-28.5 -146zM262 1110v-78h33v76q0 73 37 138t101 103.5t136 39.5q78 0 142.5 -36.5t103.5 -99t41 -139.5
q0 -67 -18 -113l24 -8q25 57 25 119q-2 84 -45.5 153.5t-117 109.5t-155.5 40q-61 0 -117.5 -23.5t-99 -66t-66.5 -99t-24 -116.5zM322 1120v-88h34v76q0 87 60.5 149.5t150.5 65.5q61 0 113 -27t83 -74.5t32 -105.5q0 -53 -21 -96l37 -8q18 48 18 104q-3 69 -40 124.5
t-97 87.5t-133 32q-63 -4 -118 -40t-87 -90.5t-32 -109.5zM385 1112v-78h39v70q0 62 42 107t103 46q63 0 109 -40.5t49 -100.5q0 -49 -16 -82l39 -8q16 38 16 90q-4 79 -61.5 129.5t-137.5 50.5q-73 -3 -127.5 -56.5t-54.5 -127.5zM444 1106v-72h41v62q0 41 25.5 70.5
t62.5 29.5q33 0 60.5 -24.5t30.5 -57.5q0 -50 -35 -76h59q21 31 21 74q-2 53 -41 89t-93 36q-53 0 -92 -38t-39 -93zM502 1034h65q32 0 55 23t23 55q-2 21 -12.5 35.5t-28 22.5t-35.5 8q-29 -1 -48 -25.5t-19 -54.5v-64z" />
    <glyph glyph-name="c" unicode="c" horiz-adv-x="1180" 
d="M1104 365q-97 -56 -232 -62q-131 0 -241.5 65t-175 174.5t-64.5 237.5q0 96 36.5 180.5t101 150t151 103.5t180.5 39q78 0 130 -13t114 -48v-23q-111 66 -244 66q-92 -2 -172 -37t-143 -98.5t-98 -146.5t-35 -173q0 -89 35 -171t99.5 -146.5t149.5 -100.5t178 -36
q126 2 230 63v-24zM1104 293q-64 -30 -110.5 -41t-121.5 -14q-110 0 -210 42t-176 118t-118.5 175.5t-43.5 206.5q0 109 41 207t116.5 173.5t172.5 117.5t206 43q128 0 244 -55v-29q-118 59 -246 59q-136 -1 -254 -71.5t-186 -188.5t-68 -256q0 -137 71.5 -256t191 -189.5
t259.5 -70.5q70 3 120.5 15t111.5 43v-29zM1104 80q-67 -22 -116.5 -30.5t-113.5 -8.5q-201 0 -373.5 100.5t-273 270.5t-100.5 368q1 198 99 366.5t265.5 267.5t366.5 99q129 0 246 -38v-41q-61 21 -116.5 30t-129.5 9q-139 0 -264.5 -54t-221.5 -150.5t-149 -222
t-53 -266.5q1 -195 97 -354t257.5 -249.5t349.5 -90.5q70 0 114 7.5t116 33.5v-47zM1104 152q-115 -41 -230 -41q-189 0 -344.5 89.5t-244 244t-88.5 335.5q0 178 89 331t242 243.5t330 91.5q76 0 130 -10t116 -33v-37q-65 27 -117.5 36t-128.5 9q-171 -3 -314.5 -88
t-228 -229.5t-84.5 -313.5q0 -171 87 -317t235.5 -231t320.5 -85q68 0 114 9.5t116 36.5v-41zM1104 -2q-113 -36 -227 -39q-228 0 -418.5 109.5t-301.5 298.5t-112 413q0 220 109.5 407t296.5 298t405 112q123 0 248 -38v-54q-60 21 -116 29t-132 8q-148 0 -282.5 -58
t-240 -162t-167 -246t-64.5 -300q0 -158 64 -298t173.5 -242.5t248.5 -160t286 -57.5q141 8 230 37v-57zM1104 223q-57 -23 -112.5 -35t-117.5 -12q-169 0 -308.5 81.5t-220.5 220.5t-81 300q0 121 46 231t129 195t192 131.5t229 46.5q127 0 244 -49v-33q-59 28 -101 39.5
t-143 12.5q-154 0 -285.5 -79t-206.5 -211.5t-75 -281.5q0 -155 77 -288t210 -210t294 -77q120 2 230 51v-33zM1104 446q-59 -42 -110.5 -59t-121.5 -18q-109 0 -206 56t-153 151t-56 204q0 110 54.5 203t147.5 147.5t201 57.5q138 0 244 -74v-18q-107 78 -242 78
q-79 -1 -150.5 -32t-124.5 -85t-83.5 -126t-30.5 -151q0 -107 54.5 -197.5t146 -143t198.5 -52.5q70 0 121 18t111 64v-23z" />
    <glyph glyph-name="d" unicode="d" horiz-adv-x="1434" 
d="M580 1505h-449v-1454h442q195 0 362 95.5t267 260t103 357.5q0 152 -55.5 288t-154.5 237.5t-231 158.5t-284 57zM567 76h-411v1405h424q144 0 272.5 -55t225.5 -155t150.5 -229.5t53.5 -279.5q-4 -190 -98.5 -347t-257.5 -248t-359 -91zM600 1434h-397v-1311h366
q185 0 336.5 85t239.5 233t92 323q0 136 -48.5 257.5t-136 215t-204.5 145.5t-248 52zM571 145h-346v1266h377q124 0 235 -51t195.5 -141t132 -208.5t47.5 -248.5q-4 -169 -91 -311.5t-233 -224t-317 -81.5zM606 1374h-344v-1192h311q125 0 235 44t191.5 123.5t127.5 185
t49 227.5q0 124 -45 236.5t-122 196t-181 131.5t-222 48zM565 213h-270v1133h303q151 0 277.5 -79.5t200 -213.5t73.5 -289q-4 -153 -82.5 -279.5t-210 -199t-291.5 -72.5zM1116 762q0 149 -68 276.5t-186.5 201t-263.5 73.5h-274v-1069h241q149 0 275 68t199.5 187.5
t76.5 262.5zM567 276h-211v1004h260q125 0 234 -71t173 -191.5t64 -257.5q-3 -102 -44.5 -190.5t-111.5 -154.5t-164 -102.5t-200 -36.5zM1059 758q0 100 -33.5 191t-93.5 159t-142.5 107.5t-173.5 39.5h-233v-954h180q128 0 241 60t181 164.5t74 232.5zM565 342h-145v875
h190q111 0 204.5 -62.5t147.5 -169t54 -229.5q-6 -116 -63 -211t-158.5 -149t-229.5 -54zM997 756q0 118 -51.5 218.5t-142.5 160t-197 59.5h-164v-832h119q95 0 174.5 29t136 81.5t89 126t36.5 157.5zM567 406h-80v743h136q89 0 165 -53.5t121 -144t45 -195.5
q-6 -98 -59.5 -178.5t-140 -126t-187.5 -45.5zM936 756q0 99 -40.5 185.5t-111.5 137.5t-157 51h-121v-704h84q89 0 167 44t125.5 119.5t53.5 166.5zM1362 758q-3 -156 -66 -294.5t-172 -242.5t-251.5 -162.5t-299.5 -58.5h-499v1559h475q170 0 321 -61t260.5 -169.5
t170.5 -256t61 -314.5z" />
    <glyph glyph-name="e" unicode="e" horiz-adv-x="1081" 
d="M997 862l-819 2v-354q0 -63 29 -143.5t92 -141.5q66 -63 137.5 -87.5t171.5 -24.5h389v-39h-395q-79 0 -137.5 12t-110.5 42.5t-100 80.5q-56 59 -88.5 147.5t-32.5 145.5v407h864v-47zM997 743h-698v-243q0 -44 25 -101.5t69 -95.5q85 -70 191 -70q15 1 32.5 2t22.5 1
h358v-29h-362q-94 0 -144.5 12.5t-117.5 61.5q-47 36 -75 103.5t-28 111.5l-2 276h729v-29zM997 684h-637v-166q0 -115 89 -180q33 -24 62.5 -31.5t68.5 -7.5h61h356v-29h-354h-47q-53 0 -85.5 8t-84.5 41q-44 31 -69 88.5t-25 108.5v195h665v-27zM997 625h-579v-109
q0 -23 13.5 -63t47.5 -66q29 -20 50 -24.5t57 -4.5h59h352v-22h-354h-59q-37 0 -63 6.5t-58 28.5q-34 26 -51 70.5t-17 72.5l2 133l600 -2v-20zM997 563h-516l-2 -55q0 -51 45 -80q23 -12 62 -12h47h364v-17h-362q-49 0 -76 4t-49 19q-47 27 -47 88l2 70l532 -2v-15z
M997 803h-757v-291q0 -56 27.5 -132t80.5 -118q52 -40 92.5 -58.5t78 -23t106.5 -4.5h372v-33h-383q-98 0 -153 15t-135 78q-73 58 -97 145t-24 151v304h792v-33zM586 1141q-58 0 -84 -29q-25 -27 -25 -92v-29h520v-55h-888l-3 -438q0 -72 35.5 -161.5t102.5 -154.5
q143 -137 360 -137h393v-49h-397q-115 0 -195 24.5t-163 92.5q-87 71 -138 178t-51 221v543q0 92 36.5 184.5t107.5 167.5q59 60 119.5 94t131 48t156.5 14h393v-54h-391q-145 0 -236.5 -44.5t-150.5 -112.5q-41 -47 -75.5 -128.5t-34.5 -158.5v-74h22v62q0 80 35.5 158
t83.5 135q61 68 152 103.5t190 35.5h405v-45h-405q-189 0 -311 -119q-47 -48 -76 -125t-29 -127v-78h27v35q0 167 96 272q50 57 128.5 88t172.5 31h397v-39h-399q-95 0 -161 -24.5t-118 -89.5q-79 -94 -79 -234v-39h26v60q0 43 19.5 98t54.5 94q48 58 110 81.5t146 23.5h401
v-29h-399q-80 0 -140 -23t-104 -79q-28 -36 -42.5 -84t-14.5 -78v-64h35v64q0 76 55 147q41 49 92 68.5t121 19.5h397v-30h-397q-63 0 -106 -14t-80 -54q-26 -29 -43 -73t-17 -77v-51h41v45q0 84 41 125q57 60 170 60h391v-19h-391q-105 0 -153 -53q-37 -45 -37 -123v-35h45
v31q0 68 28 98q32 37 93 37h415v-16h-411z" />
    <glyph glyph-name="f" unicode="f" horiz-adv-x="1073" 
d="M143 0v918h867v-46h-822v-872h-45zM279 0v780h731v-28h-699v-752h-32zM342 0v719h666l2 -27h-641v-692h-27zM406 0v655h604v-22h-582v-633h-22zM475 0v588h535v-17h-518v-571h-17zM63 0v1063q0 189 146 342q57 60 117.5 94t131.5 48t158 14h392v-54h-390
q-251 0 -389 -157q-41 -49 -74.5 -124.5t-33.5 -152.5v-74h22v62q0 142 117 282q60 69 151.5 104.5t190.5 35.5h406v-45h-406q-187 0 -309 -119q-48 -50 -76.5 -121t-28.5 -121v-78h25v35q0 78 23 141t75 121q51 56 129 87.5t170 31.5h398v-41h-400q-95 0 -160 -24t-118 -90
q-42 -51 -60 -101.5t-18 -118.5v-41h27v62q0 37 19 89t52 91q50 58 111.5 81.5t144.5 23.5h402v-29h-400q-79 0 -138 -22t-103 -78q-27 -37 -43.5 -80t-16.5 -74v-64h35v64q0 69 57 135q40 50 89.5 69t123.5 19h396v-29h-396q-63 0 -107 -14.5t-79 -52.5q-59 -62 -59 -141
v-50h41v45q0 74 41 115q55 60 167 60h392v-21h-392q-55 0 -89.5 -10t-61.5 -41q-39 -44 -39 -113v-35h45v29q0 60 29 90q31 37 94 37h414v-14h-412q-55 0 -84 -31q-23 -29 -23 -82v-29h521l-2 -55l-889 -2v-942h-56zM215 0v850h793v-39h-756v-811h-37z" />
    <glyph glyph-name="g" unicode="g" horiz-adv-x="1581" 
d="M1221 1083q-60 70 -150.5 112t-196.5 42q-123 -1 -225 -61.5t-162.5 -164t-60.5 -223.5q0 -122 61 -227.5t166.5 -168t231.5 -62.5q113 2 192.5 41.5t79.5 132.5q0 43 -20.5 80t-55 59.5t-77.5 22.5h-259v24h265q80 0 126 -58t46 -128t-41.5 -114t-106 -62.5
t-149.5 -20.5q-96 0 -184 36.5t-157 105.5t-105 156t-36 181q1 125 65 234.5t170.5 173t233.5 66.5q113 0 206 -43t159 -119zM1268 1126q-69 77 -172 123.5t-226 46.5q-104 -2 -196 -42.5t-161.5 -109t-109.5 -161.5t-41 -195q0 -139 70.5 -260t191 -191.5t261.5 -70.5
q80 0 157 27t128 82t51 131q-3 58 -31.5 109.5t-74.5 81.5t-105 30h-265v29h259q67 0 122.5 -33.5t88.5 -91t36 -125.5q0 -86 -51.5 -144.5t-135.5 -88t-179 -31.5q-147 0 -273 74t-200 201t-74 271q1 110 43.5 207.5t116 171t171 115t203.5 41.5q129 0 233 -47t181 -131z
M1403 1245q-93 105 -232 168.5t-299 63.5q-139 -1 -265 -55t-221 -149t-149 -219t-55 -266q0 -190 96 -351.5t259 -256t352 -94.5q105 0 196 29t164 85.5t112.5 135t39.5 170.5q-1 86 -33.5 162t-88 130t-125.5 83.5t-150 29.5h-259v41h273q89 0 167 -36.5t137.5 -99.5
t91.5 -143.5t32 -164.5q-1 -102 -42.5 -188.5t-115 -146.5t-174.5 -93.5t-223 -36.5q-151 0 -288 58t-241.5 163t-162.5 240.5t-58 283.5q1 196 100 365.5t265 268t364 98.5q116 0 220.5 -30t191.5 -86.5t154 -131.5zM1356 1204q-84 94 -211.5 152.5t-274.5 58.5
q-168 -1 -312 -86t-229.5 -229.5t-86.5 -311.5q0 -172 87.5 -319t237 -233t320.5 -86q129 2 231.5 44t161.5 123t59 191q-5 91 -47 169t-115.5 124.5t-168.5 46.5h-263v35h273q76 0 141 -30t115 -84.5t76 -121t26 -141.5q-1 -120 -62.5 -208t-172.5 -135.5t-254 -49.5
q-139 0 -262 53t-216.5 146.5t-146.5 217.5t-53 258q1 136 52.5 254.5t143 210.5t211 144t254.5 53q158 0 287.5 -58t222.5 -163zM1456 1288q-63 69 -153.5 128t-203.5 94.5t-229 35.5q-150 -1 -291 -61.5t-245 -164.5t-163.5 -244t-59.5 -290q0 -208 106 -384.5t285 -280
t383 -103.5q124 1 229.5 35.5t185 98t123.5 153t45 197.5q0 127 -59.5 235.5t-164 173t-226.5 64.5h-273v59h248q107 0 203.5 -40.5t170.5 -113t115.5 -168.5t41.5 -204q-1 -135 -53.5 -238t-140.5 -169.5t-200.5 -99.5t-240.5 -36q-166 0 -318 64.5t-267 178.5t-180 264.5
t-65 315.5q1 164 64 310t175 258t261 176t311 67q128 0 244 -33.5t211 -93.5t168 -143zM1311 1165q-16 20 -46 47t-85 61t-135.5 59.5t-172.5 25.5q-153 -1 -283.5 -78.5t-206.5 -207.5t-77 -284q0 -154 77 -288t210 -212.5t295 -78.5q103 2 195 36t146 101t54 162
q-3 57 -25.5 109t-59.5 90t-87 59.5t-106 21.5h-259v31h275q22 0 66.5 -11t94 -42t89 -94.5t43.5 -161.5q0 -143 -105 -235t-321 -99q-165 0 -306 83t-223 224t-82 303q0 121 46 230.5t128.5 193t191.5 130t230 46.5q143 0 258.5 -51.5t202.5 -148.5zM1178 1042
q-52 60 -131 98t-173 38q-106 -2 -194.5 -54t-141 -141.5t-53.5 -194.5q0 -78 31.5 -151t87.5 -129t128.5 -87.5t152.5 -31.5q68 0 141.5 27t73.5 88q-2 41 -25.5 70.5t-62.5 29.5h-267v21h267q31 0 54.5 -16.5t37.5 -44.5t14 -58q-1 -73 -71.5 -101t-161.5 -32
q-116 0 -211 56.5t-150 152.5t-55 206q2 85 33.5 158t86 128t128.5 87.5t155 32.5q62 0 123 -17.5t110.5 -49t84.5 -72.5z" />
    <glyph glyph-name="h" unicode="h" horiz-adv-x="1294" 
d="M989 1559v-1559h-37v1559h37zM1049 1559v-1559h-29v1559h29zM1108 1559v-1559h-27v1559h27zM1169 1559v-1559h-22v1559h22zM1233 1559v-1559h-19v1559h19zM930 1559v-1559h-47v1559h47zM55 1559h56v-564h24v564h47v-564h23v564h37v-564h30v561l29 3v-564h33v564h26v-564
h39v564h23v-564h43l2 561l20 3l-2 -564h318v564h55v-1559h-55v567h-318v-567h-18v586h336v43h-381v-629h-23v653h404v37h-443v-690h-26v717h469v33h-502v-750h-29v780h531v29h-561v-809h-37v846h596l2 22h-621v-868h-47v918h668v20h-692v-938h-56v1559z" />
    <glyph glyph-name="i" unicode="i" horiz-adv-x="631" 
d="M276 1559v-1559h-36v1559h36zM338 1559v-1559h-29v1559h29zM397 1559v-1559h-26v1559h26zM457 1559v-1559h-23v1559h23zM520 1559v-1559h-18v1559h18zM145 1559v-1559h-53v1559h53zM217 1559v-1559h-47v1559h47z" />
    <glyph glyph-name="j" unicode="j" horiz-adv-x="1163" 
d="M483 500v-37q0 -32 25 -53t59 -23q37 0 66 23t29 59v1090h20v-1088q0 -42 -34 -73t-81 -31q-43 2 -72.5 27.5t-29.5 70.5v35h18zM420 500l-2 -31q0 -39 20.5 -71.5t55 -51t73.5 -20.5q65 0 112.5 42t47.5 103v1088h23v-1084q0 -48 -24.5 -87t-66 -62t-90.5 -23
q-71 2 -121.5 49t-50.5 117v31h23zM358 500v-39q0 -82 63.5 -139.5t145.5 -57.5q86 0 149.5 61t63.5 146v1088h33l-2 -1084q0 -63 -33 -117t-88.5 -86t-118.5 -32q-62 0 -117.5 29t-88.5 80.5t-33 113.5v37h26zM299 500v-39q0 -70 37 -128.5t99 -92t134 -35.5q54 0 105 21
t90.5 59.5t60.5 87.5t21 102l-2 1084h30v-1084q0 -61 -23.5 -115t-67 -96.5t-98.5 -65t-118 -22.5q-78 1 -147 39t-109.5 103.5t-40.5 144.5v37h29zM240 500v-39q0 -84 45 -157t119.5 -114.5t160.5 -44.5q92 0 170 44.5t124 120.5t46 165v1084h39l-2 -1082q0 -99 -51.5 -183
t-139.5 -133.5t-188 -49.5q-95 1 -178.5 47t-132.5 125t-49 172v45h37zM180 500v-43q0 -99 52.5 -184.5t141.5 -135.5t189 -51q81 0 155 31t128.5 83.5t86.5 123t32 151.5v1084h49v-1082q0 -116 -60.5 -217t-164 -160t-226.5 -59q-113 1 -213 58.5t-158.5 154t-58.5 209.5
v37h47zM109 500l-3 -43q0 -117 62.5 -218t167 -161.5t223.5 -61.5q131 0 240.5 62t173 167.5t63.5 229.5v1084h56v-1086q0 -105 -42 -198t-115 -162.5t-170 -109.5t-204 -40q-136 3 -252.5 69.5t-186 181t-69.5 247.5v37z" />
    <glyph glyph-name="k" unicode="k" horiz-adv-x="1401" 
d="M1352 0h-58l-284 688q-49 122 -163 198.5t-257 76.5q-123 0 -229.5 -60t-170 -163.5t-63.5 -225.5v-514h-57v1559h55v-818l25 33v785h47v-719l20 24v695h39v-660l31 23v637h30v-615l31 17v598h27v-586l39 14v572h20v-562l47 11v551h19v-545l59 4l258 541h60l-252 -539
l22 -4l256 543h47l-254 -549l23 -4l262 553h37l-264 -566l26 -8l273 574h30l-276 -588l31 -10l282 598h31l-289 -617l33 -16l299 633h23l-306 -650l33 -26l322 676h18l-323 -695q16 -17 53 -65q33 -47 49 -84zM1268 0h-47l-273 662q-27 65 -80 118.5t-127.5 85t-152.5 31.5
q-77 0 -149.5 -31t-125.5 -85t-83.5 -126t-30.5 -151v-504h-47v512q0 86 35 166t95 138t141 91t167 33q93 0 173 -35.5t139.5 -99.5t92.5 -143zM981 0h-20l-230 563q-20 47 -57 71.5t-88 24.5q-40 -1 -74.5 -20.5t-54 -51t-19.5 -71.5v-516h-22v518q0 68 50.5 114t121.5 48
q54 0 97.5 -28.5t64.5 -80.5zM1053 0h-29l-240 586q-26 65 -77 98t-121 33q-86 -2 -147.5 -60t-61.5 -141v-516h-27v514q0 64 33 116.5t87.5 83.5t119.5 31q49 0 93.5 -19t77 -52.5t50.5 -73.5zM1122 0h-30l-248 602q-22 54 -61.5 93.5t-90.5 60t-104 20.5
q-69 -1 -132.5 -37t-100 -96t-36.5 -131v-512h-30v512q0 80 41 147.5t109 107t149 42.5q90 0 168 -53t104 -119zM1192 0h-39l-272 659q-28 70 -112.5 123.5t-180.5 53.5q-67 0 -126.5 -25t-105.5 -71t-72 -106.5t-26 -125.5v-508h-37v504q0 99 50 183t133.5 133t183.5 50
q113 0 205 -61.5t131 -155.5zM911 0h-18l-217 530q-11 31 -34 49.5t-54 18.5q-34 -1 -60 -28t-26 -62v-508h-19v510q0 41 30.5 71.5t74.5 32.5q76 0 104 -73z" />
    <glyph glyph-name="l" unicode="l" horiz-adv-x="1098" 
d="M1022 408h-535v1155h19v-1135h516v-20zM1022 344h-602v1219h20v-1198h582v-21zM1022 276h-668v1287h27v-1258h641v-29zM1022 150h-799v1413h39v-1377l758 2zM1022 80h-866v1483h47v-1438h817zM1020 0h-946v1563h55v-1508h891v-55zM1022 215h-729v1348h29v-1315h700v-33z
" />
    <glyph glyph-name="m" unicode="m" horiz-adv-x="1778" 
d="M1303 0h-21l-84 471l-324 -504l-309 475l-80 -442h-18l88 492l319 -492l330 518zM1239 692l127 -692h-23l-114 635l-357 -551l-342 526l-104 -610h-20l112 672l354 -551zM1274 868l160 -868h-25l-147 795l-388 -600l-374 579l-138 -774h-26l149 854l389 -610zM1307 1036
l192 -1036h-26l-179 958l-420 -653l-409 635l-166 -940h-31l183 1024l421 -659zM1341 1208l224 -1208h-35l-207 1110l-449 -696l-440 688l-194 -1102h-35l209 1198l460 -717zM1378 1393l258 -1393h-45l-237 1276l-480 -746l-475 742l-223 -1272h-43l240 1389l501 -775z
M1423 1608l295 -1608h-57l-268 1460l-519 -803l-509 795l-256 -1452h-58l283 1599l540 -837z" />
    <glyph glyph-name="n" unicode="n" horiz-adv-x="1409" 
d="M498 670v-670h-19v705l836 -717v1568h18v-1605zM434 807v-807h-22v852l835 -721v1425h23v-1468zM373 928v-928h-27v991l836 -712v1277h26v-1339zM315 1063v-1063h-30v1124l835 -710v1142h31v-1208zM256 1190v-1190h-39v1270l836 -711v997h37v-1075zM195 1321v-1321h-48
v1419l836 -708v845h47v-944zM123 1470v-1470h-55v1591l835 -708v673h55v-792z" />
    <glyph glyph-name="o" unicode="o" horiz-adv-x="1769" 
d="M61 778q1 166 63.5 313t175 259.5t259.5 176t313 64.5q171 0 321.5 -62.5t264.5 -174t179.5 -259t66.5 -311.5q0 -163 -63 -315t-174.5 -265.5t-259.5 -179.5t-314 -67q-222 0 -413.5 110.5t-305 300.5t-113.5 410zM471 778q1 110 55 202.5t147 148.5t201 57
q112 0 208.5 -55t152.5 -147.5t57 -203.5q0 -110 -54 -205.5t-147.5 -152t-203.5 -57.5q-82 0 -157 32t-135 91t-92 133t-32 157zM887 383q107 1 196 55t141 145t52 197q0 78 -32.5 151.5t-86.5 125t-127 82t-153 30.5q-104 -1 -194 -54.5t-142 -142.5t-52 -194
q0 -108 54 -198.5t145.5 -143.5t198.5 -53zM406 776q0 127 63.5 235.5t171.5 172.5t233 65q129 0 240.5 -62.5t177 -170.5t66.5 -236q0 -128 -59.5 -237t-167.5 -173.5t-244 -68.5q-130 0 -241.5 65t-175.5 173.5t-64 236.5zM889 203q126 6 231 53t180 125.5t115.5 180.5
t40.5 220q-1 151 -80 282t-212.5 206.5t-289.5 75.5q-153 0 -283 -76.5t-206.5 -207t-77.5 -284.5q0 -151 77 -285t210 -212t295 -78zM889 10q205 1 380.5 106.5t277.5 281.5t102 380q0 153 -61.5 293t-169 244t-249.5 162.5t-297 58.5q-204 -1 -379 -104t-277 -277.5
t-103 -378.5q0 -207 105.5 -383.5t284.5 -279.5t386 -103zM889 143q175 4 319 91t226 232t82 316q0 128 -52 243t-139.5 199.5t-204 133.5t-246.5 49q-128 -1 -242 -51t-200.5 -136.5t-135.5 -200.5t-50 -241q0 -170 85.5 -316.5t233.5 -232.5t324 -86zM891 82
q139 1 265 56.5t221.5 153t148.5 223.5t53 267q-1 139 -57.5 266t-153.5 221t-225 147.5t-269 53.5q-139 -1 -265.5 -56t-220.5 -149t-148 -219t-56 -268q0 -187 95 -347.5t258.5 -254.5t353.5 -94zM143 778q1 198 99.5 366t266.5 266.5t365 98.5q149 0 286.5 -57
t239.5 -155.5t161.5 -232.5t60.5 -282q0 -197 -98 -367.5t-267 -272.5t-366 -103q-151 0 -287.5 58t-240.5 161t-162 237.5t-58 282.5zM279 776q0 121 45.5 229t128 192.5t192.5 130.5t229 46q122 0 233.5 -44.5t197 -126t133 -189.5t47.5 -232q0 -165 -77 -302.5
t-213 -219.5t-306 -88q-164 0 -305 81.5t-223 221.5t-82 301zM213 778q0 177 89.5 329t242.5 241t329 92q135 0 257.5 -50t217.5 -141t148.5 -211.5t54.5 -255.5q0 -136 -48 -258t-137.5 -214.5t-211.5 -145t-264 -55.5q-136 0 -259 52t-218 145t-148 214t-53 258zM340 778
q1 110 43 207t117 172.5t170.5 117t203.5 42.5q111 0 211.5 -41.5t176 -115.5t118.5 -173t43 -207q0 -146 -67.5 -269.5t-190 -197t-276.5 -77.5q-149 0 -275.5 73.5t-200 198.5t-73.5 270zM889 258q112 3 205.5 44.5t161.5 114.5t104.5 164.5t36.5 196.5q-1 141 -72 258
t-191.5 185.5t-259.5 68.5q-103 -1 -195.5 -41t-163 -110.5t-109.5 -162t-41 -198.5q0 -140 71 -260t191.5 -190t261.5 -70zM889 322q99 4 181.5 40.5t142.5 98.5t92 142t32 175q0 90 -36.5 173.5t-100.5 146.5t-148 98t-175 35q-92 -2 -172.5 -37t-143.5 -99t-98 -146
t-35 -171q0 -121 61 -226.5t167 -167.5t233 -62z" />
    <glyph glyph-name="p" unicode="p" horiz-adv-x="1180" 
d="M504 1096q0 -46 26 -74.5t64 -28.5q39 0 66.5 27.5t27.5 66.5q-1 35 -27.5 59.5t-62.5 24.5t-63 -20.5t-31 -54.5zM588 618q116 0 223 59t175 163t69 227q0 88 -32.5 171.5t-94 152t-146 108.5t-178.5 41q-96 0 -183.5 -35.5t-152.5 -98t-102 -146.5t-37 -177v-1083h-55
v1085q0 138 72 256.5t193.5 187t262.5 68.5q139 -3 256.5 -75.5t184.5 -194.5t67 -264q0 -101 -41.5 -192t-113.5 -158.5t-167.5 -107t-199.5 -42.5q-36 0 -86 6v-569h-17l-2 1087q0 44 35 73.5t80 29.5q43 0 74.5 -28.5t32.5 -71.5q0 -47 -27 -77t-80 -38q-32 0 -57.5 15.5
t-36.5 29.5v-62q10 -7 37.5 -17.5t48.5 -10.5q63 0 109 47t46 110q-1 61 -43.5 103.5t-103.5 44.5q-65 0 -112.5 -43.5t-47.5 -104.5l2 -1087h-22v1083q0 46 24 86t65 63t89 23q69 0 119.5 -50.5t50.5 -121.5q0 -47 -24.5 -87.5t-66 -64.5t-87.5 -24q-45 3 -84 27v-43
q37 -20 86 -23q56 0 106 30t78.5 80t28.5 105q0 85 -59.5 147t-145.5 64q-57 0 -108.5 -28t-81 -74t-29.5 -105v-1087h-31v1083q0 67 33.5 121t90 85.5t124.5 31.5q62 -1 116 -33t86 -86t33 -117q0 -64 -32 -120t-88 -89.5t-125 -33.5q-39 3 -78 16v-35q41 -14 82 -14
q74 0 137 37.5t101 100t38 132.5q0 47 -22 99t-57.5 91t-84.5 63t-104 24q-53 0 -103.5 -21t-88.5 -59.5t-59 -88.5t-21 -104v-1083h-35v1083q0 82 42 152t113 110.5t152 40.5q80 -1 147 -45t107 -113.5t43 -144.5q0 -84 -41 -154.5t-111.5 -111.5t-150.5 -41q-45 3 -88 17
v-29q41 -13 82 -16q90 0 168 47t125 123.5t47 156.5q-3 85 -47.5 163.5t-118.5 126t-162 48.5q-91 0 -169 -44.5t-124.5 -119.5t-46.5 -166v-1083h-33v1081q0 98 50 182.5t136 134.5t187 50q94 -5 175.5 -51.5t131.5 -131t53 -194.5q0 -86 -49 -168.5t-134.5 -134
t-188.5 -51.5q-61 4 -82 8v-25q35 -9 80 -12q79 0 152 30.5t127 82t87 124.5t33 150q0 106 -52.5 196t-141.5 144.5t-191 57.5q-81 0 -153 -30t-127.5 -84.5t-86 -125.5t-30.5 -150v-1083h-47v1083q0 117 59 216t162.5 158t226.5 59q127 -6 224 -69t149 -162.5t55 -207.5
q0 -118 -62.5 -217.5t-165.5 -158t-216 -58.5q-61 4 -82 8v-22q61 -11 84 -11z" />
    <glyph glyph-name="q" unicode="q" horiz-adv-x="1778" 
d="M881 387q106 1 195 55.5t141.5 146t52.5 197.5q-2 108 -56 197t-145.5 141t-196.5 52q-105 -1 -195 -54.5t-142.5 -143t-53.5 -194.5q0 -82 30.5 -153t87.5 -126.5t129 -86.5t153 -31zM1315 657q16 64 16 127q-1 122 -64 226.5t-168.5 165.5t-228.5 61q-92 -2 -172.5 -37
t-143.5 -99t-97.5 -146.5t-34.5 -170.5q0 -122 61 -227t166.5 -167t231.5 -62q175 7 272.5 90t138.5 176l377 -367l-16 -16l-355 344q-22 -42 -68 -95.5t-135 -101t-214 -51.5q-97 0 -185 36.5t-155 103t-104.5 153.5t-37.5 182q1 128 64.5 236t172 172t234.5 65
q126 0 235.5 -62.5t175.5 -171t69 -235.5q0 -85 -17 -145l31 -33q27 89 27 176q-3 138 -73.5 256t-190 187t-259.5 69q-103 -1 -195.5 -41t-162.5 -110t-110 -162t-42 -199q0 -140 71 -260t192.5 -190t261.5 -70q114 0 204.5 45t142.5 95.5t79 89.5l317 -310l-18 -20
l-299 291q-28 -37 -79.5 -83.5t-140.5 -87.5t-208 -42q-145 0 -272 73.5t-201 199t-74 269.5q1 110 42 205.5t117 172.5t172 118.5t205 42.5q109 0 208.5 -42t173.5 -114.5t118 -172.5t47 -208q0 -63 -7 -105t-24 -89l27 -27q22 56 29.5 102.5t7.5 120.5q-3 117 -49 220.5
t-125.5 180.5t-183.5 120t-224 43q-153 0 -283 -76.5t-206.5 -207t-77.5 -284.5q0 -154 77.5 -286.5t211.5 -210.5t293 -78q134 3 239 48.5t193 145.5l268 -262l-18 -18l-248 239q-175 -181 -434 -184q-163 0 -304 81.5t-224 221.5t-83 301q1 122 46.5 229.5t128 192
t192.5 130.5t229 46q122 0 233.5 -44.5t196 -125.5t132.5 -189t49 -233q0 -77 -9.5 -129.5t-35.5 -115.5l22 -25q31 69 42 126.5t11 143.5q-4 171 -91.5 314t-233 226t-316.5 83q-169 -1 -314 -86t-229.5 -228.5t-84.5 -312.5q0 -171 86 -317t234.5 -231.5t322.5 -85.5
q131 1 235 44t195 128l229 -222l-26 -26l-203 196q-100 -82 -196 -116t-234 -39q-140 0 -263 52.5t-216.5 146t-145 216.5t-51.5 254q1 134 52.5 254t142.5 211t212.5 143.5t253.5 53.5q135 0 257 -50t215.5 -141t148 -212t57.5 -255q0 -90 -13 -155.5t-46 -138.5l16 -19
q26 55 41 104t21 99t6 110q-1 140 -57 265.5t-152.5 220.5t-224 148t-269.5 53q-139 0 -265 -54.5t-220.5 -149t-148.5 -219.5t-56 -268q0 -142 56 -269.5t155.5 -225t228 -150.5t267.5 -53q234 0 428 152l186 -181l-33 -32l-157 155q-90 -65 -196 -100.5t-228 -36.5
q-199 0 -372.5 100.5t-274.5 271t-101 369.5q1 151 58.5 284.5t156.5 233t232.5 157t283.5 57.5q149 0 284.5 -56t237.5 -155.5t161.5 -233.5t62.5 -283q0 -104 -15.5 -180t-60.5 -166l21 -16q46 93 64.5 172t18.5 186q-1 155 -63.5 294.5t-169 243.5t-247.5 162t-296 58
q-204 -1 -379.5 -104.5t-278 -277.5t-102.5 -378q0 -207 105.5 -383.5t285 -279.5t386.5 -103q231 3 424 134l143 -144l-39 -39l-108 113q-99 -59 -196.5 -88t-219.5 -29q-224 0 -415 110.5t-304 300.5t-113 410q1 166 64.5 313.5t175.5 259.5t259 175.5t312 64.5
q168 0 317.5 -61.5t264.5 -173t181 -260t69 -314.5q0 -121 -21 -209t-78 -196l111 -113l-10 -12l-426 414q-27 -91 -85.5 -157.5t-137 -102.5t-170.5 -41q-113 0 -208.5 56.5t-150.5 152t-55 204.5q0 108 54 202t146.5 149.5t200.5 56.5q84 0 159 -30.5t133 -85.5t91.5 -129
t36.5 -159q0 -63 -6 -100z" />
    <glyph glyph-name="r" unicode="r" horiz-adv-x="1188" 
d="M500 1094q0 -45 26.5 -74t63.5 -29q39 0 65.5 27.5t26.5 66.5q0 22 -12.5 42.5t-31.5 31t-44 12.5q-36 0 -63 -21t-31 -56zM1055 1130q-12 110 -75.5 205t-163.5 151.5t-216 57.5q-130 0 -239.5 -62.5t-173.5 -168t-64 -232.5v-1081h-55v1083q0 139 72.5 257t194.5 186.5
t263 68.5q141 -1 259 -71t185.5 -191.5t67.5 -269.5q-2 -90 -23.5 -153t-74.5 -138q49 -57 73 -127q25 -67 25 -141v-504h-18v481q0 64 -17.5 127t-53 120.5t-87.5 105.5q-68 64 -132.5 92t-124.5 35.5t-114 13.5q-21 4 -41 23t-22 20v-57q5 -4 14.5 -11t22.5 -12.5t32 -5.5
q51 0 112.5 -13.5t124.5 -44.5t109 -75q68 -65 104 -148.5t36 -154.5v-496h-25v506q0 70 -32 139.5t-95 132.5q-64 68 -156 99.5t-180 31.5q-22 0 -33 4t-19.5 11.5t-14.5 9.5v-45q23 -9 57 -17q13 -2 36.5 -2t27.5 -2q36 -1 82.5 -15.5t92.5 -40.5t81 -62q61 -61 87.5 -124
t26.5 -149v-477h-28v483q0 78 -26.5 138.5t-84.5 115.5q-55 53 -109 75t-133 28q-2 2 -24.5 3t-30.5 3q-10 1 -18 2.5t-15.5 3t-19.5 4.5v-33q30 -10 49 -12q12 -2 35 -2t28 -2q67 -4 117 -26t96 -66q60 -55 83.5 -117t23.5 -145v-453h-37v471q0 131 -86 217
q-44 45 -91 64.5t-116 25.5q-15 0 -51 4q-20 2 -53 11v-29l100 -12q62 -6 105 -24t83 -58q86 -80 86 -197v-473h-38v469q0 108 -78 180q-62 57 -162 66l-96 8v-25l90 -8q52 -3 85 -15t62 -40q74 -64 74 -172v-463h-45v471q0 77 -55 129q-42 40 -115 43l-96 6v-20l94 -8
q61 -4 98 -39q51 -43 51 -113v-469h-59v465q0 41 -29 70q-28 28 -67 28l-90 4v-567h-19l2 1085q0 49 32 78t79 29q37 0 64.5 -19t39.5 -53q6 -18 6 -37q0 -68 -59 -98l66 -8q39 46 39 94q0 22 -11 55q-35 106 -145 109q-64 0 -111 -44t-47 -106v-1085h-22v1081q0 72 53 123
t125 51q60 0 106 -33.5t64 -91.5q10 -33 10 -57q0 -53 -37 -102l37 -13q36 62 39 117q0 24 -6 51q-16 76 -75 123t-136 47q-89 0 -154 -62.5t-65 -148.5v-1085h-25v1081q0 65 33.5 120.5t90.5 87.5t120 32q87 0 152 -52.5t83 -138.5q9 -45 9 -59q0 -57 -41 -125l32 -12
q41 64 41 133q0 30 -6 63q-12 66 -50 117t-96 80t-122 29q-73 0 -138.5 -37t-103 -100t-37.5 -138v-1081h-30v1081q0 80 41.5 150.5t113.5 111.5t152 41q77 0 139.5 -32t104.5 -88t57 -131q4 -25 4 -66q0 -77 -41 -149l23 -13q48 84 51 164q0 29 -6 64q-8 54 -38 106.5
t-73 90.5t-100.5 60.5t-118.5 22.5q-68 0 -130.5 -26t-108.5 -70t-73.5 -106t-27.5 -130v-1081h-35v1083q0 99 51.5 183t138.5 133t187 49q69 0 130.5 -25.5t111 -69.5t80.5 -99t38 -109q5 -27 5 -76q-5 -105 -56 -186l23 -17q63 100 63 199q0 33 -6 74q-15 96 -69.5 172.5
t-137.5 119t-182 42.5q-106 0 -199 -52.5t-147.5 -143t-54.5 -196.5v-1081h-45v1081q0 89 35.5 169.5t98 140.5t143.5 93.5t171 33.5q82 0 158.5 -31t135.5 -85.5t96 -125.5t44 -150q4 -40 4 -59q0 -61 -18.5 -117.5t-56.5 -113.5l16 -15q82 125 82 246q0 19 -4 63z" />
    <glyph glyph-name="s" unicode="s" horiz-adv-x="1163" 
d="M571 86q81 0 153 31t125.5 83.5t84.5 124.5t31 148q0 78 -25 145.5t-71.5 121t-111.5 87.5t-139 41l-45 4q-91 11 -151.5 66.5t-63.5 138.5q0 90 62.5 156t150.5 67q77 0 138.5 -49t74.5 -121q2 -18 2 -47h-41q-3 22 -8 41q-17 62 -61 99t-107 37q-70 -1 -119 -53
t-49 -122q0 -68 48.5 -114.5t117.5 -52.5l56 -5q109 -9 198 -69t138 -157.5t49 -207.5q0 -87 -34 -168t-93 -140.5t-138 -95t-168 -36.5q-78 0 -154.5 28t-138 80t-99 122t-46.5 147q-2 22 -2 59h45v-59q15 -134 129.5 -232t261.5 -98zM578 12q125 0 230 63.5t166.5 172
t61.5 231.5q0 84 -30.5 163.5t-86 142.5t-131 102.5t-163.5 48.5l-47 4q-61 6 -106 43.5t-46 95.5q0 62 42 107t103 45q52 0 94 -34.5t50 -78.5q2 -12 2 -35h-55q0 23 -3 33q-9 29 -32.5 45.5t-53.5 16.5q-36 0 -64 -25.5t-28 -62.5q0 -36 28 -63t64 -30l58 -6
q95 -7 180 -51.5t147 -114.5t98.5 -161.5t37.5 -182.5q0 -144 -70.5 -264t-188 -189t-257.5 -71q-134 0 -249 61.5t-186.5 169t-83.5 240.5q-2 18 -2 47h54q0 -41 4 -67q14 -113 81.5 -203.5t170 -141.5t211.5 -51zM575 330q61 1 104.5 45.5t43.5 105.5q0 59 -40.5 101
t-100.5 47l-37 2q-91 6 -168.5 42.5t-137.5 99.5t-93 144.5t-33 169.5q0 122 63 226t169.5 164.5t232.5 60.5q86 0 162.5 -29.5t135.5 -83.5t97.5 -126.5t50.5 -159.5q4 -42 4 -56h-22q0 19 -5 54q-15 108 -74 194.5t-151 136t-201 50.5q-85 0 -164.5 -32t-141.5 -91.5
t-96.5 -136t-35.5 -164.5q0 -116 54 -212t148 -155.5t208 -71.5l47 -6q66 -6 110 -55.5t44 -116.5q0 -71 -51 -121t-122 -51q-62 0 -110.5 36t-61.5 99q-4 26 -4 35h23q0 -26 10 -51q37 -94 143 -94zM575 266q60 2 107.5 30t75.5 76.5t28 106.5q0 55 -24 100t-66 73.5
t-96 33.5l-65 8q-103 12 -186 67t-130 141t-47 188q1 105 56.5 195.5t149 143t200.5 52.5q153 -3 261 -102.5t126 -248.5q2 -18 2 -47h-27q0 35 -2 56q-12 86 -62.5 156.5t-128 112t-169.5 42.5q-100 0 -185.5 -47.5t-137 -130t-52.5 -180.5q0 -95 43.5 -178t120.5 -134.5
t172 -58.5l57 -4q61 -6 111 -39.5t78 -86t28 -114.5q0 -97 -71 -168t-169 -71q-51 0 -101 22.5t-86 64.5t-46 95q-4 22 -4 55h26q0 -41 7 -65q19 -64 77 -104t129 -40zM578 209q53 0 104.5 21.5t89 59t58 87t20.5 102.5q0 68 -31 126.5t-86.5 96t-126.5 46.5l-67 8
q-130 14 -214.5 106.5t-84.5 220.5q0 87 44 164.5t123 123.5t175 46q127 -6 217 -80.5t106 -195.5q4 -21 4 -58h-30q0 39 -5 64q-13 72 -56.5 126t-107 83.5t-139.5 29.5q-63 0 -117 -23t-97 -64.5t-67 -98t-24 -115.5q0 -117 78 -202.5t195 -98.5l73 -8q117 -11 192 -95.5
t75 -201.5q0 -63 -22.5 -115.5t-66.5 -96.5t-97.5 -66.5t-117.5 -24.5q-72 0 -138.5 34t-110 88t-52.5 116v61h29v-57q6 -55 47 -103t103.5 -77t124.5 -29zM571 147q66 0 126.5 26t106 71.5t71.5 105.5t26 127q0 83 -35.5 155t-99 118t-141.5 55l-86 8q-69 8 -123.5 45
t-87 96t-33.5 129q0 114 79.5 196t192.5 85q72 0 137 -34.5t105 -93t41 -122.5v-31h-37q0 27 -2 43q-13 89 -80.5 145t-159.5 56q-66 0 -121.5 -33t-87.5 -89.5t-32 -121.5q1 -61 28.5 -113t74.5 -84t104 -38l90 -10q89 -9 161 -60.5t112 -131t40 -173.5q0 -96 -48 -178.5
t-132 -132.5t-178 -51q-90 0 -173.5 40t-137 110t-60.5 153q-2 22 -2 61h37v-59q15 -111 109 -190t216 -79zM586 1581q-139 0 -258 -66.5t-188.5 -180.5t-69.5 -249q1 -130 63.5 -240.5t170.5 -179t233 -75.5l34 -4q47 -3 78.5 -32t32.5 -73q0 -43 -29.5 -75t-74.5 -35
q-38 0 -70.5 22t-38.5 56q-2 8 -2 26h18q0 -20 4 -33q9 -26 31.5 -39.5t52.5 -13.5q38 0 63.5 26.5t25.5 63.5q0 24 -11.5 44t-32 32.5t-45.5 13.5l-51 6q-100 10 -186 53t-150.5 112.5t-99.5 158.5t-35 188q0 138 71.5 256.5t193 187t262.5 68.5q134 -2 244.5 -61.5
t181 -164t83.5 -234.5q1 -14 2 -30t1 -26h-17q0 12 -4 50q-15 126 -81 227t-171 159.5t-231 61.5z" />
    <glyph glyph-name="t" unicode="t" horiz-adv-x="1262" 
d="M1188 1133h-340v-1133h-19v1149h359v-16zM1188 1194h-404v-1194h-22v1217h426v-23zM1188 1255h-465v-1255h-27v1280h492v-25zM1188 1372h-584v-1372h-37v1411h621v-39zM1188 1436h-643v-1436h-47v1481h690v-45zM1188 1313h-524v-1313h-29v1343h553v-30zM70 1139v14h346
v43h-346v21h346v38h-346v29h346v33h-346v31h346v30h-346v35h346v23h-346v51h346v18h-346v54h1118v-54h-715v-1505h-57v1139h-346z" />
    <glyph glyph-name="u" unicode="u" horiz-adv-x="1188" 
d="M496 1559v-1106q0 -29 25 -47.5t57 -20.5q37 0 65.5 23.5t28.5 58.5v1092h20v-1090q0 -43 -33.5 -73.5t-80.5 -30.5q-42 2 -72.5 30.5t-30.5 67.5v1096h21zM428 1559v-1090q0 -59 45 -102t105 -45q64 0 111.5 42.5t47.5 104.5v1090h21v-1086q0 -71 -53 -121.5t-125 -50.5
q-68 0 -120 47t-52 115v1096h20zM369 1559v-1113q0 -77 63.5 -130.5t145.5 -55.5q58 0 108.5 28t80.5 76t30 105l2 1090h24v-1086q0 -66 -33.5 -120.5t-90 -87t-121.5 -32.5q-63 2 -117 30t-86.5 76t-32.5 110v1110h27zM311 1559v-1113q0 -67 36.5 -123.5t97.5 -88
t133 -33.5q54 0 105.5 21t90.5 59t60.5 88t21.5 104v1086h31l-2 -1086q0 -82 -42 -152t-112.5 -110.5t-152.5 -40.5q-120 2 -208.5 82.5t-88.5 196.5v1110h30zM250 1559v-1113q0 -85 45 -154.5t119 -109t161 -41.5q91 0 170.5 45t126 121.5t46.5 165.5v1086h34v-1084
q0 -100 -52 -185t-138 -134.5t-187 -49.5q-94 1 -178 45.5t-134 120.5t-50 168v1119h37zM190 1559v-1104q0 -99 52.5 -185t141.5 -136.5t191 -51.5q107 0 198.5 52t146.5 142.5t55 196.5v1086h47v-1086q0 -89 -34.5 -167t-98 -139t-145 -94.5t-171.5 -33.5q-113 1 -213 58.5
t-158.5 154t-58.5 209.5v1098h47zM119 1559v-1108q0 -90 36 -170t99 -139.5t145 -94t172 -37.5q131 0 240 63t172.5 169t63.5 231v1086h55v-1088q0 -138 -72.5 -256.5t-194 -187t-262.5 -68.5q-135 3 -253 68.5t-187.5 177.5t-69.5 244v1110h56z" />
    <glyph glyph-name="v" unicode="v" horiz-adv-x="1532" 
d="M770 958l-274 601h18l256 -558l254 558h20zM770 637l-420 922h27l393 -850l389 850h27zM772 487l-491 1072h30l459 -996l459 996h31zM772 328l-561 1231h35l524 -1139l520 1139h39zM772 160l-641 1399h43l598 -1293l588 1293h47zM772 -31l-727 1590h59l668 -1457
l662 1457h59zM770 801l-348 758h22l326 -705l322 705h22z" />
    <glyph glyph-name="w" unicode="w" horiz-adv-x="1819" 
d="M1214 1051l-296 524l-297 -533l-150 517h21l135 -476l288 523l297 -510l121 463h19zM918 1438l-316 -570l-196 691h22l180 -629l310 555l317 -555l164 629h22l-182 -685zM918 1300l-334 -602l-248 861h26l232 -789l324 592l337 -586l209 783h27l-227 -859zM922 1174
l-359 -648l-293 1033h31l272 -953l345 629l358 -621l252 945h28l-272 -1027zM922 1040l-379 -680l-338 1199h35l315 -1108l363 663l376 -653l295 1098h35l-319 -1199zM922 893l-400 -723l-391 1389h43l358 -1272l390 704l391 -692l340 1260h45l-365 -1379zM922 731
l-424 -764l-449 1592h57l408 -1453l408 740l419 -727l381 1440h58l-422 -1592z" />
    <glyph glyph-name="x" unicode="x" horiz-adv-x="1597" 
d="M1214 1559l-454 -742l497 -817h-40l-500 815l454 744h43zM1280 1559l-449 -746l494 -813h-37l-495 815l456 744h31zM1352 1559l-453 -744l498 -815h-31l-500 813l457 746h29zM1425 1559l-454 -744l497 -815h-24l-500 815l459 744h22zM1497 1559l-453 -744l496 -815h-20
l-498 815l459 744h16zM1141 1559l-453 -744l496 -815h-54l-495 815l455 744h51zM573 758l-464 -758h-64l496 815l-463 744h63l432 -687l13 19l-414 668h49l391 -621l15 20l-373 601h45l350 -564l17 25l-332 539h31l317 -508l20 32l-296 476h32l281 -451l22 39l-258 412h29
l244 -394l26 45l-219 349h21l207 -334l204 334h64l-451 -742l496 -817h-66l-245 401l-244 -401h-19l250 422l-24 39l-281 -461h-24l288 483l-18 33l-315 -516h-35l331 545l-18 33l-350 -578h-37l367 604l-15 29l-383 -633h-43l404 670l-13 24l-421 -694h-54l447 737z" />
    <glyph glyph-name="y" unicode="y" horiz-adv-x="1368" 
d="M907 756v-756h-20v735q0 42 -8 86q-10 59 -33 107l-330 631h21l151 -289l152 289h63l-180 -355l12 -22l195 377h49l-217 -426l12 -29l238 455h39l-254 -494l12 -31l274 525h33l-287 -555l19 -37l307 592h27l-318 -629l17 -41l350 670h24l-362 -695l12 -76l395 771h25z
M590 799q6 -11 10 -41q2 -17 2 -45v-713h-45v713q0 22 -2 37q0 20 -8 36l-404 773h50zM520 786q10 -23 12 -38v-43v-705h-55v745l-426 814h62zM801 918q31 -62 39 -119q2 -29 2 -72v-727h-21v748q0 32 -6 67q-7 40 -22 68l-353 676h27zM754 872q16 -33 24 -84q2 -28 2 -75
v-713h-26v705q0 51 -2 81q-7 38 -17 60l-368 713h30zM700 846q11 -24 21 -64q4 -26 4 -69v-713h-33v705q0 47 -4 73q-6 35 -16 53l-377 728h33zM647 823q9 -17 15 -55q2 -14 2 -63v-705h-39v709q0 18 -2 53q0 29 -17 59l-385 738h41z" />
    <glyph glyph-name="z" unicode="z" horiz-adv-x="1327" 
d="M717 426h549v-16h-580l518 1132h-1071v17h1100zM614 362h650v-20h-684l522 1135h-967v22h1000zM522 305l742 -2v-27l-789 3l522 1130h-862v27h905zM428 246h836v-31l-885 2l520 1133h-764v28h807zM334 184h930v-37h-988l523 1135h-664v39h715zM242 123h1022v-45h-1096
l516 1136h-549v46h621zM129 53h1135v-53h-1221l518 1135h-426v55h512z" />
    <glyph glyph-name="asciitilde" unicode="~" horiz-adv-x="1081" 
d="M111 1948l231 75l365 -84l262 91v-33l-262 -92l-365 84l-231 -74v33zM111 1886l231 76l365 -84l262 90v-26l-262 -91l-369 88l-227 -79v26zM111 1831l227 76l369 -86l262 92v-23l-264 -92l-367 88l-227 -80v25zM111 1772l227 79l369 -90l262 92v-20l-262 -92l-369 84
l-227 -76v23zM111 1712l231 76l369 -84l258 90v-16l-262 -92l-369 86l-227 -76v16zM111 2081l237 80l359 -88l262 92v-49l-262 -93l-359 84l-237 -75v49zM111 2009l235 76l361 -82l262 90v-43l-262 -92l-365 86l-231 -76v41z" />
    <glyph glyph-name="percent" horiz-adv-x="1741" 
d="M252 0l854 1563h39l-856 -1563h-37zM168 0l858 1563h47l-854 -1563h-51zM633 1016l33 61q0 32 -13.5 58t-35.5 40.5t-50 14.5q-39 -2 -64.5 -30t-25.5 -66q0 -41 32 -68t71 -27q32 0 53 17zM412 618l18 35q-133 42 -227 164.5t-94 276.5q0 124 63.5 228t170 165t232.5 61
q89 -1 153.5 -25.5t133.5 -82.5l23 43q-67 54 -143 82.5t-173 29.5q-101 0 -192 -38.5t-162.5 -108t-111.5 -162.5t-40 -192q0 -112 43 -208.5t122 -166t184 -101.5zM578 920l14 26q-67 0 -118.5 45t-51.5 105q1 59 45 100t106 41q46 0 80.5 -21.5t53.5 -60.5l14 27
q-52 86 -148 86q-72 0 -123 -48.5t-53 -121.5q0 -73 50.5 -125.5t130.5 -52.5zM539 850l14 27q-86 5 -143.5 69t-57.5 150q1 57 31 105t78.5 76t107.5 30q115 0 176 -84l15 30q-27 31 -81.5 56.5t-109.5 25.5q-65 -1 -121 -32.5t-89 -85.5t-35 -121q0 -63 30.5 -117
t79.5 -88.5t105 -40.5zM492 766q-113 26 -187 118.5t-74 213.5q1 91 47 167t123 120.5t168 44.5q74 0 128.5 -23t107.5 -74l18 33q-107 96 -254 96q-101 0 -187 -49.5t-137.5 -134t-51.5 -184.5q0 -85 37.5 -161t103.5 -128.5t141 -69.5zM895 1499l43 64h59l-862 -1563h-57
l325 600q-98 31 -180 104t-129 174t-47 218q1 106 42.5 199t113.5 164t168 111t198 40q180 0 326 -111zM440 676l23 35q-80 21 -147.5 76t-106.5 135.5t-39 171.5q0 107 54 197.5t147 144t198 53.5q80 0 150.5 -28.5t118.5 -71.5l18 32q-62 53 -127.5 79.5t-150.5 27.5
q-121 0 -224.5 -58.5t-164 -158.5t-60.5 -217q0 -150 86 -263t225 -155zM510 791l8 26q-99 18 -164 97.5t-65 183.5q2 75 41 136t103.5 96.5t139.5 35.5q121 0 201 -86l14 27q-47 49 -97 70.5t-118 21.5q-80 0 -153 -40t-116 -108.5t-44 -152.5q0 -74 32.5 -140.5
t88.5 -109.5t129 -57zM670 324l-172 -324h-25l189 350l-15 60l-223 -410h-29l250 463l2 74l-293 -539l-32 2l350 637q16 49 43 94q20 40 51 80l416 752h32l-370 -670l61 39l346 631h29l-336 -609l60 25l323 584h25l-324 -580l64 16l315 564h18l-315 -564h55q107 0 202 -40.5
t165.5 -109.5t112 -164.5t41.5 -199.5q0 -140 -68.5 -260t-189 -190t-269.5 -70t-273 82.5t-184 200.5l-137 -248h-18l145 272zM668 545q-4 -23 -4 -68q0 -134 68 -246.5t183 -180t246 -68.5q100 0 194 37.5t165 105.5t111 158.5t40 197.5q0 134 -69.5 249.5t-186.5 183.5
t-250 69q-126 0 -233.5 -57.5t-176.5 -158.5t-87 -222zM711 485q1 122 63.5 228t168.5 167.5t228 61.5t227.5 -62t167.5 -169t62 -228q0 -123 -62.5 -229t-168.5 -168.5t-228 -62.5q-125 2 -230 63t-166.5 167.5t-61.5 231.5zM729 487q0 -118 59.5 -220t160.5 -162t220 -60
t219 60t159 161.5t59 218.5q-2 120 -62 219t-162.5 157.5t-222.5 58.5q-85 -1 -164 -35t-138.5 -93.5t-93 -137.5t-34.5 -167zM768 485q1 106 55 196.5t144 143t198 54.5q109 0 202 -54.5t147.5 -147t54.5 -200.5q0 -81 -31 -152t-86 -125.5t-127 -85.5t-154 -32
q-108 0 -201 54.5t-147.5 147.5t-54.5 201zM797 492q0 -107 50 -194t135.5 -135t186.5 -48q76 0 142 28t118 80t79.5 117.5t27.5 140.5q0 98 -51 184.5t-138 136.5t-186 50q-97 -1 -179.5 -50t-132 -131.5t-52.5 -178.5zM831 481q0 90 46 168t124.5 124t169.5 46
q71 0 131.5 -26.5t105.5 -71.5t71 -106.5t26 -131.5q0 -90 -45.5 -168t-123 -124t-167.5 -46q-91 0 -168.5 45t-123.5 123t-46 168zM860 487q0 -92 41.5 -162t113.5 -108.5t154 -38.5q80 0 151 42t112 113t41 154q0 63 -23.5 118t-64.5 96t-97 65.5t-117 24.5
q-82 0 -153 -41t-114 -112t-44 -151zM891 481q0 76 38 140.5t103 101.5t139 37q74 -1 137.5 -39t100.5 -100t39 -138q0 -75 -37.5 -139t-102.5 -101.5t-139 -37.5t-137 35t-100.5 98t-40.5 143zM924 485q0 -68 33 -124.5t89 -87.5t123 -31q65 0 120 33t87.5 89t32.5 121
q0 64 -33 119.5t-90 88t-121 32.5t-120 -32.5t-88.5 -88t-32.5 -119.5zM946 481q0 58 29 108.5t79.5 80.5t108.5 30t107.5 -27.5t80 -75t33.5 -105.5q0 -62 -28.5 -113.5t-79 -82t-107.5 -30.5q-90 0 -156.5 63t-66.5 152zM989 483q0 -73 52.5 -124.5t123.5 -51.5
q76 1 125 55t49 134q-4 45 -28.5 80.5t-62.5 56t-85 20.5q-70 0 -121.5 -49.5t-52.5 -120.5zM1018 483q0 59 39.5 101t97.5 45q66 0 110.5 -39t49.5 -98q0 -70 -42 -116t-104 -46q-64 0 -107.5 45.5t-43.5 107.5zM1071 485q0 -39 28.5 -68.5t69.5 -29.5q37 2 62.5 30.5
t25.5 74.5q-4 35 -30 59t-62 24q-25 0 -46.5 -12.5t-34.5 -33t-13 -44.5z" />
  </font>
</defs>
</svg>
