<?xml version="1.0" standalone="no"?>
<!DOCTYPE svg PUBLIC "-//W3C//DTD SVG 1.1//EN" "http://www.w3.org/Graphics/SVG/1.1/DTD/svg11.dtd" >
<svg xmlns="http://www.w3.org/2000/svg" xmlns:xlink="http://www.w3.org/1999/xlink" version="1.1">
<metadata>
Created by FontForge 20161013 at Thu Jun  1 14:48:46 2000
 By ,,,
(c) Jakob Fischer / PizzaDude [distribute freely]
</metadata>
<defs>
<font id="Bubbleboy" horiz-adv-x="488" >
  <font-face 
    font-family="Bubbleboy"
    font-weight="400"
    font-stretch="normal"
    units-per-em="1000"
    panose-1="0 0 4 0 0 0 0 0 0 0"
    ascent="800"
    descent="-200"
    x-height="662"
    cap-height="803"
    bbox="-70 -197 766.31 803"
    underline-thickness="20"
    underline-position="-163"
    unicode-range="U+0020-00A3"
  />
<missing-glyph horiz-adv-x="500" 
d="M63 0v803h375v-803h-375zM125 63h250v678h-250v-678z" />
    <glyph glyph-name=".notdef" horiz-adv-x="500" 
d="M63 0v803h375v-803h-375zM125 63h250v678h-250v-678z" />
    <glyph glyph-name=".null" horiz-adv-x="0" 
 />
    <glyph glyph-name="nonmarkingreturn" horiz-adv-x="400" 
 />
    <glyph glyph-name="space" unicode=" " horiz-adv-x="400" 
 />
    <glyph glyph-name="exclam" unicode="!" horiz-adv-x="203" 
d="M142 151q0 -21 -26 -33q-21 -10 -45 -10t-45 10q-26 13 -26 34v608q0 19 27 32q22 11 44 11q21 0 44 -11q27 -13 27 -31v-610zM142 6q0 -61 -71 -61t-71 61q0 60 71 60t71 -60z" />
    <glyph glyph-name="quotedbl" unicode="&#x22;" horiz-adv-x="364" 
d="M308 736q0 -30 -21 -77t-43 -67q-4 3 -33 23q21 26 35 65q-44 6 -57 14q-23 13 -23 49q0 60 71 60t71 -67zM142 736q0 -30 -21 -77t-43 -67q-4 3 -33 23q21 26 35 65q-44 6 -57 14q-23 13 -23 49q0 60 71 60t71 -67z" />
    <glyph glyph-name="numbersign" unicode="#" horiz-adv-x="506" 
d="M457 421q0 -25 -23.5 -39.5t-49.5 -14.5q-6 0 -11 1q-11 -61 -20 -126q16 -1 47 -7q8 -4 18.5 -20.5t10.5 -25.5q0 -30 -34 -45q-28 -12 -60 -8q-8 -49 -8 -52q-14 -42 -48 -42q-51 0 -51 77q0 9 1 17h-64q-7 -49 -8 -52q-13 -42 -48 -42q-24 0 -38 23q-12 19 -12 45
q0 14 3 23q-31 9 -43 17q-19 13 -19 39q0 43 36 49q13 1 41 2q9 35 24 125q-73 11 -73 56q0 51 67 51q10 0 20 -1q9 44 17 57q12 19 39 19q51 0 51 -58q0 -9 -1 -18h63q9 43 18 57q12 19 39 19q21 0 36 -14.5t15 -35.5q0 -12 -5 -23q15 -1 41 -8q8 -4 18.5 -20t10.5 -25z
M269 367h-68q-2 -26 -17 -127h65z" />
    <glyph glyph-name="dollar" unicode="$" horiz-adv-x="370" 
d="M311 201q0 -14 -11 -71q-3 -15 -21.5 -37t-33.5 -32q-14 -4 -37 -21q-2 -13 -9 -35q-5 -10 -18.5 -19.5t-24.5 -9.5q-29 0 -41 22q-2 16 -12 41q-4 6 -16.5 12t-23.5 12q-27 17 -45 53.5t-18 69.5q0 74 52 74q34 0 43 -31q1 -5 14 -59q12 -31 47 -31q52 0 52 62
q0 58 -42 64q-20 -2 -58 3q-108 42 -108 162q0 18 4 37q7 33 7 34q2 13 23 38q18 21 32 31q14 4 37 22q3 8 9 34q2 11 17 20t27 9q9 0 22.5 -7t17.5 -15q2 -15 12 -41q1 -2 36 -21q31 -18 50 -60q17 -38 17 -66q0 -74 -52 -74q-32 0 -43 31q-7 29 -13 59q-12 31 -47 31
q-52 0 -52 -62q0 -23 1 -26q9 -30 32 -36q24 1 66 -5q108 -43 108 -162z" />
    <glyph glyph-name="percent" unicode="%" horiz-adv-x="385" 
d="M142 390q0 -61 -71 -61t-71 61q0 60 71 60t71 -60zM284 414q0 -6 -50 -110q-55 -114 -80 -157q-17 -29 -48 -29q-19 0 -36.5 15.5t-17.5 34.5q0 8 47 108q51 109 82 160q17 28 49 28q19 0 36.5 -15.5t17.5 -34.5zM336 193q0 -61 -71 -61t-71 61q0 60 71 60t71 -60z" />
    <glyph glyph-name="ampersand" unicode="&#x26;" horiz-adv-x="290" 
d="M239 91q0 -36 -29 -48q-5 -2 -25 -5q-3 -55 -54 -55q-16 0 -33.5 12.5t-17.5 27.5q0 5 1 14t1 14q0 14 -26 33q-19 12 -27 25q-29 45 -29 89q0 59 45 106q-25 34 -33 51q-12 26 -12 57q0 47 29 90q6 9 25 22.5t25 22.5q2 4 1 18q-1 16 0 23q10 39 51 39q39 0 48 -29
q3 -8 5 -25q55 -11 55 -53q0 -38 -29 -48q-71 -3 -93 -29q-13 -15 -13 -31q0 -28 37 -47q12 -2 41 -9q39 -9 39 -51q0 -35 -28 -47q-36 -6 -41 -8q-22 -6 -35 -20.5t-13 -31.5q0 -39 44 -51l55 -8q36 -9 36 -48z" />
    <glyph glyph-name="quotesingle" unicode="'" horiz-adv-x="153" 
d="M142 736q0 -30 -21 -77t-43 -67q-4 3 -33 23q21 26 35 65q-44 6 -57 14q-23 13 -23 49q0 60 71 60t71 -67z" />
    <glyph glyph-name="parenleft" unicode="(" horiz-adv-x="372" 
d="M325 -62q0 -69 -60 -69q-59 0 -120 56q-52 47 -85 116q-60 124 -60 295q0 143 65 300q26 64 79 112q59 55 121 55q60 0 60 -69q0 -64 -60 -70q-18 -2 -44 -36q-21 -27 -32 -52q-33 -73 -43 -128q-8 -43 -8 -112q0 -131 51 -239q38 -80 76 -89q9 0 28 -5q32 -13 32 -65z
" />
    <glyph glyph-name="parenright" unicode=")" horiz-adv-x="387" 
d="M325 336q0 -148 -65 -300q-27 -62 -79 -111q-60 -56 -120 -56q-61 0 -61 69q0 63 60 70q35 4 76 89q31 65 42 121q9 47 9 118q0 128 -48 233q-39 86 -79 95q-17 4 -39 13q-21 15 -21 57q0 69 61 69q60 0 122 -58q52 -50 82 -113q60 -129 60 -296z" />
    <glyph glyph-name="asterisk" unicode="*" horiz-adv-x="201" 
d="M142 303q0 -60 -71 -60t-71 60q0 61 71 61t71 -61z" />
    <glyph glyph-name="plus" unicode="+" horiz-adv-x="452" 
d="M398 303q0 -43 -19.5 -57t-64.5 -14q-13 0 -41 1l-8 -91q-11 -38 -66 -38q-43 0 -59 22q-13 18 -13 63q0 12 1 41l-91 8q-37 10 -37 65q0 43 21 59q18 13 63 13q13 0 41 -1l8 91q10 37 66 37q44 0 59 -21q12 -17 12 -63q0 -13 -1 -41q46 -4 92 -7q37 -11 37 -67z" />
    <glyph glyph-name="comma" unicode="," horiz-adv-x="194" 
d="M66 -136q-8 6 -21 13q21 26 35 66q-44 6 -57 14q-23 13 -23 49q0 60 71 60t71 -67q0 -27 -18.5 -73t-37.5 -62q8 0 -8 -1q-14 -1 -15 0q0 1 3 1z" />
    <glyph glyph-name="hyphen" unicode="-" horiz-adv-x="340" 
d="M280 303q0 -73 -80 -73q-10 0 -30 1t-30 1t-30.5 -1t-30.5 -1q-79 0 -79 73q0 74 80 74q10 0 30 -1.5t30 -1.5t30.5 1.5t30.5 1.5q79 0 79 -74z" />
    <glyph glyph-name="hyphen" unicode="&#x2010;" horiz-adv-x="340" 
d="M280 303q0 -73 -80 -73q-10 0 -30 1t-30 1t-30.5 -1t-30.5 -1q-79 0 -79 73q0 74 80 74q10 0 30 -1.5t30 -1.5t30.5 1.5t30.5 1.5q79 0 79 -74z" />
    <glyph glyph-name="period" unicode="." horiz-adv-x="203" 
d="M142 6q0 -61 -71 -61t-71 61q0 60 71 60t71 -60z" />
    <glyph glyph-name="slash" unicode="/" horiz-adv-x="344" 
d="M301 670q0 -1 -16 -71q-25 -108 -44 -206q-10 -52 -24 -114q-4 -19 -14 -66q-16 -69 -43 -197q-3 -18 -9.5 -55t-17.5 -53q-15 -22 -48 -22q-32 0 -56 15q-29 18 -29 48q0 -12 39 182q55 275 121 567q3 14 21 23.5t34 9.5q30 0 56 -15q30 -18 30 -46z" />
    <glyph glyph-name="zero" unicode="0" horiz-adv-x="484" 
d="M429 137q0 -47 -33 -95q-32 -44 -75 -67q-57 -30 -106 -30q-94 0 -161 77q-54 61 -54 116v331q0 48 34 95q31 45 75 68q57 30 106 30q21 0 47 -5q58 -11 112.5 -70t54.5 -117v-333zM287 144v319q0 19 -26 38t-46 19q-22 0 -47.5 -18.5t-25.5 -39.5v-317q0 -20 26 -39
t47 -19t46.5 18.5t25.5 38.5z" />
    <glyph glyph-name="one" unicode="1" horiz-adv-x="204" 
d="M142 -12q0 -20 -27 -33q-22 -10 -44 -10q-23 0 -45 11q-26 13 -26 33v629q0 19 27 32q23 12 44 12q17 0 41 -11q30 -14 30 -32v-631z" />
    <glyph glyph-name="two" unicode="2" horiz-adv-x="474" 
d="M429 16q0 -22 -11 -44q-14 -27 -33 -27h-341q-45 0 -45 105v25q0 6 1 11v5q0 116 16 156q33 83 151 123q18 1 63 5q22 3 39.5 26t17.5 46q0 30 -21 51.5t-51 21.5q-25 0 -46.5 -17t-25.5 -41q-1 -13 -6 -35q-16 -32 -66 -32q-71 0 -71 59q0 85 64.5 146.5t150.5 61.5
q88 0 151 -63.5t63 -151.5q0 -52 -27 -103q-33 -62 -92 -90q-16 -8 -48 -17q-32 -2 -63 -6q-19 -3 -33 -17q-24 -24 -24 -38v-89h243q20 0 33 -27q11 -22 11 -44z" />
    <glyph glyph-name="three" unicode="3" horiz-adv-x="483" 
d="M429 160q0 -88 -63 -151.5t-151 -63.5q-86 0 -150.5 61.5t-64.5 146.5q0 59 71 59q18 0 38 -8q24 -9 27 -23q9 -42 9 -43q7 -22 25 -34q23 -17 45 -17q30 0 51 21.5t21 51.5q0 33 -23 54q-10 9 -32 14q-17 4 -37 9q-14 5 -23 27t-9 39q0 18 9 38.5t25 28.5q9 4 37 8
q53 14 53 69q0 30 -21 51.5t-51 21.5q-25 0 -46.5 -17t-25.5 -41q-1 -13 -6 -35q-16 -32 -66 -32q-71 0 -71 59q0 85 64.5 146.5t150.5 61.5q88 0 151 -63.5t63 -151.5q0 -82 -55 -144q55 -67 55 -143z" />
    <glyph glyph-name="four" unicode="4" horiz-adv-x="539" 
d="M481 303q0 -63 -52 -73v-242q0 -20 -27 -33q-22 -10 -44 -10q-23 0 -45 11q-26 13 -26 33v244h-233q-39 0 -50 46q-4 17 -4 62q0 140 49 292q9 29 55 29q29 0 54 -15q29 -17 29 -44q0 -2 -18 -85q-19 -88 -28 -143h146v243q0 20 26 33q22 11 45 11q17 0 41 -11
q30 -14 30 -32v-242q34 -11 45 -32q7 -13 7 -42z" />
    <glyph glyph-name="five" unicode="5" horiz-adv-x="477" 
d="M429 160q0 -88 -63 -151.5t-151 -63.5q-86 0 -150.5 61.5t-64.5 146.5q0 59 71 59q18 0 38 -8q24 -9 27 -23q9 -42 9 -43q7 -22 25 -34q23 -17 45 -17q30 0 51 21.5t21 51.5q0 22 -18 47t-39 25h-186q-16 0 -31 23q-13 19 -13 32v320q0 18 16.5 36.5t34.5 18.5h327
q24 0 39 -24q12 -21 12 -47q0 -22 -11 -44q-13 -27 -33 -27h-243v-143q17 2 35 2q102 0 174 -57q78 -62 78 -162z" />
    <glyph glyph-name="six" unicode="6" horiz-adv-x="481" 
d="M429 160q0 -88 -63 -151.5t-151 -63.5q-94 0 -161 77q-54 61 -54 116v331q0 48 34 95q31 45 75 68q57 30 106 30q86 0 150 -61.5t64 -146.5q0 -59 -71 -59q-55 0 -66 32q-6 36 -8 42q-6 21 -24 35q-23 16 -45 16q-21 0 -47 -18.5t-26 -38.5v-86q17 2 34 2q103 0 175 -57
q78 -62 78 -162zM287 160q0 21 -18 46.5t-39 25.5h-88v-87q0 -20 26 -39t47 -19q29 0 50.5 22t21.5 51z" />
    <glyph glyph-name="seven" unicode="7" horiz-adv-x="479" 
d="M429 542q0 -67 -15 -121l-58 -202q-34 -118 -51 -203q-11 -53 -26 -64q-10 -7 -47 -7q-27 0 -40 6q-24 11 -33 46l128 480v43h-243q-20 0 -33 27q-11 22 -11 44q0 26 13.5 48.5t37.5 22.5h327q39 0 49 -54q2 -11 2 -66z" />
    <glyph glyph-name="eight" unicode="8" horiz-adv-x="483" 
d="M429 160q0 -88 -63 -151.5t-151 -63.5q-89 0 -152 63t-63 152q0 78 55 143q-55 74 -55 144q0 89 63 152t152 63q88 0 151 -63.5t63 -151.5q0 -82 -55 -144q55 -67 55 -143zM287 447q0 29 -21.5 51t-50.5 22q-30 0 -51.5 -21.5t-21.5 -51.5q0 -29 22 -51t51 -22t50.5 22
t21.5 51zM287 160q0 29 -21.5 50.5t-50.5 21.5q-30 0 -51.5 -21t-21.5 -51t21.5 -51.5t51.5 -21.5q29 0 50.5 22t21.5 51z" />
    <glyph glyph-name="nine" unicode="9" horiz-adv-x="484" 
d="M429 137q0 -45 -33 -93q-31 -44 -72 -68q-54 -31 -103 -31q-58 0 -58 71q0 21 11 42q13 25 32 28q26 4 30 6q18 4 28 13q23 20 23 40v84q-17 -1 -34 -1q-103 0 -175 57q-78 62 -78 162q0 89 63 152t152 63q21 0 47 -5q58 -11 112.5 -70t54.5 -117v-333zM287 375v88
q0 19 -26 38t-46 19q-30 0 -51.5 -21.5t-21.5 -51.5q0 -22 18 -47t39 -25h88z" />
    <glyph glyph-name="colon" unicode=":" horiz-adv-x="203" 
d="M142 300q0 -61 -71 -61t-71 61t71 61t71 -61zM145 168q0 -60 -71 -60t-71 60q0 61 71 61t71 -61z" />
    <glyph glyph-name="semicolon" unicode=";" horiz-adv-x="204" 
d="M142 300q0 -61 -71 -61t-71 61t71 61t71 -61zM145 162q0 -31 -20.5 -77.5t-43.5 -66.5q-3 3 -33 22q21 26 35 65q-42 6 -57 15q-23 14 -23 48q0 61 71 61t71 -67z" />
    <glyph glyph-name="less" unicode="&#x3c;" horiz-adv-x="442" 
d="M381 184q0 -23 -24 -54.5t-47 -31.5q-13 0 -135 68q-108 60 -147 85q-7 4 -17.5 26t-10.5 30q0 9 11 30t18 25q259 154 281 154q21 0 46 -32t25 -54q0 -30 -51 -62l-78 -42l-34 -19q23 -16 96 -57q36 -20 44 -27q23 -19 23 -39z" />
    <glyph glyph-name="equal" unicode="=" horiz-adv-x="460" 
d="M398 390q0 -22 -11 -44q-13 -27 -33 -27h-310q-20 0 -33 27q-11 22 -11 44q0 27 12 47q14 24 39 24h296q25 0 39 -24q12 -20 12 -47zM398 217q0 -22 -11 -44q-13 -27 -33 -27h-310q-20 0 -33 27q-11 22 -11 44q0 27 12 47q14 24 39 24h296q25 0 39 -24q12 -20 12 -47z
" />
    <glyph glyph-name="greater" unicode="&#x3e;" horiz-adv-x="421" 
d="M381 307q0 -8 -11.5 -30t-17.5 -26q-269 -153 -281 -153q-23 0 -47 31.5t-24 54.5q0 29 67 66q28 15 96 57q-14 8 -138 79q-6 4 -15.5 20.5t-9.5 23.5q0 24 23.5 55t47.5 31q15 0 132 -67q49 -29 149 -87q9 -5 19 -24.5t10 -30.5z" />
    <glyph glyph-name="question" unicode="?" horiz-adv-x="463" 
d="M429 447q0 -48 -21 -93q-22 -50 -59 -74q-24 -16 -77.5 -34t-75.5 -32q-11 -7 -24 -63q-10 -43 -70 -43q-71 0 -71 59q0 33 22 89q9 22 42 54.5t54.5 41t63.5 17.5q74 16 74 78q0 30 -21 51.5t-51 21.5q-25 0 -46.5 -17t-25.5 -41q-1 -13 -6 -35q-16 -32 -66 -32
q-71 0 -71 59q0 85 64.5 146.5t150.5 61.5q88 0 151 -63.5t63 -151.5zM173 6q0 -61 -71 -61t-71 61q0 60 71 60t71 -60z" />
    <glyph glyph-name="at" unicode="@" horiz-adv-x="499" 
d="M443 312q0 -42 -9 -54q-16 -9 -44 -30q-27 -26 -80 -40q-41 -11 -73 -11h-17q-24 0 -54 24q-24 19 -30 32q-18 37 -18 83q0 51 22 89q28 49 83 49q54 0 84 -53q24 -43 24 -102q0 -17 -3 -32q32 9 39 38q3 11 3 59q0 -21 -9 8q-10 36 -21 72q-14 49 -24 61q-42 53 -96 53
q-65 0 -108 -69q-33 -53 -43 -117v-114q0 -3 4.5 -11.5t4.5 -12.5q4 -49 45 -102q46 -59 97 -59q35 0 65 26q14 12 44 49q21 26 33 26q14 0 23 -12t9 -26q0 -31 -48.5 -76t-80.5 -48q-41 -8 -45 -8q-116 0 -176 122q-44 89 -44 190q0 105 44 192q60 119 176 119
q113 0 176 -122q47 -91 47 -193zM263 316q0 13 -9 37q-12 32 -31 32q-18 0 -28 -27q-8 -20 -8 -42q0 -21 8 -41q10 -25 28 -25q16 0 29 26q11 22 11 40z" />
    <glyph glyph-name="A" unicode="A" horiz-adv-x="484" 
d="M429 137q0 -47 -33 -95q-32 -44 -75 -67q-57 -30 -106 -30q-89 0 -152 63t-63 152q0 102 72 162q68 56 172 56q20 0 42 -3q3 21 3 40q0 105 -74 105q-25 0 -46.5 -17t-25.5 -41q-1 -13 -6 -35q-16 -32 -66 -32q-71 0 -71 59q0 85 64.5 146.5t150.5 61.5q21 0 47 -5
q58 -11 112.5 -70t54.5 -117v-333zM287 144v88h-88q-20 0 -38.5 -25.5t-18.5 -46.5q0 -30 21.5 -51.5t51.5 -21.5q21 0 46.5 18.5t25.5 38.5z" />
    <glyph glyph-name="B" unicode="B" horiz-adv-x="482" 
d="M429 137q0 -47 -33 -95q-32 -44 -75 -67q-57 -30 -106 -30q-94 0 -161 77q-54 61 -54 116v622q0 19 27 32q22 11 44 11q18 0 41 -10q29 -13 29 -32v-114q36 15 74 15q21 0 47 -5q58 -11 112.5 -70t54.5 -117v-333zM287 144v319q0 19 -26 38t-46 19q-22 0 -47.5 -18.5
t-25.5 -39.5v-317q0 -20 26 -39t47 -19t46.5 18.5t25.5 38.5z" />
    <glyph glyph-name="C" unicode="C" horiz-adv-x="470" 
d="M429 153q0 -85 -64.5 -146.5t-149.5 -61.5q-94 0 -161 77q-54 61 -54 116v331q0 48 34 95q31 45 75 68q57 30 106 30q86 0 150 -61.5t64 -146.5q0 -59 -71 -59q-55 0 -66 32q-6 36 -8 42q-6 21 -24 35q-23 16 -45 16q-21 0 -47 -18.5t-26 -38.5v-319q0 -23 26 -41
q23 -16 47 -16q25 0 45 17t26 41q1 12 6 35q14 32 66 32q71 0 71 -59z" />
    <glyph glyph-name="D" unicode="D" horiz-adv-x="489" 
d="M429 137q0 -47 -33 -95q-32 -44 -75 -67q-57 -30 -106 -30q-94 0 -161 77q-54 61 -54 116v331q0 47 33 95q31 45 75 68q57 30 107 30q40 0 70 -14q0 18 2 105q1 50 71 50q21 0 44 -11q27 -13 27 -31v-624zM287 144v319q0 19 -26 38t-46 19q-22 0 -47.5 -18.5t-25.5 -39.5
v-317q0 -20 26 -39t47 -19t46.5 18.5t25.5 38.5z" />
    <glyph glyph-name="E" unicode="E" horiz-adv-x="480" 
d="M429 153q0 -85 -64.5 -146.5t-149.5 -61.5q-94 0 -161 77q-54 61 -54 116v331q0 47 33 95q31 45 75 68q57 30 107 30q88 0 151 -63.5t63 -151.5q0 -102 -74 -162q-69 -56 -174 -56q-19 0 -38 2q-3 -22 -3 -41q0 -103 75 -103q25 0 45 17t26 41q1 12 6 35q14 32 66 32
q71 0 71 -59zM287 447q0 29 -21.5 51t-50.5 22q-22 0 -47.5 -18.5t-25.5 -39.5v-87h88q19 0 38 26t19 46z" />
    <glyph glyph-name="F" unicode="F" horiz-adv-x="325" 
d="M336 732q0 -38 -16 -53.5t-53 -15.5h-17q-24 1 -18 1q-45 0 -66 -21q-24 -24 -24 -38v-69q15 -4 41 -4q5 0 14 1h14q40 0 58 -15t18 -55q0 -60 -44 -68q-49 -1 -98 -3l-3 -397q-6 -50 -71 -50q-23 0 -45 11q-26 13 -26 33v622q0 35 22 74q66 118 220 118q54 0 71 -10
q23 -14 23 -61z" />
    <glyph glyph-name="G" unicode="G" 
d="M429 -5q0 -47 -33 -95q-32 -44 -75 -67q-57 -30 -106 -30q-86 0 -150.5 61.5t-64.5 146.5q0 59 71 59q18 0 38 -8q24 -10 27 -23q8 -41 9 -43q7 -21 25 -34q23 -17 45 -17q21 0 46.5 19t25.5 39v85q-180 1 -242 82q-45 59 -45 206q0 99 4 118q15 72 76 120t135 48
q21 0 47 -5q58 -11 112.5 -70t54.5 -117v-475zM287 233v230q0 19 -26 38t-46 19q-75 0 -75 -103q0 -7 1 -20.5t1 -20.5v-66q3 -46 22 -59q28 -19 35 -18h88z" />
    <glyph glyph-name="H" unicode="H" 
d="M429 -12q0 -20 -27 -33q-22 -10 -44 -10t-44 11q-27 13 -27 33v473q0 22 -24.5 40t-47.5 18q-21 0 -47 -18.5t-26 -38.5v-475q0 -20 -27 -33q-22 -10 -44 -10q-23 0 -45 11q-26 13 -26 33v771q0 19 27 32q22 11 44 11q18 0 41 -10q29 -13 29 -32v-114q36 15 74 15
q21 0 47 -5q58 -11 112.5 -70t54.5 -117v-482z" />
    <glyph glyph-name="I" unicode="I" horiz-adv-x="204" 
d="M142 743q0 -61 -71 -61t-71 61q0 60 71 60t71 -60zM142 -12q0 -20 -27 -33q-22 -10 -44 -10q-23 0 -45 11q-26 13 -26 33v629q0 19 27 32q23 12 44 12q17 0 41 -11q30 -14 30 -32v-631z" />
    <glyph glyph-name="J" unicode="J" horiz-adv-x="398" 
d="M336 743q0 -61 -71 -61t-71 61q0 60 71 60t71 -60zM336 -5q0 -31 -23 -73q-65 -119 -220 -119q-51 0 -68 10q-25 15 -25 61q0 70 71 70q5 0 16 -1h16q30 0 58 14q33 18 33 46v615q0 19 27 32q23 12 44 12q17 0 41 -11q30 -14 30 -32v-624z" />
    <glyph glyph-name="K" unicode="K" 
d="M429 85q0 -10 1 -29t1 -29q0 -82 -73 -82q-22 0 -44 11q-27 13 -27 33v186q0 13 -22 35.5t-35 22.5h-88v-245q0 -20 -27 -33q-21 -10 -44 -10t-45 11q-26 13 -26 33v771q0 19 27 32q22 11 44 11q24 0 45 -11q26 -14 26 -38v-369q23 38 61 113q84 167 114 167t60.5 -22
t30.5 -51q0 -24 -117 -229q100 -59 125 -127q13 -36 13 -151z" />
    <glyph glyph-name="L" unicode="L" horiz-adv-x="366" 
d="M336 16q0 -49 -29 -63q-16 -8 -65 -8q-51 0 -75 5q-59 12 -113 70.5t-54 117.5v622q0 19 27 32q22 11 44 11q21 0 44 -11q27 -13 27 -31v-617q0 -13 24 -39q15 -16 127 -19q43 -7 43 -70z" />
    <glyph glyph-name="M" unicode="M" horiz-adv-x="775" 
d="M716 -12q0 -20 -27 -33q-22 -10 -44 -10t-44 11q-27 13 -27 33v473q0 21 -25 39.5t-47 18.5q-21 0 -47 -18.5t-26 -38.5v-475q0 -20 -27 -33q-22 -10 -44 -10t-44 11q-27 13 -27 33v473q0 22 -24.5 40t-47.5 18q-21 0 -47 -18.5t-26 -38.5v-475q0 -20 -27 -33
q-22 -10 -44 -10q-23 0 -45 11q-26 13 -26 33v480q0 48 34 95q31 45 75 68q57 30 106 30q83 0 143 -56q69 56 144 56q21 0 47 -5q58 -11 112.5 -70t54.5 -117v-482z" />
    <glyph glyph-name="N" unicode="N" 
d="M429 -12q0 -20 -27 -33q-22 -10 -44 -10t-44 11q-27 13 -27 33v473q0 22 -24.5 40t-47.5 18q-21 0 -47 -18.5t-26 -38.5v-475q0 -20 -27 -33q-22 -10 -44 -10q-23 0 -45 11q-26 13 -26 33v480q0 48 34 95q31 45 75 68q57 30 106 30q21 0 47 -5q58 -11 112.5 -70
t54.5 -117v-482z" />
    <glyph glyph-name="O" unicode="O" horiz-adv-x="484" 
d="M429 137q0 -47 -33 -95q-32 -44 -75 -67q-57 -30 -106 -30q-94 0 -161 77q-54 61 -54 116v331q0 48 34 95q31 45 75 68q57 30 106 30q21 0 47 -5q58 -11 112.5 -70t54.5 -117v-333zM287 144v319q0 19 -26 38t-46 19q-22 0 -47.5 -18.5t-25.5 -39.5v-317q0 -20 26 -39
t47 -19t46.5 18.5t25.5 38.5z" />
    <glyph glyph-name="P" unicode="P" horiz-adv-x="486" 
d="M429 137q0 -47 -33 -95q-32 -44 -75 -67q-57 -30 -106 -30q-45 0 -71 14q0 -18 -2 -105q-1 -51 -71 -51q-22 0 -44 11q-27 13 -27 33v622q0 47 33 95q31 45 75 68q57 30 107 30q21 0 47 -5q58 -11 112.5 -70t54.5 -117v-333zM287 144v319q0 19 -26 38t-46 19
q-22 0 -47.5 -18.5t-25.5 -39.5v-317q0 -20 26 -39t47 -19t46.5 18.5t25.5 38.5z" />
    <glyph glyph-name="Q" unicode="Q" 
d="M429 -154q0 -19 -27 -32q-22 -11 -44 -11q-18 0 -41 10q-29 13 -29 34v112q-35 -14 -73 -14q-94 0 -161 77q-54 61 -54 116v331q0 47 33 95q31 45 75 68q57 30 107 30q21 0 47 -5q58 -11 112.5 -70t54.5 -117v-624zM287 144v319q0 19 -26 38t-46 19q-22 0 -47.5 -18.5
t-25.5 -39.5v-317q0 -20 26 -39t47 -19t46.5 18.5t25.5 38.5z" />
    <glyph glyph-name="R" unicode="R" horiz-adv-x="367" 
d="M336 591q0 -38 -16 -54t-53 -16h-17q-23 1 -18 1q-30 0 -57 -14q-33 -17 -33 -45v-475q0 -20 -27 -33q-22 -10 -44 -10q-23 0 -45 11q-26 13 -26 33v480q0 34 22 74q65 119 220 119q53 0 71 -11q23 -14 23 -60z" />
    <glyph glyph-name="S" unicode="S" horiz-adv-x="481" 
d="M429 160q0 -88 -63 -151.5t-151 -63.5q-86 0 -150.5 61.5t-64.5 146.5q0 59 71 59q18 0 38 -8q24 -9 27 -23q9 -42 9 -43q7 -22 25 -34q23 -17 45 -17q30 0 51 21.5t21 51.5q0 26 -16.5 46.5t-41.5 24.5l-53 8q-34 6 -57 15q-52 21 -86 79q-33 55 -33 114q0 89 63 152
t152 63q86 0 150 -61.5t64 -146.5q0 -59 -71 -59q-55 0 -66 32q-6 36 -8 42q-6 21 -24 35q-23 16 -45 16q-29 0 -51 -22t-22 -51q0 -25 16.5 -46.5t40.5 -23.5l63 -7q73 -16 120 -75.5t47 -134.5z" />
    <glyph glyph-name="T" unicode="T" horiz-adv-x="372" 
d="M336 16q0 -49 -29 -63q-16 -8 -65 -8q-51 0 -75 5q-59 12 -113 70.5t-54 117.5v622q0 19 27 32q22 11 44 11q58 0 68 -44l2 -95q16 -4 43 -4q4 0 13 1h12q41 0 59.5 -14.5t18.5 -55.5q0 -60 -44 -68q-49 -1 -98 -3l-3 -369q10 -38 29.5 -51.5t60.5 -13.5h26q40 0 59 -15
t19 -55z" />
    <glyph glyph-name="U" unicode="U" horiz-adv-x="489" 
d="M429 137q0 -47 -33 -95q-32 -44 -75 -67q-57 -30 -106 -30q-94 0 -161 77q-54 61 -54 116v480q0 19 27 32q23 12 44 12q17 0 41 -11q30 -14 30 -32v-475q0 -23 26 -41q23 -16 47 -16q21 0 46.5 19t25.5 39v473q0 20 27 33q22 11 44 11q17 0 41 -11q30 -14 30 -32v-482z
" />
    <glyph glyph-name="V" unicode="V" horiz-adv-x="471" 
d="M426 615q-1 -4 -33 -146l-50 -221q-21 -95 -38 -173t-25 -94q-19 -36 -69 -36q-39 0 -58 22q-15 17 -23 59q-28 142 -79 368l-51 226q0 21 24 32q21 10 43 10q65 0 84 -76q9 -58 19 -116q9 -21 20 -79q15 -75 21 -96q25 119 77 334q4 16 28 25q19 8 39 8q19 0 42 -11
q29 -14 29 -36z" />
    <glyph glyph-name="W" unicode="W" horiz-adv-x="776" 
d="M716 137q0 -47 -33 -95q-32 -44 -75 -67q-57 -30 -106 -30q-77 0 -144 56q-66 -56 -143 -56q-94 0 -161 77q-54 61 -54 116v480q0 19 27 32q23 12 44 12q17 0 41 -11q30 -14 30 -32v-475q0 -23 26 -41q23 -16 47 -16q21 0 46.5 19t25.5 39v473q0 20 27 33q22 11 44 11
q17 0 41 -11q30 -14 30 -32v-475q0 -23 26 -41q23 -16 47 -16q21 0 46.5 18.5t25.5 39.5v473q0 20 27 33q22 11 44 11q20 0 45.5 -12.5t25.5 -30.5v-482z" />
    <glyph glyph-name="X" unicode="X" horiz-adv-x="438" 
d="M388 6q0 -25 -33 -44q-29 -17 -56 -17q-16 0 -30.5 15t-17.5 32q-2 14 -20.5 52.5t-35.5 77.5q-10 -27 -39 -79q-7 -10 -15 -39t-16 -40q-13 -19 -37 -19q-22 0 -52 16q-36 19 -36 45q0 5 46 114l75 180l-121 301q2 25 33 44q28 17 55 17q16 0 30 -15t18 -32q1 -7 20 -51
q10 -24 36 -86q9 18 32 68l26 70q21 46 49 46q26 0 55 -17q33 -20 33 -44l-121 -301q23 -58 75 -180q47 -111 47 -114z" />
    <glyph glyph-name="Y" unicode="Y" horiz-adv-x="491" 
d="M429 -5q0 -47 -33 -95q-32 -44 -75 -67q-57 -30 -106 -30q-86 0 -150.5 61.5t-64.5 146.5q0 59 71 59q18 0 38 -8q24 -10 27 -23q8 -41 9 -43q7 -21 25 -34q23 -17 45 -17t47 18.5t25 39.5v85q-39 0 -119 7q-59 11 -113.5 70t-54.5 118v335q0 19 27 32q23 12 44 12
q17 0 41 -11q30 -14 30 -32v-330q0 -11 22.5 -34t34.5 -23h88v386q0 20 26 33q22 11 45 11q17 0 41 -11q30 -14 30 -32v-624z" />
    <glyph glyph-name="Z" unicode="Z" horiz-adv-x="474" 
d="M429 16q0 -22 -11 -44q-14 -27 -33 -27h-341q-20 0 -33 27q-11 22 -11 44q0 15 94 215l134 287q-2 2 -178 2q-50 7 -50 71q0 26 13.5 48.5t37.5 22.5h327q25 0 39 -24q12 -20 12 -46q0 -15 -98 -223l-130 -280l178 -2q50 0 50 -71z" />
    <glyph glyph-name="bracketleft" unicode="[" horiz-adv-x="279" 
d="M232 -60q0 -72 -75 -72q7 0 -21 1h-20q-51 0 -68 4q-48 11 -48 50v826q0 41 47 51q14 3 69 3q67 0 77 -3q39 -12 39 -68q0 -71 -71 -71q-10 0 -21 1v-648q50 -3 67 -14q25 -15 25 -60z" />
    <glyph glyph-name="backslash" unicode="\" horiz-adv-x="345" 
d="M301 -51q0 -29 -29 -47q-25 -16 -56 -16q-50 0 -65 58l-14 89q-33 133 -88 394q-49 234 -49 243q0 29 30 46q25 15 56 15q50 0 65 -55l12 -88q34 -131 89 -395q49 -234 49 -244z" />
    <glyph glyph-name="bracketright" unicode="]" horiz-adv-x="292" 
d="M232 -78q0 -38 -50 -49q-19 -4 -66 -4h-20q-27 -1 -21 -1q-75 0 -75 72t70 72q10 0 22 -1v648q-51 3 -67 13q-25 15 -25 60q0 56 37 68q10 3 79 3q52 0 66 -3q50 -11 50 -50v-828z" />
    <glyph glyph-name="a" unicode="a" horiz-adv-x="484" 
d="M403 137q-7 -47 -50 -95q-38 -45 -84 -67q-62 -30 -111 -30q-81 0 -132 51.5t-51 131.5q0 111 86 183q81 67 194 67q21 0 42 -3q12 41 12 73q0 72 -60 72q-25 0 -49 -17t-32 -41q-3 -13 -11 -35q-21 -32 -72 -32q-62 0 -62 46q0 43 29 90q25 40 62 71q73 60 157 60
q21 0 47 -5q54 -10 96.5 -63.5t42.5 -108.5q0 -8 -2 -15zM262 144l14 88h-88q-20 0 -43 -25.5t-26 -46.5q-5 -29 13.5 -51t47.5 -22q22 0 50.5 18.5t31.5 38.5z" />
    <glyph glyph-name="b" unicode="b" horiz-adv-x="484" 
d="M391 137q-8 -49 -49 -96q-37 -43 -85 -66q-62 -30 -110 -30q-89 0 -143 69q-43 53 -43 107q0 9 2 17l98 622q3 20 35 33q24 10 43 10q21 0 42 -11q25 -12 22 -31l-18 -114q37 15 75 15q20 0 46 -5q55 -11 97 -63.5t42 -108.5q0 -9 -1 -15zM251 144l50 319q3 19 -20 38
t-43 19q-23 0 -51 -18.5t-31 -39.5l-51 -317q-3 -20 20 -39t44 -19t50 18.5t32 38.5z" />
    <glyph glyph-name="c" unicode="c" horiz-adv-x="470" 
d="M311 2q-74 -57 -153 -57q-89 0 -143 69q-42 53 -42 107q0 11 1 17l52 331q7 47 50 96q39 44 85 67q61 30 110 30q77 0 130.5 -51t53.5 -128q0 -16 -2 -29q-9 -59 -80 -59q-55 0 -62 32v35q0 24 -19 41t-43 17q-22 0 -49 -18q-30 -19 -33 -39l-50 -319q-3 -19 16 -38
t47 -19q56 0 81 58q2 12 11 35q19 32 72 32q62 0 62 -46q0 -44 -30 -92q-26 -42 -65 -72z" />
    <glyph glyph-name="d" unicode="d" horiz-adv-x="489" 
d="M391 137q-8 -49 -49 -96q-37 -43 -85 -66q-62 -30 -110 -30q-89 0 -143 69q-43 53 -43 107q0 9 2 17l52 331q8 49 49 96q37 44 85 67q61 30 111 30q40 0 68 -14q1 0 19 105q9 50 79 50q21 0 42 -11q25 -12 22 -31zM251 144l50 319q3 19 -20 38t-43 19q-23 0 -51 -18.5
t-31 -39.5l-51 -317q-3 -20 20 -39t44 -19t50 18.5t32 38.5z" />
    <glyph glyph-name="e" unicode="e" horiz-adv-x="480" 
d="M311 2q-74 -57 -153 -57q-89 0 -143 69q-42 53 -42 107q0 11 1 17l52 331q7 47 50 96q39 44 85 67q61 30 110 30q81 0 132 -51.5t51 -131.5q0 -112 -88 -184q-82 -66 -197 -66q-19 0 -38 2q-11 -43 -11 -74q0 -70 60 -70q56 0 81 58q2 12 11 35q19 32 72 32q62 0 62 -46
q0 -44 -30 -92q-26 -42 -65 -72zM310 447q5 29 -13.5 51t-47.5 22q-23 0 -51 -18.5t-31 -39.5l-14 -87h88q19 0 42.5 26t26.5 46z" />
    <glyph glyph-name="f" unicode="f" horiz-adv-x="325" 
d="M392 732q-5 -38 -23 -53.5t-56 -15.5h-17q-23 1 -18 1q-30 0 -60 -15q-36 -17 -40 -44l-11 -69q15 -4 41 -4q5 0 14 1h14q67 0 67 -50q0 -7 -2 -20q-9 -60 -55 -68q-49 -1 -98 -3l-66 -397q-14 -50 -79 -50q-22 0 -43 11q-24 12 -21 33l98 622q5 34 34 74q84 118 239 118
q43 0 56 -5q28 -9 28 -42q0 -10 -2 -24z" />
    <glyph glyph-name="g" unicode="g" 
d="M391 -5q-8 -49 -49 -96q-37 -43 -85 -66q-62 -30 -110 -30q-77 0 -130.5 51t-53.5 128q0 16 2 29q9 59 80 59q18 0 37 -8q23 -9 24 -25v-34q1 -23 20.5 -40.5t42.5 -17.5q22 0 50.5 19t31.5 39l13 85q-118 1 -176 33q-76 43 -76 149q0 32 11 106q8 56 23 118
q27 76 103 125q67 43 133 43q21 0 47 -5q54 -10 96.5 -63.5t42.5 -108.5q0 -9 -1 -15zM287 233l36 230q3 20 -19.5 38.5t-43.5 18.5q-58 0 -81 -63q-2 -5 -14 -81q-11 -69 -11 -82q0 -33 13 -43q25 -19 32 -18h88z" />
    <glyph glyph-name="h" unicode="h" 
d="M368 -12q-3 -19 -31 -32q-23 -11 -47 -11q-21 0 -42 11q-25 13 -22 33l75 473q3 22 -19 40t-44 18t-49 -18q-30 -19 -33 -39l-75 -475q-3 -20 -31 -32q-24 -11 -47 -11q-22 0 -43 11q-24 12 -21 33l122 771q3 20 35 33q24 10 43 10q21 0 42 -11q25 -12 22 -31l-18 -114
q37 15 75 15q20 0 46 -5q55 -11 97 -63.5t42 -108.5q0 -9 -1 -15z" />
    <glyph glyph-name="i" unicode="i" horiz-adv-x="204" 
d="M120 682q-63 0 -63 48q0 6 1 13q9 60 81 60q62 0 62 -48q0 -73 -81 -73zM81 -12q-3 -20 -31 -32q-24 -11 -47 -11q-22 0 -43 11q-24 12 -21 33l100 629q3 18 31 32q25 12 46 12q18 0 40 -11q28 -14 25 -32z" />
    <glyph glyph-name="j" unicode="j" horiz-adv-x="398" 
d="M405 743q-9 -61 -80 -61q-63 0 -63 48q0 6 1 13q9 60 81 60q62 0 62 -47q0 -6 -1 -13zM287 -5q-5 -32 -34 -73q-84 -119 -239 -119q-45 0 -61 7q-23 10 -23 42q0 10 2 22q11 70 82 70q5 0 16 -1h15q32 0 61 14q36 18 40 46l98 615q3 18 31 32q25 12 46 12q18 0 40 -11
q28 -14 25 -32z" />
    <glyph glyph-name="k" unicode="k" 
d="M383 85q-2 -20 -7 -60q-12 -80 -86 -80q-21 0 -42 11q-25 13 -22 33l30 186q2 12 -16.5 35t-32.5 23h-87l-39 -245q-3 -19 -31 -32q-23 -11 -47 -11q-22 0 -43 11q-24 12 -21 33l122 771q3 20 35 33q24 10 43 10q24 0 43 -11q24 -14 20 -38l-58 -369q31 41 79 113
q110 167 140 167q29 0 56 -21q28 -24 24 -52q-4 -23 -154 -229q109 -70 109 -163q0 -14 -15 -115z" />
    <glyph glyph-name="l" unicode="l" horiz-adv-x="366" 
d="M279 16q-8 -49 -39 -63q-17 -8 -66 -8q-51 0 -74 5q-55 12 -97 64t-42 108q0 8 2 16l98 622q3 20 35 33q24 10 43 10q21 0 42 -11q25 -12 22 -31l-98 -617q-2 -13 18 -39q12 -16 124 -19q21 -3 29 -27q7 -20 3 -43z" />
    <glyph glyph-name="m" unicode="m" horiz-adv-x="775" 
d="M666 -12q-3 -19 -31 -32q-23 -11 -46 -11q-24 0 -43 10q-24 12 -21 34l74 473q3 22 -19 40t-44 18q-21 0 -50 -18.5t-32 -38.5l-75 -475q-3 -19 -31 -32q-23 -11 -47 -11q-22 0 -42 11q-25 13 -22 33l75 473q4 23 -18 40.5t-45 17.5q-22 0 -49 -18q-30 -19 -33 -39
l-75 -475q-3 -19 -31 -32q-23 -11 -47 -11q-21 0 -42 11q-25 13 -22 33l76 480q7 47 50 96q39 44 85 67q61 30 110 30q84 0 135 -56q78 56 152 56q21 0 47 -5q54 -10 96.5 -63.5t42.5 -108.5q0 -9 -1 -15z" />
    <glyph glyph-name="n" unicode="n" 
d="M379 -12q-3 -19 -31 -32q-23 -11 -47 -11q-22 0 -42 11q-25 13 -22 33l75 473q4 23 -18 40.5t-45 17.5q-22 0 -49 -18q-30 -19 -33 -39l-75 -475q-3 -19 -31 -32q-23 -11 -47 -11q-21 0 -42 11q-25 13 -22 33l76 480q7 47 50 96q39 44 85 67q61 30 110 30q21 0 47 -5
q54 -10 96.5 -63.5t42.5 -108.5q0 -8 -2 -15z" />
    <glyph glyph-name="o" unicode="o" horiz-adv-x="484" 
d="M403 137q-7 -47 -50 -95q-38 -45 -84 -67q-62 -30 -111 -30q-89 0 -143 69q-42 53 -42 107q0 11 1 17l52 331q7 47 50 96q39 44 85 67q61 30 110 30q21 0 47 -5q54 -10 96.5 -63.5t42.5 -108.5q0 -8 -2 -15zM262 144l50 319q3 19 -20 38t-43 19q-23 0 -51 -18.5
t-31 -39.5l-50 -317q-3 -21 19.5 -39.5t43.5 -18.5q22 0 50.5 18.5t31.5 38.5z" />
    <glyph glyph-name="p" unicode="p" horiz-adv-x="486" 
d="M414 137q-7 -47 -50 -95q-38 -45 -84 -67q-62 -30 -111 -30q-44 0 -68 14q-1 0 -19 -105q-9 -51 -79 -51q-22 0 -42 11q-25 13 -22 33l98 622q7 47 50 96q39 44 85 67q61 30 110 30q21 0 47 -5q54 -10 96.5 -63.5t42.5 -108.5q0 -9 -1 -15zM273 144l51 319q3 19 -20.5 38
t-43.5 19q-22 0 -50.5 -19t-31.5 -39l-50 -317q-3 -21 20 -39.5t44 -18.5t49.5 18.5t31.5 38.5z" />
    <glyph glyph-name="q" unicode="q" 
d="M368 -154q-3 -19 -32 -32q-24 -11 -46 -11q-19 0 -40 10q-26 13 -23 34l17 112q-36 -14 -75 -14q-88 0 -142 69q-43 53 -43 107q0 11 1 17l52 331q7 47 50 96q39 44 85 67q61 30 110 30q21 0 47 -5q54 -10 96.5 -63.5t42.5 -108.5q0 -9 -1 -15zM273 144l51 319
q3 19 -20.5 38t-43.5 19q-22 0 -50.5 -19t-31.5 -39l-50 -317q-3 -21 20 -39.5t44 -18.5t49.5 18.5t31.5 38.5z" />
    <glyph glyph-name="r" unicode="r" horiz-adv-x="367" 
d="M381 591q-6 -39 -23.5 -54.5t-55.5 -15.5h-18q-24 1 -18 1q-30 0 -60 -15q-35 -17 -39 -44l-75 -475q-3 -19 -31 -32q-23 -11 -47 -11q-21 0 -42 11q-25 13 -22 33l76 480q5 33 34 74q84 119 239 119q43 0 57 -5q27 -9 27 -43q0 -11 -2 -23z" />
    <glyph glyph-name="s" unicode="s" horiz-adv-x="481" 
d="M158 -55q-76 0 -130 51.5t-54 127.5q0 16 2 29q9 59 80 59q17 0 36 -8q24 -9 25 -23q1 -36 2 -42q4 -23 19 -35q20 -17 42 -17q30 0 55 21.5t29 51.5q4 26 -8.5 46.5t-37.5 24.5l-52 8q-34 6 -55 15q-44 19 -68 69q-22 44 -22 96q0 102 89 180q73 63 161 63
q77 0 130.5 -51t53.5 -128q0 -16 -2 -29q-9 -59 -80 -59q-55 0 -62 32v35q0 24 -19 41t-43 17q-30 0 -54.5 -22t-29.5 -51q-4 -24 9 -46t37 -24l61 -7q63 -14 100 -64t37 -116q0 -97 -77 -171t-174 -74z" />
    <glyph glyph-name="t" unicode="t" horiz-adv-x="372" 
d="M279 16q-8 -49 -39 -63q-17 -8 -66 -8q-51 0 -74 5q-55 12 -97 64t-42 108q0 8 2 16l98 622q3 20 35 33q24 10 43 10q61 0 61 -48l-13 -91q16 -4 42 -4q5 0 13 1h13q33 0 48 -8q20 -11 20 -42q0 -7 -2 -20q-9 -60 -54 -68q-50 -1 -99 -3l-61 -369q3 -37 21.5 -51
t58.5 -14h26q68 0 68 -49q0 -9 -2 -21z" />
    <glyph glyph-name="u" unicode="u" horiz-adv-x="489" 
d="M403 137q-7 -47 -50 -95q-38 -45 -84 -67q-62 -30 -111 -30q-89 0 -143 69q-42 53 -42 107q0 11 1 17l76 480q3 18 32 32q24 12 46 12q17 0 39 -11q28 -14 25 -32l-75 -475q-3 -19 16 -38t47 -19q22 0 50.5 18.5t31.5 39.5l75 473q3 18 32 32q25 12 46 12q20 0 41 -11
q26 -14 23 -32z" />
    <glyph glyph-name="v" unicode="v" horiz-adv-x="471" 
d="M475 615q-10 -25 -56 -146l-84 -221q-19 -49 -66 -173q-28 -77 -40 -94q-25 -36 -75 -36q-38 0 -54 22q-12 18 -14 59q-4 122 -21 368l-15 226q3 20 29 32q22 10 45 10q67 0 71 -73q1 -40 2 -119q4 -22 7 -79q3 -76 6 -96q36 96 130 334q6 15 31 25q20 8 40 8
q23 0 43 -12q25 -14 21 -35z" />
    <glyph glyph-name="w" unicode="w" horiz-adv-x="776" 
d="M690 137q-7 -47 -50 -95q-38 -45 -84 -67q-62 -30 -111 -30q-76 0 -135 56q-75 -56 -152 -56q-89 0 -143 69q-42 53 -42 107q0 11 1 17l76 480q3 18 32 32q24 12 46 12q17 0 39 -11q28 -14 25 -32l-75 -475q-3 -19 16 -38t47 -19q22 0 50.5 18.5t31.5 39.5l75 473
q3 18 32 32q25 12 46 12q20 0 41 -11q26 -14 23 -32l-75 -475q-3 -19 16 -38t47 -19q22 0 50.5 18.5t31.5 39.5l75 473q3 18 32 32q25 12 46 12q20 0 41 -11q26 -14 23 -32z" />
    <glyph glyph-name="x" unicode="x" horiz-adv-x="438" 
d="M340 6q-4 -26 -41 -45q-31 -16 -56 -16q-17 0 -29 15t-12 32q0 11 -13 51q-6 19 -22 79q-15 -27 -52 -79q-3 -6 -31 -60q-20 -38 -52 -38q-27 0 -53 17q-30 19 -26 44q57 98 168 294l-74 301q6 24 40 43q31 18 58 18q37 0 40 -47l13 -51q6 -24 22 -86q12 18 42 68l38 70
q28 46 56 46q26 0 52 -17q30 -20 27 -44l-169 -301q15 -61 46 -180q29 -110 28 -114z" />
    <glyph glyph-name="y" unicode="y" horiz-adv-x="491" 
d="M391 -5q-8 -49 -49 -96q-37 -43 -85 -66q-62 -30 -110 -30q-77 0 -130.5 51t-53.5 128q0 16 2 29q9 59 80 59q18 0 37 -8q23 -9 24 -25v-34q1 -23 20.5 -40.5t42.5 -17.5q22 0 50.5 19t31.5 39l13 85q-39 0 -118 7q-54 10 -96.5 63t-42.5 109q0 10 1 16l53 335
q3 19 35 33q26 11 43 11q20 0 41 -11q26 -14 23 -32l-52 -330q-2 -12 16.5 -34.5t31.5 -22.5h88l61 386q3 20 31 33q23 11 47 11q20 0 41 -11q26 -14 23 -32z" />
    <glyph glyph-name="z" unicode="z" horiz-adv-x="474" 
d="M329 -55h-342q-19 0 -28 28q-7 23 -4 43q3 17 127 215l180 287q-1 2 -178 2q-40 6 -40 53q0 31 17.5 60t45.5 29h328q25 0 34.5 -22.5t5.5 -47.5q-3 -16 -133 -223l-175 -280l178 -2q40 0 40 -54q0 -29 -18 -58.5t-38 -29.5z" />
    <glyph glyph-name="sterling" unicode="&#xa3;" horiz-adv-x="244" 
 />
    <glyph glyph-name="glyph92" horiz-adv-x="1000" 
 />
    <glyph glyph-name="glyph93" horiz-adv-x="400" 
 />
    <glyph glyph-name="glyph94" horiz-adv-x="400" 
 />
  </font>
</defs>
</svg>
